<svg width="75" height="90" viewBox="0 0 75 90" fill="none" xmlns="http://www.w3.org/2000/svg">
<path d="M73.6296 16.872V48.9775C73.6296 49.9901 72.7329 50.8121 71.6283 50.8121H68.2303V21.9574C68.2303 20.9448 67.3336 20.1229 66.229 20.1229H26.8226L23.4684 13.9256C23.1284 13.3021 22.4357 12.9055 21.6751 12.9055H12.1689V9.65462C12.1689 8.64205 13.0656 7.82007 14.1702 7.82007H27.0748C27.8354 7.82007 28.5316 8.21632 28.8681 8.84017L32.2223 15.0374H71.628C72.7329 15.0374 73.6296 15.8594 73.6296 16.872Z" fill="#FC5D3D"/>
<path d="M71.0317 21.9574V50.812H68.2299V21.9574C68.2299 20.9448 67.3332 20.1228 66.2287 20.1228H26.8226L23.4684 13.9256C23.1284 13.302 22.4357 12.9055 21.6751 12.9055H12.1689V10.337H21.6751C23.5042 10.337 25.1536 11.2726 25.9738 12.7771L28.5595 17.5544H66.2283C68.8783 17.5544 71.0317 19.5284 71.0317 21.9574Z" fill="#B34F33"/>
<path d="M68.2298 21.9574V54.0631C68.2298 55.0757 67.3332 55.8976 66.2286 55.8976H62.8305V27.0429C62.8305 26.0303 61.9338 25.2084 60.8292 25.2084H21.4232L18.069 19.0111C17.7289 18.3876 17.0363 17.991 16.2757 17.991H6.76953V14.7401C6.76953 13.7275 7.6662 12.9055 8.77079 12.9055H21.6754C22.4359 12.9055 23.1322 13.3018 23.4687 13.9256L26.8228 20.1229H66.2286C67.3332 20.1229 68.2298 20.9449 68.2298 21.9574Z" fill="#72C2E9"/>
<path d="M65.6323 27.0429V55.8975H62.8305V27.0429C62.8305 26.0303 61.9338 25.2084 60.8292 25.2084H21.4232L18.069 19.0111C17.7289 18.3876 17.0363 17.991 16.2757 17.991H6.76953V15.4226H16.2757C18.1048 15.4226 19.7541 16.3582 20.5744 17.8627L23.1601 22.6399H60.8289C63.4789 22.6399 65.6323 24.614 65.6323 27.0429Z" fill="#4BA5C8"/>
<path d="M62.8308 27.043V59.1487C62.8308 60.1613 61.9341 60.9833 60.8295 60.9833H3.37138C2.26679 60.9833 1.37012 60.1613 1.37012 59.1487V19.8259C1.37012 18.813 2.26679 17.9913 3.37138 17.9913H16.276C17.0365 17.9913 17.7289 18.3876 18.0693 19.0114L21.4234 25.2087H60.8295C61.9341 25.2084 62.8308 26.0304 62.8308 27.043Z" fill="#1279E0"/>
<path d="M59.2578 55.8798H11.4741C10.9807 55.8798 10.581 55.4824 10.581 54.992C10.581 54.5015 10.9807 54.1041 11.4741 54.1041H58.3647V23.2981C58.3647 22.8077 58.7644 22.4103 59.2578 22.4103C59.7511 22.4103 60.1509 22.8077 60.1509 23.2981V54.992C60.1509 55.4824 59.7511 55.8798 59.2578 55.8798ZM7.90166 55.8798H4.94193C4.44858 55.8798 4.04883 55.4824 4.04883 54.992C4.04883 54.5015 4.44858 54.1041 4.94193 54.1041H7.90166C8.39501 54.1041 8.79476 54.5015 8.79476 54.992C8.79476 55.4824 8.39501 55.8798 7.90166 55.8798Z" fill="#F9E5AF"/>
<path d="M73.6304 35.9868C74.1236 35.9868 74.5235 35.5893 74.5235 35.099C74.5235 34.6087 74.1236 34.2112 73.6304 34.2112C73.1372 34.2112 72.7373 34.6087 72.7373 35.099C72.7373 35.5893 73.1372 35.9868 73.6304 35.9868Z" fill="black"/>
<path d="M14.1973 40.089C14.1973 44.1164 17.491 47.3941 21.5421 47.3941C25.5932 47.3941 28.8905 44.1164 28.8905 40.089C28.8905 37.8803 27.8949 35.9024 26.3313 34.5624H37.8691C36.3054 35.9024 35.3098 37.8803 35.3098 40.089C35.3098 44.1164 38.6071 47.3941 42.6582 47.3941C46.7093 47.3941 50.0031 44.1164 50.0031 40.089C50.0031 36.0612 46.7093 32.7866 42.6582 32.7866H21.5421C17.491 32.787 14.1973 36.0612 14.1973 40.089ZM48.2208 40.089C48.2137 43.1323 45.7166 45.6152 42.6586 45.6184C39.597 45.6148 37.1035 43.1323 37.0964 40.089C37.1035 37.0453 39.597 34.5659 42.6586 34.5624C45.7166 34.5659 48.2137 37.0453 48.2208 40.089ZM27.1043 40.089C27.0972 43.1323 24.6037 45.6152 21.5421 45.6184C18.4841 45.6148 15.987 43.1323 15.9835 40.089C15.987 37.0453 18.4841 34.5659 21.5421 34.5624C24.6037 34.5659 27.0972 37.0453 27.1043 40.089Z" fill="black"/>
<path d="M15.0903 16.8626C15.0903 16.3725 14.6902 15.9748 14.1973 15.9748H7.68119C7.1882 15.9748 6.78809 16.3725 6.78809 16.8626C6.78809 17.3527 7.1882 17.7504 7.68119 17.7504H14.1973C14.6902 17.7504 15.0903 17.3527 15.0903 16.8626Z" fill="black"/>
<path d="M0.475586 13.9072V56.5533C0.479158 58.1412 1.77594 59.4304 3.3728 59.4304H60.8277C62.4246 59.4304 63.7214 58.1412 63.7249 56.5533V53.9174L66.2292 53.9149C67.8225 53.9149 69.1228 52.6258 69.1228 51.0382V48.402L71.6271 48.3995C73.224 48.3995 74.5207 47.1103 74.5243 45.5228V38.6503C74.5243 38.1602 74.1206 37.7625 73.6312 37.7625C73.1382 37.7625 72.7381 38.1602 72.7381 38.6503V45.5228C72.7345 46.1301 72.238 46.6238 71.6271 46.6238H69.1228V16.2196C69.1228 14.6356 67.8225 13.3425 66.2292 13.3425H27.3758L24.2678 7.11716C23.7784 6.12985 22.7852 5.51509 21.6742 5.51509H13.0612V2.88025C13.0647 2.27294 13.5613 1.77929 14.1722 1.77609H27.0793C27.4937 1.77609 27.883 2.01759 28.0688 2.39014L31.4233 9.10953C31.5698 9.41176 31.8841 9.60354 32.2235 9.60354H71.6271C72.238 9.60709 72.7345 10.1004 72.7381 10.7077V31.5478C72.7381 32.0382 73.1382 32.4356 73.6312 32.4356C74.1206 32.4356 74.5243 32.0382 74.5243 31.5478V10.7077C74.5207 9.12019 73.224 7.82781 71.6271 7.82781H32.7772L29.6692 1.60172C29.1763 0.614405 28.1831 0 27.0757 0H14.1722C12.5753 0.00355147 11.2785 1.29274 11.275 2.88025V5.51544H8.7707C7.17741 5.51935 5.87706 6.80853 5.87706 8.39569V11.0309H3.3728C1.77594 11.0309 0.479158 12.3233 0.475586 13.9072ZM7.66326 8.39569C7.66326 7.78838 8.15982 7.29473 8.7707 7.29118H21.6742C22.0958 7.29118 22.4851 7.53303 22.6673 7.90558L26.0218 14.6285C26.1754 14.9304 26.4827 15.1186 26.822 15.1186H66.2292C66.8401 15.1186 67.3366 15.6158 67.3366 16.2199V51.0386C67.3366 51.6459 66.8401 52.1396 66.2292 52.1396H63.7249V21.7354C63.7214 20.1514 62.4246 18.8587 60.8277 18.8587H37.9179C37.4249 18.8587 37.0248 19.2565 37.0248 19.7466C37.0248 20.2367 37.4249 20.6344 37.9179 20.6344C37.9179 20.6344 37.9215 20.6344 37.9251 20.6344H60.8277C61.4386 20.6344 61.9352 21.1316 61.9387 21.7354V56.554C61.9352 57.1613 61.4386 57.6553 60.8277 57.6553H3.3728C2.76192 57.6553 2.26536 57.1613 2.26179 56.554V13.9072C2.26536 13.3038 2.76192 12.8098 3.3728 12.8063H16.2763C16.6979 12.8063 17.0801 13.0442 17.2694 13.4203L20.6239 20.1404C20.7704 20.4387 21.0848 20.6341 21.4241 20.6341H30.7731C31.2661 20.6341 31.6662 20.2363 31.6662 19.7462C31.6662 19.2561 31.2661 18.8583 30.7731 18.8583H21.9779L18.8699 12.6326C18.3733 11.6456 17.3802 11.0309 16.2763 11.0309H7.66326V8.39569Z" fill="black"/>
<path d="M34.3452 20.6339C34.8385 20.6339 35.2383 20.2364 35.2383 19.746C35.2383 19.2557 34.8385 18.8582 34.3452 18.8582C33.852 18.8582 33.4521 19.2557 33.4521 19.746C33.4521 20.2364 33.852 20.6339 34.3452 20.6339Z" fill="black"/>
</svg>
