<svg width="61" height="61" viewBox="0 0 61 61" fill="none" xmlns="http://www.w3.org/2000/svg">
<path d="M53.3397 6.82558V19.769C53.3397 26.8627 51.3619 33.6751 47.7972 39.5321C47.5899 39.8752 47.3755 40.2159 47.1563 40.5519C46.4771 40.285 45.6765 40.4304 45.1309 40.9761C45.1118 40.9951 39.5122 46.5923 39.4931 46.6114C38.2874 47.8457 37.6464 49.1801 37.4082 50.7218C36.9864 51.0244 36.5575 51.3175 36.1214 51.601H36.1191C34.942 52.3707 33.7196 53.0784 32.4448 53.7217C31.22 54.3389 29.7808 54.3389 28.556 53.7217C27.2836 53.0807 26.0564 52.3707 24.8817 51.601C24.4433 51.3175 24.0144 51.0244 23.5926 50.7218C23.3543 49.1801 22.7134 47.8457 21.5077 46.6114C21.4886 46.5923 15.889 40.9951 15.8699 40.9761C15.3243 40.4304 14.5236 40.285 13.8445 40.5519C13.6253 40.2159 13.4109 39.8752 13.2036 39.5321C9.63648 33.6703 7.66113 26.8555 7.66113 19.769V6.82558C7.66113 4.44277 9.59121 2.51746 11.9693 2.51746H49.0315C51.4096 2.51746 53.3397 4.44277 53.3397 6.82558Z" fill="#1279E0"/>
<path d="M24.8823 51.601C24.4438 51.3175 24.0149 51.0244 23.5932 50.7218C23.3549 49.1801 22.7139 47.8457 21.5082 46.6114C21.4891 46.5923 15.8895 40.9951 15.8705 40.9761C15.3248 40.4304 14.5242 40.285 13.8451 40.5519C13.6259 40.2159 13.4114 39.8752 13.2041 39.5321C14.3145 39.0079 15.7227 39.1437 16.7116 40.1325L22.3493 45.7679C23.698 47.1499 24.4867 48.7059 24.7703 50.5407C24.8251 50.879 24.8632 51.2293 24.8823 51.601Z" fill="#E3EFFB"/>
<path d="M47.7978 39.532C47.5905 39.8751 47.3761 40.2159 47.1569 40.5519C46.4778 40.285 45.6771 40.4303 45.1315 40.976C45.1124 40.9951 39.5128 46.5923 39.4938 46.6114C38.288 47.8457 37.6471 49.18 37.4088 50.7217C36.987 51.0243 36.5581 51.3174 36.1221 51.601C36.1411 51.2269 36.1769 50.8742 36.2317 50.5335C36.5152 48.7059 37.3039 47.1499 38.6407 45.7798L44.2903 40.1325C45.2792 39.1436 46.6875 39.0054 47.7978 39.532Z" fill="#E3EFFB"/>
<path d="M48.1696 7.68768V19.7693C48.1696 24.1803 47.3044 28.4365 45.6931 32.3443C45.6931 32.3443 45.6931 32.3465 45.691 32.351C43.4259 37.8477 39.6844 42.6564 34.8013 46.234C34.289 46.6093 33.7653 46.971 33.2284 47.3193C32.352 47.8879 31.442 48.418 30.5003 48.9082C29.5589 48.4183 28.6486 47.8879 27.7722 47.3193C27.2352 46.971 26.7116 46.6093 26.1993 46.234C21.3162 42.6564 17.5748 37.8477 15.3097 32.351C15.3075 32.3465 15.3075 32.3443 15.3075 32.3443C13.6963 28.4365 12.8311 24.1803 12.8311 19.7693V7.68768H48.1696Z" fill="#EFEFEF"/>
<path d="M33.4175 22.6908H27.6709L27.6721 21.0279C27.6726 20.4684 28.1263 20.0152 28.6855 20.0152H31.6507C32.0102 20.0152 32.3646 19.9282 32.6834 19.7619L33.922 19.1152C34.5487 20.3659 34.287 21.7644 33.4175 22.6908Z" fill="#7C7B7A"/>
<path d="M30.5436 27.6792C28.9571 27.6792 27.6709 26.393 27.6709 24.8065V22.6906H33.4163V24.8065C33.4163 26.3932 32.1303 27.6792 30.5436 27.6792Z" fill="#FFB69F"/>
<path d="M35.9884 30.8746C35.256 31.5959 34.802 32.5981 34.802 33.7061V46.234C34.2897 46.6093 33.766 46.971 33.2291 47.3193C32.3527 47.8879 31.4427 48.4181 30.5011 48.9082C29.5596 48.4183 28.6494 47.8879 27.773 47.3193C27.2359 46.971 26.7124 46.6093 26.2001 46.234V33.7061C26.2001 32.5983 25.7461 31.5961 25.0137 30.8746C25.1238 30.3173 25.3508 29.8028 25.6675 29.3577C26.3866 28.3419 27.5731 27.679 28.91 27.679H32.0921C33.4291 27.679 34.6157 28.3419 35.3346 29.3577C35.6513 29.8028 35.8781 30.3173 35.9884 30.8746Z" fill="#1279E0" fill-opacity="0.39"/>
<path d="M27.773 33.7061V47.3193C27.2359 46.9709 26.7124 46.6092 26.2001 46.2339V33.7061C26.2001 32.5983 25.7461 31.5961 25.0137 30.8746C25.1238 30.3172 25.3508 29.8028 25.6675 29.3577C25.8226 29.479 25.9732 29.6117 26.1148 29.7508C27.1842 30.805 27.773 32.2094 27.773 33.7061Z" fill="#B34F33"/>
<path d="M35.9878 30.8746C35.2553 31.5958 34.8014 32.5981 34.8014 33.7061V46.2339C34.2891 46.6092 33.7654 46.9709 33.2285 47.3193V33.7061C33.2285 32.2094 33.8173 30.805 34.8846 29.7532C35.0285 29.6117 35.1788 29.479 35.334 29.3577C35.6506 29.8028 35.8775 30.3172 35.9878 30.8746Z" fill="#B34F33"/>
<path d="M23.5503 24.7436H17.8037L17.8049 23.0806C17.8054 22.5211 18.2591 22.0679 18.8183 22.0679H21.7835C22.143 22.0679 22.4974 21.9809 22.8162 21.8146L24.0548 21.1679C24.6812 22.4186 24.4198 23.8174 23.5503 24.7436Z" fill="#7C7B7A"/>
<path d="M20.6764 29.732C19.09 29.732 17.8037 28.4458 17.8037 26.8593V24.7433H23.5492V26.8593C23.5492 28.446 22.2629 29.732 20.6764 29.732Z" fill="#FFB69F"/>
<path d="M43.2837 24.7436H37.5371L37.5383 23.0806C37.5388 22.5211 37.9925 22.0679 38.5517 22.0679H41.5169C41.8764 22.0679 42.2308 21.9809 42.5496 21.8146L43.7882 21.1679C44.4149 22.4186 44.1535 23.8174 43.2837 24.7436Z" fill="#7C7B7A"/>
<path d="M40.4108 29.732C38.8243 29.732 37.5381 28.4458 37.5381 26.8593V24.7433H43.2835V26.8593C43.2833 28.446 41.9973 29.732 40.4108 29.732Z" fill="#FFB69F"/>
<path d="M26.1995 33.7061V46.234C21.3164 42.6565 17.5749 37.8477 15.3098 32.351C15.3076 32.3465 15.3076 32.3444 15.3076 32.3444C15.865 30.8208 17.3278 29.733 19.0424 29.733H22.2266C23.312 29.733 24.2963 30.1712 25.013 30.8746C25.7455 31.5959 26.1995 32.5981 26.1995 33.7061Z" fill="#1279E0"/>
<path d="M45.6936 32.3444C45.6936 32.3444 45.6936 32.3465 45.6915 32.351C43.4264 37.8477 39.6849 42.6565 34.8018 46.234V33.7061C34.8018 32.5984 35.2557 31.5962 35.9882 30.8746C36.7049 30.1712 37.6893 29.733 38.7746 29.733H41.9588C43.6732 29.733 45.1363 30.8208 45.6936 32.3444Z" fill="#1279E0"/>
<path d="M23.7096 58.4825L23.7073 52.1681C23.7025 51.6653 23.6668 51.184 23.5929 50.7217C23.3546 49.18 22.7136 47.8457 21.5079 46.6114C21.4889 46.5923 15.8893 40.9951 15.8702 40.976C15.3245 40.4304 14.5239 40.285 13.8448 40.5519C12.5788 41.0342 12.2319 42.6895 13.2205 43.6781L15.8535 46.3111C16.6732 47.1332 16.6661 48.47 15.8273 49.2801C15.0171 50.0641 13.6566 50.0045 12.8583 49.2086L9.30078 45.6511L6.3723 42.7202C6.04586 42.3938 5.85047 41.9411 5.85047 41.4597L5.77422 34.7092C5.77422 33.5607 4.84254 32.629 3.69641 32.629C2.54789 32.6314 1.61621 33.5607 1.61621 34.7092L1.69246 44.0213C1.69246 44.6289 1.93312 45.2079 2.36203 45.6344L13.5231 56.7979V58.4825H23.7096Z" fill="#FFB69F"/>
<path d="M57.3052 32.629C56.1591 32.629 55.2274 33.5607 55.2274 34.7092L55.1512 41.4597C55.1512 41.9434 54.9558 42.3938 54.6293 42.7202L51.7009 45.6511C50.4022 46.9497 51.1766 46.1753 48.1433 49.2086C47.3451 50.0045 45.9845 50.0641 45.1743 49.2801C44.3356 48.47 44.3284 47.1332 45.1481 46.3111L47.7811 43.6781C48.7705 42.6888 48.4219 41.0337 47.1568 40.5519C46.4777 40.285 45.6771 40.4304 45.1314 40.976C45.1124 40.9951 39.5128 46.5923 39.4937 46.6114C38.288 47.8457 37.647 49.18 37.4088 50.7217C37.3349 51.184 37.2991 51.6653 37.2944 52.1681L37.292 58.4825H47.4785V56.7979L58.6396 45.6344C59.0685 45.2079 59.3092 44.6289 59.3092 44.0213L59.3854 34.7092C59.3854 33.5607 58.4538 32.6314 57.3052 32.629Z" fill="#FFB69F"/>
<path d="M45.7304 38.8101C45.4487 38.64 45.3582 38.274 45.5281 37.9921C45.8112 37.5232 46.0873 37.0406 46.3485 36.5581C46.505 36.2686 46.8675 36.1611 47.156 36.3179C47.4453 36.4745 47.5528 36.8362 47.3962 37.1255C47.126 37.6244 46.8408 38.1232 46.5482 38.6078C46.3785 38.8892 46.0127 38.98 45.7304 38.8101ZM47.6886 35.2519C47.3895 35.1146 47.2582 34.761 47.3955 34.462C49.5214 29.8271 50.5994 24.8835 50.5994 19.7688V6.82538C50.5994 6.49631 50.8661 6.22968 51.1951 6.22968C51.5242 6.22968 51.7908 6.49631 51.7908 6.82538V19.7688C51.7908 25.056 50.6764 30.1667 48.4785 34.9588C48.3415 35.2571 47.9883 35.3893 47.6886 35.2519Z" fill="#F8E5B0"/>
<path d="M30.9469 52.0758C30.7987 51.782 30.9164 51.4239 31.2099 51.2757C32.5677 50.5901 33.8918 49.8107 35.1454 48.9589C35.4175 48.774 35.788 48.8447 35.9729 49.1168C36.1578 49.389 36.0871 49.7595 35.8152 49.9444C34.5194 50.8248 33.1505 51.6307 31.7473 52.3394C31.4532 52.4871 31.0951 52.3696 30.9469 52.0758Z" fill="#F8E5B0"/>
<path d="M30.2053 46.986C29.6852 46.6896 29.1698 46.3769 28.6732 46.0565C28.3968 45.878 28.3172 45.5094 28.4957 45.233C28.6744 44.9561 29.0435 44.8774 29.3192 45.0554C29.7035 45.3035 30.0995 45.5468 30.5003 45.7808C30.935 45.5268 31.3646 45.2613 31.7811 44.9892C32.0563 44.8095 32.4256 44.887 32.6055 45.1622C32.7854 45.4376 32.7082 45.807 32.4325 45.9866C31.9017 46.3333 31.3508 46.6696 30.7951 46.986C30.6109 47.0908 30.3869 47.0896 30.2053 46.986Z" fill="#FFCBC3"/>
<path d="M23.7527 42.1364C21.0911 39.5392 18.942 36.5249 17.3643 33.1699C17.2218 32.8754 17.3534 32.5163 17.6477 32.3788C17.9386 32.243 18.3053 32.3764 18.4411 32.6624C19.959 35.8887 22.0273 38.7862 24.584 41.2834C24.8199 41.5121 24.8247 41.891 24.5959 42.1245C24.36 42.3659 23.9886 42.3623 23.7527 42.1364Z" fill="#C5E5FE"/>
<path d="M36.2423 42.2619C36.0138 42.0253 36.0205 41.6481 36.2573 41.4196C38.1052 39.6353 39.7229 37.6159 41.0653 35.417C41.2369 35.1361 41.6034 35.0477 41.8843 35.219C42.1653 35.3903 42.2539 35.757 42.0823 36.038C40.6872 38.3233 39.0059 40.4223 37.0849 42.2767C36.8494 42.5037 36.4725 42.5002 36.2423 42.2619ZM42.4657 34.1787C42.1726 34.0295 42.0556 33.6706 42.205 33.3776C42.3261 33.1398 42.4438 32.901 42.5579 32.6613C42.6997 32.3644 43.0545 32.2381 43.3521 32.3801C43.649 32.5216 43.7748 32.8772 43.6335 33.1743C43.5146 33.4233 43.3922 33.6716 43.2666 33.9185C43.1174 34.2113 42.7586 34.3276 42.4657 34.1787Z" fill="#C5E5FE"/>
<path d="M22.0047 57.3724C21.6756 57.3724 21.409 57.1058 21.409 56.7767V56.07C21.409 55.7409 21.6756 55.4742 22.0047 55.4742C22.3338 55.4742 22.6004 55.7409 22.6004 56.07V56.7767C22.6004 57.1058 22.3338 57.3724 22.0047 57.3724ZM22.0047 54.2828C21.6756 54.2828 21.409 54.0162 21.409 53.6871V52.2963C21.409 50.4996 20.945 49.3023 19.807 48.1631L14.2412 42.6016C14.0082 42.369 14.0082 41.9918 14.2408 41.759C14.4736 41.526 14.851 41.5262 15.0831 41.7588L20.6493 47.3207C21.9987 48.6716 22.6004 50.2058 22.6004 52.2963V53.6871C22.6004 54.0162 22.3338 54.2828 22.0047 54.2828Z" fill="#FBE0E2"/>
<path d="M45.3514 56.512C45.1186 56.2795 45.1186 55.9023 45.3514 55.6697L57.0159 44.0049L57.06 37.5634C57.0626 37.236 57.3288 36.9725 57.6557 36.9725C57.6574 36.9725 57.6588 36.9725 57.6607 36.9725C57.9896 36.9751 58.2541 37.2439 58.2514 37.5729L58.1997 44.0125C58.1997 44.3296 58.0782 44.628 57.8576 44.8479L46.1937 56.512C45.9611 56.7446 45.5842 56.7446 45.3514 56.512ZM57.6748 35.7811C57.6734 35.7811 57.6717 35.7811 57.67 35.7811C57.341 35.7784 57.0765 35.5097 57.0791 35.1806L57.0829 34.704C57.0855 34.3766 57.3517 34.1131 57.6786 34.1131C57.68 34.1131 57.6817 34.1131 57.6834 34.1131C58.0124 34.1157 58.2769 34.3845 58.2743 34.7136L58.2705 35.1901C58.2679 35.5175 58.0017 35.7811 57.6748 35.7811Z" fill="#FBE0E2"/>
<path d="M48.7646 17.2194C48.7646 16.8905 48.498 16.6237 48.1689 16.6237C47.8415 16.6237 47.5732 16.8903 47.5732 17.2194V19.769C47.5732 23.6241 46.9077 27.3783 45.5969 30.9453C44.939 30.083 43.989 29.4756 42.9229 29.2435C43.5136 28.6214 43.8787 27.7831 43.8787 26.8595V24.9635C44.8373 23.7976 44.9838 22.2266 44.3207 20.9008C44.1791 20.6127 43.8189 20.4833 43.5127 20.6387L42.2738 21.2868C42.0425 21.4084 41.7806 21.4727 41.5159 21.4727H38.5521C37.6655 21.4727 36.9437 22.1947 36.9437 23.0811C36.9416 24.5437 36.9421 23.9036 36.9421 26.8595C36.9421 27.774 37.3004 28.6047 37.8811 29.2249C37.3171 29.3367 36.7817 29.5554 36.2982 29.8685C35.7194 28.5046 34.5109 27.505 33.0576 27.1893C33.6476 26.5671 34.0121 25.7296 34.0121 24.8067V22.9095C34.9753 21.7408 35.113 20.1574 34.4561 18.8495C34.3081 18.5535 33.9411 18.4322 33.6461 18.5873C32.3632 19.256 32.1638 19.4189 31.6517 19.4189H28.6851C27.7987 19.4189 27.0767 20.1409 27.0767 21.0273C27.0746 22.4885 27.0753 23.3456 27.0753 24.807C27.0753 25.7224 27.4344 26.5536 28.0158 27.1743C26.8825 27.4014 25.8615 28.0528 25.1819 29.0126C24.9899 29.2824 24.8307 29.5688 24.7032 29.869C24.24 29.569 23.7284 29.3584 23.1904 29.2428C23.7803 28.6207 24.1452 27.7829 24.1452 26.86V24.9652C25.1042 23.7964 25.2524 22.2283 24.5886 20.9013C24.4416 20.612 24.0839 20.4841 23.7787 20.6392C22.465 21.3276 22.2918 21.4732 21.7843 21.4732H18.82C17.9336 21.4732 17.2116 22.1952 17.2093 23.0816C17.2093 24.004 17.2083 25.0178 17.2083 26.86C17.2083 27.7767 17.5684 28.609 18.1512 29.2297C17.0556 29.4496 16.077 30.0642 15.4043 30.9458C14.0935 27.3792 13.4277 23.6268 13.4277 19.7695V8.2843H47.5734V12.4542C47.5734 12.7831 47.8403 13.0499 48.1692 13.0499C48.4982 13.0499 48.7649 12.7831 48.7649 12.4542V7.6886C48.7649 7.35882 48.5006 7.0929 48.1692 7.0929H12.832C12.5077 7.0929 12.2363 7.35334 12.2363 7.6886V19.7695C12.2297 32.3984 19.1894 43.6712 30.2242 49.4379C30.4046 49.5279 30.6042 49.5256 30.7746 49.4379C41.6326 43.7915 48.7649 32.5847 48.7649 19.7695L48.7646 17.2194ZM38.1335 25.34H42.6873V26.8595C42.6873 28.115 41.6657 29.1365 40.4102 29.1365C39.1547 29.1365 38.1332 28.115 38.1332 26.8595L38.1335 25.34ZM38.5521 22.6641H41.5161C41.9712 22.6641 42.4242 22.5521 42.8266 22.3424L43.4676 22.0088C43.6497 22.7968 43.4581 23.565 43.0108 24.1479H38.1327L38.1351 23.0811C38.1351 22.85 38.3234 22.6641 38.5521 22.6641ZM28.2665 24.8065V23.2863H32.8205V24.8065C32.8205 26.0613 31.8002 27.0821 30.5459 27.0833C29.282 27.0835 28.2665 26.057 28.2665 24.8065ZM28.2679 21.0271C28.2679 20.7984 28.4561 20.6101 28.6849 20.6101H31.6515C32.4576 20.6101 32.9065 20.3158 33.6006 19.9548C33.7836 20.7436 33.5899 21.5168 33.1431 22.0946H28.2655L28.2679 21.0271ZM18.3997 25.34H22.9537V26.8595C22.9537 28.115 21.9322 29.1365 20.6765 29.1365C19.421 29.1365 18.3995 28.115 18.3995 26.8595L18.3997 25.34ZM18.8198 22.6641H21.784C22.587 22.6641 23.05 22.3643 23.7332 22.0088C23.9174 22.7632 23.7372 23.5476 23.2761 24.1479H18.4007V23.0811C18.4007 22.85 18.5889 22.6641 18.8198 22.6641ZM15.9535 32.3383C16.492 31.1278 17.7051 30.3287 19.0424 30.3287H22.2265C24.0782 30.3287 25.6039 31.8272 25.6039 33.7058V45.0294C21.3661 41.677 18.0452 37.3139 15.9535 32.3383ZM30.5006 48.2341C29.1152 47.4954 27.9784 46.7767 26.7953 45.9263V33.7058C26.7953 32.5904 26.3957 31.5406 25.6687 30.708C25.7726 30.3487 25.933 30.0108 26.1532 29.7017C26.7858 28.8082 27.8161 28.2747 28.9096 28.2747C29.3068 28.2747 31.7239 28.2747 32.0916 28.2747C33.5732 28.2747 34.9119 29.2531 35.3327 30.708C34.6057 31.5398 34.2059 32.5902 34.2059 33.7058V45.9261C33.0605 46.7493 31.8838 47.4985 30.5006 48.2341ZM35.3973 45.0294V33.7061C35.3973 31.8255 36.9249 30.3289 38.7747 30.3289H41.9588C43.2963 30.3289 44.5094 31.1281 45.0479 32.339C42.9539 37.3148 39.6346 41.6768 35.3973 45.0294Z" fill="black"/>
<path d="M48.1689 15.4323C48.4979 15.4323 48.7647 15.1656 48.7647 14.8366C48.7647 14.5076 48.4979 14.2409 48.1689 14.2409C47.8399 14.2409 47.5732 14.5076 47.5732 14.8366C47.5732 15.1656 47.8399 15.4323 48.1689 15.4323Z" fill="black"/>
<path d="M33.0688 10.9541L29.447 14.576L27.932 13.061C27.6992 12.8282 27.3222 12.8282 27.0896 13.061C26.8568 13.2935 26.8568 13.6707 27.0896 13.9033L29.0259 15.8396C29.258 16.0719 29.6361 16.0719 29.8682 15.8396L33.9114 11.7964C34.1442 11.5638 34.1442 11.1866 33.9114 10.9541C33.6786 10.7213 33.3016 10.7213 33.0688 10.9541Z" fill="black"/>
<path d="M12.9272 58.4826C12.9272 58.8114 13.1941 59.0783 13.5229 59.0783C13.8517 59.0783 14.1186 58.8114 14.1186 58.4826V58.4802V56.798C14.1186 56.6383 14.0566 56.4882 13.9446 56.3762L2.78355 45.2127C2.46425 44.8958 2.28793 44.4717 2.28793 44.0213L2.21191 34.7045C2.21191 33.8896 2.87648 33.2272 3.69617 33.2248C4.51347 33.2272 5.17589 33.892 5.17828 34.7093L5.25453 41.4669C5.25691 42.1008 5.50472 42.6941 5.95031 43.1421L7.70882 44.9006C7.93519 45.1269 8.32597 45.1269 8.55234 44.903C8.78347 44.6694 8.78347 44.293 8.55234 44.0594L6.79382 42.2985C6.57222 42.0769 6.44593 41.7719 6.44593 41.4598L6.36968 34.7021C6.36492 33.2319 5.16636 32.0334 3.69617 32.0334C2.22121 32.0358 1.02051 33.2367 1.02051 34.7093L1.09652 44.0261C1.09652 44.7814 1.4039 45.5225 1.94242 46.0562L12.9274 57.0434V58.4826H12.9272Z" fill="black"/>
<path d="M10.2366 46.5875C10.4677 46.354 10.4677 45.9776 10.2366 45.744C10.0126 45.5201 9.61944 45.5201 9.39308 45.744C9.16194 45.9776 9.16194 46.354 9.39308 46.5875C9.63708 46.8268 10.0117 46.8125 10.2366 46.5875Z" fill="black"/>
<path d="M59.9043 44.0263L59.9803 34.7093C59.9803 33.2367 58.7806 32.0364 57.3046 32.0334C55.8302 32.0334 54.6309 33.2338 54.6309 34.7026L54.5549 41.4598C54.5549 41.7769 54.4315 42.075 54.2072 42.2992L47.7222 48.7869C47.1441 49.3626 46.1471 49.3931 45.5876 48.8517C44.9886 48.2734 44.9834 47.3198 45.5686 46.7322L48.2016 44.0994C49.281 43.02 49.1707 41.2625 47.9929 40.3496C51.939 34.0654 53.9351 26.9491 53.9351 19.7688V6.82534C53.9351 4.12132 51.7353 1.92151 49.0313 1.92151H11.9693C9.26524 1.92151 7.06543 4.12132 7.06543 6.82534V19.7688C7.06543 26.9425 9.05889 34.0609 13.0072 40.3487C11.8363 41.2541 11.7095 43.0112 12.7982 44.0994L15.4312 46.7324C16.0103 47.3115 16.016 48.2665 15.4122 48.8508C14.8486 49.3988 13.8595 49.364 13.2772 48.7864L11.9216 47.4282C11.6976 47.2042 11.3042 47.2042 11.0781 47.4282C10.8467 47.6617 10.8467 48.0406 11.0781 48.2717L12.4361 49.63C13.4652 50.6496 15.1851 50.7237 16.2416 49.7086C17.3008 48.6833 17.3439 46.9602 16.275 45.8913L13.642 43.2559C12.9684 42.5823 13.1773 41.4414 14.0566 41.109L14.0614 41.1066C14.556 40.9103 15.0996 41.0454 15.4482 41.3973C15.5161 41.466 20.9451 46.8916 21.0811 47.0279C22.3433 48.3258 23.0882 49.8337 23.1115 52.1724L23.1139 58.4821C23.1139 58.8109 23.3808 59.0778 23.7096 59.0778C24.0384 59.0778 24.3053 58.8109 24.3053 58.4821C24.3027 51.4335 24.3056 52.2334 24.297 51.9282C25.6135 52.8046 26.9207 53.564 28.2882 54.2536C29.6736 54.9512 31.3277 54.9515 32.7135 54.2533C34.1582 53.5239 35.4488 52.7629 36.7045 51.9282C36.6957 52.2363 36.6986 51.4364 36.6959 58.4821C36.6957 58.8112 36.9623 59.0778 37.2914 59.078C37.6202 59.078 37.8871 58.8114 37.8874 58.4826L37.8897 52.1736C37.9112 50.0012 38.551 48.4281 39.9146 47.0322L45.5526 41.3969C45.9167 41.0323 46.4605 40.9181 46.9447 41.1083C47.8037 41.4355 48.0479 42.568 47.3595 43.2566L44.7258 45.8901C43.6754 46.9436 43.6762 48.6611 44.7599 49.7079C45.7845 50.6991 47.5265 50.6639 48.5643 49.6295L55.0503 43.1411C55.4994 42.6922 55.7468 42.0948 55.7468 41.4662L55.8228 34.709C55.8228 33.8905 56.4878 33.2245 57.3039 33.2245C58.1231 33.2262 58.7894 33.8922 58.7894 34.704L58.7134 44.021C58.7134 44.4721 58.538 44.8948 58.2182 45.2129L47.0571 56.3764C46.9454 56.4882 46.8827 56.6395 46.8827 56.7977V58.4823C46.8827 58.8114 47.1493 59.078 47.4784 59.078C47.8075 59.078 48.0741 58.8114 48.0741 58.4823V57.0445L59.0596 46.0567C59.6043 45.5146 59.9043 44.7919 59.9043 44.0263ZM44.7098 40.5548L39.0671 46.1951C37.8821 47.408 37.1651 48.7793 36.8694 50.3717C35.3983 51.4085 33.8635 52.3383 32.1767 53.1896C31.1268 53.7186 29.8732 53.7184 28.8243 53.1896C27.128 52.3344 25.5925 51.4009 24.1321 50.372C23.8395 48.7776 23.1213 47.4061 21.9342 46.1942C21.9158 46.1761 16.3069 40.5748 16.2917 40.5541C15.7212 39.9838 14.9199 39.7225 14.1107 39.863C10.2493 33.7811 8.25684 26.8302 8.25684 19.769V6.82558C8.25684 4.7785 9.92218 3.11315 11.9693 3.11315H49.0315C51.0786 3.11315 52.7439 4.7785 52.7439 6.82558V19.769C52.7439 26.8219 50.7572 33.7716 46.8901 39.8633C46.1047 39.7272 45.2888 39.9755 44.7098 40.5548Z" fill="black"/>
</svg>
