<svg width="68" height="68" viewBox="0 0 68 68" fill="none" xmlns="http://www.w3.org/2000/svg">
<path d="M33.9988 15.1879C31.5832 15.1879 29.625 13.2298 29.625 10.8142V7.16394H38.3728V10.8142C38.3726 13.2295 36.4144 15.1879 33.9988 15.1879Z" fill="#FFB69F"/>
<path d="M39.1426 1.71936L37.2556 2.7043C36.7708 2.95744 36.2318 3.08945 35.6852 3.08945H31.6432C30.2401 3.08945 29.1705 4.34533 29.3939 5.7303L29.6249 7.16361H38.3728C39.7275 5.7202 40.0513 3.59095 39.1869 1.80994L39.1426 1.71936Z" fill="#7C7B7A"/>
<path d="M44.3384 20.5001V22.4286H23.6621V20.5001C23.6621 17.5676 26.0395 15.1876 28.9746 15.1876H39.0259C41.961 15.1876 44.3384 17.5676 44.3384 20.5001Z" fill="#F0C020"/>
<path d="M44.3384 20.5691H23.6621V22.4285H44.3384V20.5691Z" fill="#E8A61E"/>
<path d="M59.1463 66.2806H8.85449C7.38745 66.2806 6.19824 65.0914 6.19824 63.6243V30.2214H61.8023V63.6243C61.8026 65.0911 60.6134 66.2806 59.1463 66.2806Z" fill="#EFEFEF"/>
<path d="M61.8032 25.0847V30.2219H6.19727V25.0847C6.19727 23.6185 7.38727 22.4285 8.85352 22.4285H15.178V23.4139C15.178 24.1471 15.773 24.7421 16.5062 24.7421H19.4413C20.1745 24.7421 20.7695 24.1471 20.7695 23.4139V22.4285H47.231V23.4139C47.231 24.1471 47.826 24.7421 48.5591 24.7421H51.4943C52.2274 24.7421 52.8224 24.1471 52.8224 23.4139V22.4285H59.147C60.6132 22.4285 61.8032 23.6185 61.8032 25.0847Z" fill="#1279E0"/>
<path d="M20.7691 21.443V23.4139C20.7691 24.1471 20.1741 24.7421 19.441 24.7421H16.5059C15.7727 24.7421 15.1777 24.1471 15.1777 23.4139V21.443C15.1777 20.7099 15.7727 20.1149 16.5059 20.1149H19.441C20.1741 20.1149 20.7691 20.7099 20.7691 21.443Z" fill="#FFB69F"/>
<path d="M52.8228 21.443V23.4139C52.8228 24.1471 52.2278 24.7421 51.4947 24.7421H48.5596C47.8264 24.7421 47.2314 24.1471 47.2314 23.4139V21.443C47.2314 20.7099 47.8264 20.1149 48.5596 20.1149H51.4947C52.2278 20.1149 52.8228 20.7099 52.8228 21.443Z" fill="#FFB69F"/>
<path d="M53.1728 37.0161V55.4425C53.1728 56.1756 52.5778 56.7706 51.8446 56.7706H49.4381V58.8053C49.4381 59.5385 48.8457 60.1335 48.11 60.1335H16.1553C15.4221 60.1335 14.8271 59.5385 14.8271 58.8053V40.3789C14.8271 39.6431 15.4221 39.0508 16.1553 39.0508H18.5565V37.0161C18.5565 36.283 19.1515 35.688 19.8846 35.688H51.8446C52.5778 35.688 53.1728 36.283 53.1728 37.0161Z" fill="#13BF6D"/>
<path d="M51.2976 38.5195V56.7706H49.4382V40.3789C49.4382 39.6455 48.8435 39.0508 48.1101 39.0508H18.5566V37.1914H49.9695C50.7028 37.1914 51.2976 37.7859 51.2976 38.5195Z" fill="#149C6D"/>
<path d="M46.0278 46.4691V52.714C45.9279 52.7041 45.8254 52.6994 45.7231 52.6994C43.6706 52.6994 42.006 54.3643 42.006 56.4165C42.006 56.5188 42.0108 56.6213 42.0206 56.7212H22.2475C22.2573 56.6213 22.2621 56.5188 22.2621 56.4165C22.2621 54.364 20.5971 52.6994 18.5449 52.6994C18.4426 52.6994 18.3401 52.7041 18.2402 52.714V46.4691C18.3401 46.479 18.4426 46.4837 18.5449 46.4837C20.5974 46.4837 22.2621 44.8188 22.2621 42.7666C22.2621 42.6643 22.2573 42.5618 22.2475 42.4619H42.0206C42.0108 42.5618 42.006 42.6643 42.006 42.7666C42.006 44.8191 43.6709 46.4837 45.7231 46.4837C45.8254 46.4837 45.9279 46.479 46.0278 46.4691Z" fill="#76FFBB"/>
<path d="M32.134 52.3135C33.6372 52.3135 34.8558 51.0949 34.8558 49.5916C34.8558 48.0884 33.6372 46.8698 32.134 46.8698C30.6307 46.8698 29.4121 48.0884 29.4121 49.5916C29.4121 51.0949 30.6307 52.3135 32.134 52.3135Z" fill="#13BF6D"/>
<path d="M59.1461 64.2881H8.85449C8.48766 64.2881 8.19043 63.9909 8.19043 63.6241C8.19043 63.2572 8.48766 62.96 8.85449 62.96H58.482V32.8774C58.482 32.5106 58.7792 32.2134 59.1461 32.2134C59.5129 32.2134 59.8101 32.5106 59.8101 32.8774V63.6241C59.8101 63.9909 59.5129 64.2881 59.1461 64.2881Z" fill="white"/>
<path d="M59.1458 28.6943H12.951C12.5841 28.6943 12.2869 28.3971 12.2869 28.0303C12.2869 27.6634 12.5841 27.3662 12.951 27.3662H58.4817V25.0845C58.4817 24.7176 58.779 24.4204 59.1458 24.4204C59.5126 24.4204 59.8099 24.7176 59.8099 25.0845V28.0303C59.8099 28.3971 59.5126 28.6943 59.1458 28.6943ZM10.2947 28.6943H8.85449C8.48766 28.6943 8.19043 28.3971 8.19043 28.0303C8.19043 27.6634 8.48766 27.3662 8.85449 27.3662H10.2947C10.6615 27.3662 10.9588 27.6634 10.9588 28.0303C10.9588 28.3971 10.6615 28.6943 10.2947 28.6943Z" fill="#E3EFFB"/>
<path d="M34.0005 13.2041C35.3852 13.2041 36.5114 12.0778 36.5114 10.6931C36.5114 10.3263 36.2142 10.0291 35.8474 10.0291C35.4805 10.0291 35.1833 10.3263 35.1833 10.6931C35.1833 11.3452 34.6526 11.8759 34.0005 11.8759C33.3481 11.8759 32.8174 11.3452 32.8174 10.6931C32.8174 10.3263 32.5201 10.0291 32.1533 10.0291C31.7865 10.0291 31.4893 10.3263 31.4893 10.6931C31.4893 12.0778 32.6158 13.2041 34.0005 13.2041Z" fill="black"/>
<path d="M62.4673 63.6251C62.4673 62.3538 62.4673 26.3534 62.4673 25.0845C62.4673 23.2535 60.9779 21.7642 59.147 21.7642H56.7972V19.2848C56.7972 18.918 56.5 18.6208 56.1332 18.6208C55.7663 18.6208 55.4691 18.918 55.4691 19.2848V21.7642H53.4865V21.4428C53.4865 20.3442 52.5929 19.4506 51.4943 19.4506H48.5591C47.4605 19.4506 46.567 20.3442 46.567 21.4428V21.7642H45.0024C45.0024 20.3912 45.081 19.4774 44.5376 18.1844C44.3992 17.855 43.9984 17.6903 43.6687 17.8311C43.3314 17.9719 43.1723 18.3597 43.3128 18.697V18.6997C43.7455 19.7284 43.674 20.4459 43.674 21.7642H34.6643V19.2848C34.6643 18.918 34.3671 18.6208 34.0002 18.6208C33.6334 18.6208 33.3362 18.918 33.3362 19.2848V21.7642H24.3262V20.5009C24.3315 17.9403 26.4166 15.8551 28.9746 15.8524H39.0259C39.2941 15.8524 39.5651 15.8737 39.828 15.9215C40.1869 15.9853 40.5346 15.7358 40.5984 15.3796C40.6592 15.021 40.4177 14.676 40.0565 14.612C39.7165 14.5535 39.3712 14.5243 39.0259 14.5243H37.3952C38.4014 13.6026 39.037 12.2827 39.037 10.8138V7.41114C40.3622 5.84528 40.7713 3.55825 39.7407 1.43006C39.5776 1.09378 39.168 0.957252 38.8359 1.1307C36.835 2.17488 36.5271 2.42536 35.6856 2.42536H31.6436C29.8315 2.42536 28.4508 4.0486 28.7385 5.83625L28.9611 7.2175V10.8141C28.9611 12.283 29.5967 13.6029 30.6029 14.5246H28.9743C25.6779 14.5246 22.9978 17.2047 22.9978 20.5011V21.7647H21.4333V21.4433C21.4333 20.3447 20.5397 19.4511 19.4411 19.4511H16.5062C15.4075 19.4511 14.514 20.3447 14.514 21.4433V21.7647H12.5287V19.2854C12.5287 18.9185 12.2315 18.6213 11.8646 18.6213C11.4978 18.6213 11.2006 18.9185 11.2006 19.2854V21.7647H8.85352C7.02256 21.7647 5.5332 23.2541 5.5332 25.085C5.5332 25.854 5.5332 30.2424 5.5332 46.3704C5.5332 46.7372 5.8307 47.0344 6.19727 47.0344C6.56383 47.0344 6.86133 46.7372 6.86133 46.3704V30.8844H61.1391V63.6251C61.1365 64.7192 60.2413 65.6144 59.147 65.6173H8.85352C7.75914 65.6144 6.86398 64.7192 6.86133 63.6251V51.6823C6.86133 51.3187 6.56383 51.0183 6.19727 51.0183C5.8307 51.0183 5.5332 51.3187 5.5332 51.6823V63.6251C5.53586 65.4553 7.02336 66.9425 8.85352 66.9425H59.147C60.9771 66.9427 62.4673 65.4553 62.4673 63.6251ZM31.6433 3.75349H35.6854C36.8865 3.75349 37.5514 3.299 38.8062 2.64424C39.223 3.95855 38.9512 5.42347 38.072 6.49978H30.1906L30.0496 5.62481C29.8915 4.64306 30.6502 3.75349 31.6433 3.75349ZM30.2892 10.8138V7.82791H37.7089V10.8138C37.7089 12.8594 36.0445 14.5238 33.9992 14.5238C31.9533 14.5238 30.2892 12.8594 30.2892 10.8138ZM47.8951 21.443C47.8951 21.0768 48.1928 20.779 48.5591 20.779H51.4946C51.8609 20.779 52.1586 21.0768 52.1586 21.443V23.414C52.1586 23.7803 51.8609 24.078 51.4946 24.078H48.5591C48.1928 24.078 47.8951 23.7803 47.8951 23.414V21.443ZM15.8421 21.443C15.8421 21.0768 16.1401 20.779 16.5062 20.779H19.4413C19.8074 20.779 20.1054 21.0768 20.1054 21.443V23.414C20.1054 23.7803 19.8074 24.078 19.4413 24.078H16.5062C16.1401 24.078 15.8421 23.7803 15.8421 23.414V21.443ZM6.86133 29.556V25.0848C6.86133 23.9861 7.75489 23.0926 8.85352 23.0926H11.2006V25.5714C11.2006 25.9382 11.4978 26.2355 11.8646 26.2355C12.2315 26.2355 12.5287 25.9382 12.5287 25.5714V23.0926H14.514V23.414C14.514 24.5126 15.4075 25.4062 16.5062 25.4062H19.4413C20.54 25.4062 21.4335 24.5126 21.4335 23.414V23.0926C22.5228 23.0926 31.9037 23.0926 33.3362 23.0926V25.5714C33.3362 25.9382 33.6334 26.2355 34.0002 26.2355C34.3671 26.2355 34.6643 25.9382 34.6643 25.5714V23.0926C36.0862 23.0926 45.4391 23.0926 46.567 23.0926V23.414C46.567 24.5126 47.4605 25.4062 48.5591 25.4062H51.4946C52.5932 25.4062 53.4867 24.5126 53.4867 23.414V23.0926H55.4694V25.5714C55.4694 25.9382 55.7666 26.2355 56.1334 26.2355C56.5003 26.2355 56.7975 25.9382 56.7975 25.5714V23.0926H59.1472C60.2458 23.0926 61.1394 23.9861 61.1394 25.0848V29.556H6.86133Z" fill="black"/>
<path d="M6.19727 49.6902C6.56402 49.6902 6.86133 49.3929 6.86133 49.0261C6.86133 48.6594 6.56402 48.3621 6.19727 48.3621C5.83051 48.3621 5.5332 48.6594 5.5332 49.0261C5.5332 49.3929 5.83051 49.6902 6.19727 49.6902Z" fill="black"/>
<path d="M41.8195 15.9319C41.585 16.2227 41.6437 16.644 41.9234 16.8645C42.2134 17.0961 42.6326 17.0462 42.8557 16.7606C43.0842 16.4737 43.039 16.057 42.7521 15.8283C42.473 15.6054 42.0403 15.6556 41.8195 15.9319Z" fill="black"/>
<path d="M22.208 48.8604V50.3229C22.208 50.6897 22.5052 50.9869 22.8721 50.9869C23.2389 50.9869 23.5361 50.6897 23.5361 50.3229V48.8604C23.5361 48.4935 23.2389 48.1963 22.8721 48.1963C22.5052 48.1963 22.208 48.4935 22.208 48.8604Z" fill="black"/>
<path d="M42.0605 50.3229V48.8604C42.0605 48.4935 41.7633 48.1963 41.3965 48.1963C41.0297 48.1963 40.7324 48.4935 40.7324 48.8604V50.3229C40.7324 50.6897 41.0297 50.9869 41.3965 50.9869C41.7633 50.9869 42.0605 50.6897 42.0605 50.3229Z" fill="black"/>
<path d="M28.1543 57.3855C28.5211 57.3855 28.8184 57.0882 28.8184 56.7214C28.8184 56.3547 28.5211 56.0574 28.1543 56.0574C27.7875 56.0574 27.4902 56.3547 27.4902 56.7214C27.4902 57.0882 27.7875 57.3855 28.1543 57.3855Z" fill="black"/>
<path d="M18.304 53.3744C20.0234 53.2065 21.7252 54.6587 21.5871 56.6575C21.5473 57.0543 21.8615 57.3853 22.2485 57.3853H25.4971C25.8637 57.3853 26.1612 57.0878 26.1612 56.7213C26.1612 56.3574 25.8663 56.0598 25.4998 56.0572H25.4971H22.9099C22.7405 53.9306 21.0423 52.225 18.9043 52.0489V47.1319C21.0349 46.9619 22.7399 45.255 22.9099 43.1263H41.3547C41.5313 45.267 43.2425 46.9627 45.3632 47.1319V52.0489C43.226 52.2248 41.53 53.9274 41.3547 56.0572H30.8093C30.4428 56.0572 30.1453 56.3547 30.1453 56.7213C30.1453 57.0878 30.4428 57.3853 30.8093 57.3853H42.0187C42.4198 57.3853 42.7181 57.0352 42.6801 56.6575C42.5027 54.8438 44.115 53.1938 45.9633 53.3744C46.3574 53.4081 46.6911 53.1034 46.6911 52.7132V46.4681C46.6911 46.0816 46.3596 45.7727 45.9633 45.807C44.1496 45.9842 42.499 44.3745 42.6801 42.5239C42.7181 42.1501 42.4195 41.7987 42.0187 41.7987H22.2485C21.8634 41.7987 21.5473 42.1281 21.5871 42.5265C21.7151 44.3814 20.2515 45.815 18.5457 45.8203C18.2801 45.8203 17.5762 45.748 17.5762 46.4681V52.7132C17.5762 53.1141 17.9265 53.4124 18.304 53.3744Z" fill="black"/>
<path d="M35.5199 49.5916C35.5199 47.7248 34.001 46.2057 32.134 46.2057C30.2669 46.2057 28.748 47.7248 28.748 49.5916C28.748 51.4584 30.2669 52.9775 32.134 52.9775C34.0008 52.9775 35.5199 51.4587 35.5199 49.5916ZM30.0762 49.5916C30.0762 48.4571 30.9992 47.5338 32.134 47.5338C33.2685 47.5338 34.1918 48.4571 34.1918 49.5916C34.1918 50.7261 33.2687 51.6494 32.134 51.6494C30.9992 51.6494 30.0762 50.7264 30.0762 49.5916Z" fill="black"/>
<path d="M48.11 60.7975C49.2086 60.7975 50.1021 59.904 50.1021 58.8053V57.4347H51.8446C52.9433 57.4347 53.8368 56.5411 53.8368 55.4425V37.0161C53.8368 35.9175 52.9433 35.0239 51.8446 35.0239H19.8846C18.786 35.0239 17.8925 35.9175 17.8925 37.0161V38.3867H16.1553C15.0566 38.3867 14.1631 39.2803 14.1631 40.3789V58.8053C14.1631 59.904 15.0566 60.7975 16.1553 60.7975H48.11ZM19.8846 36.3518H51.8446C52.2109 36.3518 52.5087 36.6496 52.5087 37.0158V55.4423C52.5087 55.8085 52.2109 56.1063 51.8446 56.1063H50.1021V40.3787C50.1021 39.28 49.2086 38.3865 48.11 38.3865H19.2206V37.0158C19.2206 36.6498 19.5184 36.3518 19.8846 36.3518ZM15.4912 58.8053V40.3789C15.4912 40.0126 15.7892 39.7149 16.1553 39.7149C17.2252 39.7149 46.9409 39.7149 48.11 39.7149C48.4763 39.7149 48.774 40.0126 48.774 40.3789C48.774 42.2465 48.774 56.6668 48.774 58.8053C48.774 59.1716 48.4763 59.4694 48.11 59.4694H16.1553C15.789 59.4694 15.4912 59.1716 15.4912 58.8053Z" fill="black"/>
</svg>
