<svg width="71" height="71" viewBox="0 0 71 71" fill="none" xmlns="http://www.w3.org/2000/svg">
<path d="M53.0769 15.5554V46.0405C46.6001 45.838 40.9756 51.1306 40.9756 57.8717C40.9756 61.3984 42.5168 64.5593 44.9605 66.7275H7.8272C7.02096 66.7275 6.35645 66.0711 6.35645 65.2596V8.15615C6.35645 7.40538 6.93304 6.76971 7.67827 6.69649C7.72902 6.69095 7.77672 6.68817 7.8272 6.68817H44.2069L53.0769 15.5554Z" fill="#EFEFEF"/>
<path d="M58.9468 2.68188V47.7502C57.2328 46.7074 55.2415 46.0917 53.0782 46.039V15.5562L44.206 6.6895H7.67676V2.68188C7.67676 1.91614 8.29773 1.29517 9.06348 1.29517H57.5598C58.3258 1.29517 58.9468 1.91614 58.9468 2.68188Z" fill="#EFEFEF"/>
<path d="M55.1331 44.4318V15.3135C55.1331 14.9227 54.9783 14.5514 54.7029 14.2757L45.4898 5.06261C45.2141 4.78693 44.8403 4.63245 44.452 4.63245H7.67871V6.68812H44.2074L53.0774 15.5554V44.2349C46.3887 43.8031 39.1678 49.619 39.1678 57.8716C39.1678 61.2519 40.3967 64.3454 42.4357 66.7275H44.9612C42.5173 64.5592 40.9763 61.3983 40.9763 57.8716C40.9763 51.1305 46.6009 45.838 53.0777 46.0404C55.2418 46.0926 57.2328 46.7077 58.9468 47.7502V45.686C57.7648 45.0886 56.4821 44.6629 55.1331 44.4318Z" fill="#AFAFAF"/>
<path d="M64.6436 57.8716C64.6436 61.9128 62.6159 65.4872 59.5169 67.6189C57.6101 68.9352 55.3012 69.7056 52.8096 69.7056C50.3179 69.7056 48.009 68.9352 46.1023 67.6217C45.7029 67.346 45.3232 67.0478 44.9605 66.7272C42.5165 64.559 40.9756 61.3981 40.9756 57.8714C40.9756 51.1303 46.6001 45.8377 53.0769 46.0402C55.241 46.0923 57.2321 46.7075 58.9461 47.75C62.3627 49.8256 64.6436 53.5828 64.6436 57.8716Z" fill="#1279E0"/>
<path d="M56.3247 53.6086H49.3994L49.4008 51.6045C49.4014 50.9303 49.948 50.3839 50.6222 50.3839H54.1958C54.6293 50.3839 55.0561 50.2791 55.4405 50.0786L56.9332 49.2993C57.6878 50.8069 57.3725 52.4923 56.3247 53.6086Z" fill="#7C7B7A"/>
<path d="M52.9092 59.6203H52.8135C50.9279 59.6203 49.3994 58.0919 49.3994 56.2062V53.6083H56.3233V56.2062C56.3233 58.0919 54.7946 59.6203 52.9092 59.6203Z" fill="#FFB69F"/>
<path d="M59.5167 63.6545V67.6189C57.6099 68.934 55.2997 69.7059 52.8091 69.7059C50.3186 69.7059 48.0086 68.9368 46.1016 67.6216V63.6548C46.1016 61.428 47.9087 59.6205 50.1358 59.6205H55.4824C57.7095 59.6203 59.5167 61.4274 59.5167 63.6545Z" fill="#72C2E9"/>
<path d="M59.0169 65.33C58.752 65.0535 58.7614 64.6145 59.0379 64.3496C60.7916 62.6703 61.7975 60.3045 61.7975 57.8589C61.7975 55.6704 60.9938 53.5593 59.5341 51.9146C59.2801 51.6284 59.3061 51.1899 59.5926 50.9359C59.8788 50.6815 60.3176 50.7079 60.5714 50.9941C62.2562 52.8928 63.1842 55.3307 63.1842 57.8586C63.1842 60.6806 62.0227 63.4113 59.9973 65.3511C59.7213 65.6154 59.2823 65.6071 59.0169 65.33Z" fill="#F8E5AF"/>
<path d="M52.4434 67.5736C52.4301 67.1909 52.7296 66.87 53.1124 66.8567C55.3358 66.7799 57.4395 65.8902 59.0353 64.3512C59.311 64.0855 59.7498 64.093 60.0157 64.3692C60.2814 64.6449 60.2737 65.0839 59.998 65.3496C58.1548 67.1266 55.7263 68.1538 53.1601 68.2426C52.7757 68.2553 52.4565 67.955 52.4434 67.5736ZM50.2158 67.9209C49.9299 67.8474 49.6428 67.76 49.3627 67.6613C49.0013 67.5343 48.8119 67.1382 48.9389 66.7771C49.0662 66.416 49.462 66.2263 49.8231 66.3536C50.0658 66.439 50.3143 66.5145 50.5614 66.5783C50.9322 66.6737 51.1557 67.0517 51.06 67.4225C50.9641 67.795 50.5838 68.0163 50.2158 67.9209Z" fill="#C5E5FE"/>
<path d="M38.0306 64.9908H36.5945C36.2115 64.9908 35.9012 64.6805 35.9012 64.2975C35.9012 63.9144 36.2115 63.6041 36.5945 63.6041H38.0306C38.4136 63.6041 38.724 63.9144 38.724 64.2975C38.724 64.6805 38.4136 64.9908 38.0306 64.9908ZM33.8214 64.9908H8.78223C8.39921 64.9908 8.08887 64.6805 8.08887 64.2975V10.2936C8.08887 9.91063 8.39921 9.60028 8.78223 9.60028C9.16524 9.60028 9.47559 9.91063 9.47559 10.2936V63.6044H33.8211C34.2041 63.6044 34.5144 63.9147 34.5144 64.2977C34.5144 64.6807 34.2044 64.9908 33.8214 64.9908Z" fill="white"/>
<path d="M57.5602 0.601807H9.0636C7.91817 0.601807 6.98352 1.53646 6.98352 2.68188V6.16532C6.2003 6.49287 5.66309 7.26222 5.66309 8.1561V65.2595C5.66309 66.4596 6.64017 67.4209 7.8272 67.4209H44.7092C47.0702 69.4119 49.8911 70.3981 52.809 70.3981C59.7324 70.3981 65.3367 64.7844 65.3367 57.8705C65.3367 53.6463 63.2252 49.7141 59.64 47.3739V2.68188C59.6403 1.53368 58.7054 0.601807 57.5602 0.601807ZM9.0636 1.98853H57.5599C57.9427 1.98853 58.2533 2.29915 58.2533 2.68188V46.5854C56.9079 45.9339 55.3589 45.5021 53.7714 45.379C53.7714 42.3603 53.7714 19.2682 53.7714 15.5562C53.7714 15.364 53.6788 15.1748 53.569 15.0653C47.2067 8.7069 49.1853 10.6846 44.6973 6.19777C44.5805 6.08073 44.3878 5.99476 44.2069 5.99476H8.37024V2.68188C8.37024 2.29915 8.68086 1.98853 9.0636 1.98853ZM44.8992 8.3641L51.4023 14.8628H45.612C45.2209 14.8628 44.8992 14.5411 44.8992 14.15V8.3641ZM46.7957 67.2483V63.6545C46.7957 61.8124 48.2942 60.3139 50.1365 60.3139C52.1068 60.3139 53.453 60.3139 55.4829 60.3139C57.3253 60.3139 58.8238 61.8124 58.8238 63.6545V67.2467C57.0277 68.4015 54.9571 69.0114 52.809 69.0114C50.6632 69.0114 48.5923 68.4035 46.7957 67.2483ZM50.0941 52.9144V51.6053C50.0941 51.3141 50.3324 51.0784 50.6208 51.0784H54.196C54.7396 51.0784 55.2802 50.9452 55.7602 50.6929L56.5618 50.2768C56.792 51.1943 56.5834 52.1692 56.0071 52.9144H50.0941ZM50.093 54.3017H55.6302V56.2062C55.6302 57.6223 54.5266 58.9269 52.814 58.9269C51.3139 58.9269 50.093 57.7063 50.093 56.2062V54.3017ZM63.9502 57.8705C63.9502 61.0736 62.574 64.0966 60.2108 66.1964V63.6545C60.2108 61.2075 58.342 59.1893 55.9566 58.951C56.6134 58.2227 57.0169 57.262 57.0169 56.2062V53.8643C58.1629 52.4781 58.3523 50.585 57.5544 48.99C57.3863 48.6541 56.97 48.5024 56.6117 48.6849L55.1196 49.4642C54.8364 49.614 54.5175 49.6917 54.196 49.6917H50.6208C49.5669 49.6917 48.7099 50.5486 48.7074 51.6026C48.7074 52.5072 48.7063 54.1056 48.7063 56.2062C48.7063 57.2595 49.1082 58.218 49.7621 58.9458C47.3301 59.1377 45.4089 61.174 45.4089 63.6542V66.1964C43.0313 64.0808 41.6684 61.0489 41.6684 57.8702C41.6684 55.951 42.1649 54.0568 43.105 52.3983C43.2936 52.0654 43.1772 51.6411 42.8443 51.4525C42.5226 51.2695 42.0816 51.3943 41.8986 51.7132C40.8419 53.5825 40.282 55.7097 40.282 57.8702C40.282 60.9829 41.4108 63.8298 43.3097 66.0341H7.8272C7.40924 66.0341 7.0498 65.6938 7.0498 65.2595V8.1561C7.0498 7.75617 7.36903 7.39922 7.80418 7.38286H43.5125V14.15C43.5125 15.3066 44.4554 16.2495 45.612 16.2495H52.3833V45.3465C50.063 45.41 47.8116 46.1328 45.8532 47.4482C45.5343 47.6618 45.4511 48.0944 45.6644 48.4106C45.8696 48.7184 46.3164 48.8072 46.627 48.5992C48.4489 47.3761 50.5542 46.7271 52.7175 46.7271C59.016 46.7268 63.9502 51.7168 63.9502 57.8705Z" fill="black"/>
<path d="M12.827 57.3076H22.2567C22.6394 57.3076 22.95 56.9969 22.95 56.6142C22.95 56.2315 22.6394 55.9208 22.2567 55.9208H12.827C12.4443 55.9208 12.1309 56.2315 12.1309 56.6142C12.1309 56.9969 12.4445 57.3076 12.827 57.3076Z" fill="black"/>
<path d="M36.9057 60.325H12.8242C12.4412 60.325 12.1309 60.6356 12.1309 61.0184C12.1309 61.4011 12.4412 61.7117 12.8242 61.7117H36.9057C37.2887 61.7117 37.5991 61.4011 37.5991 61.0184C37.5991 60.6356 37.2887 60.325 36.9057 60.325Z" fill="black"/>
<path d="M20.3538 34.6957L25.9534 38.5286C26.1836 38.6894 26.5023 38.6894 26.7352 38.5286L40.6024 29.0351C40.9214 28.8152 40.9937 28.383 40.7827 28.0699C40.5719 27.7676 40.1226 27.6816 39.8175 27.8897L26.3444 37.1169L20.7449 33.2812C20.5119 33.1231 20.193 33.1231 19.96 33.2812L13.5176 37.694V26.6472C13.5176 26.2644 13.207 25.9538 12.8242 25.9538C12.4412 25.9538 12.1309 26.2644 12.1309 26.6472C12.1309 28.1531 12.1309 40.6239 12.1309 43.4958C12.1309 43.878 12.4382 44.1891 12.8242 44.1891H40.2089C40.5916 44.1891 40.9022 43.8785 40.9022 43.4958C40.9022 43.1158 40.5947 42.8052 40.2147 42.8052C40.2147 42.8024 40.2119 42.8024 40.2089 42.8024H13.5176V39.3747L20.3538 34.6957Z" fill="black"/>
<path d="M40.9754 11.8736H12.8262C12.4432 11.8736 12.1328 12.1839 12.1328 12.567C12.1328 12.95 12.4432 13.2603 12.8262 13.2603H40.9754C41.3585 13.2603 41.6688 12.95 41.6688 12.567C41.6688 12.1839 41.3585 11.8736 40.9754 11.8736Z" fill="black"/>
<path d="M40.975 16.4797H12.8271C12.4444 16.4797 12.1338 16.7904 12.1338 17.1731C12.1338 17.5558 12.4444 17.8665 12.8271 17.8665H40.9748C41.3575 17.8665 41.6681 17.5558 41.6681 17.1731C41.6681 16.7904 41.3578 16.4797 40.975 16.4797Z" fill="black"/>
<path d="M24.6115 21.7798C24.6115 21.3971 24.3009 21.0864 23.9209 21.0864C23.5382 21.0864 23.2275 21.3971 23.2275 21.7798C23.2275 22.1625 23.5382 22.4731 23.9209 22.4731C24.3009 22.4731 24.6115 22.1625 24.6115 21.7798Z" fill="black"/>
<path d="M12.8271 22.4731H21.1475C21.5274 22.4731 21.838 22.1625 21.838 21.7798C21.838 21.3971 21.5274 21.0864 21.1475 21.0864H12.8271C12.4444 21.0864 12.1338 21.3971 12.1338 21.7798C12.1338 22.1625 12.4447 22.4731 12.8271 22.4731Z" fill="black"/>
<path d="M40.9746 21.0864H26.6914C26.3114 21.0864 25.998 21.3971 25.998 21.7798C25.998 22.1625 26.3114 22.4731 26.6914 22.4731H40.9746C41.3573 22.4731 41.668 22.1625 41.668 21.7798C41.668 21.3971 41.3573 21.0864 40.9746 21.0864Z" fill="black"/>
<path d="M43.6258 49.3505C43.3709 49.6275 43.377 50.0619 43.6646 50.3323C43.9489 50.5919 44.3876 50.5713 44.6436 50.2934C44.9043 50.0133 44.8877 49.5751 44.6076 49.3144C44.3388 49.0648 43.8782 49.0814 43.6258 49.3505Z" fill="black"/>
</svg>
