<svg width="66" height="66" viewBox="0 0 66 66" fill="none" xmlns="http://www.w3.org/2000/svg">
<path d="M57.2628 37.7257V64.8837H8.7373V37.7257H13.1021V47.0998C11.6815 49.9409 13.7595 53.1687 16.8249 53.1687C19.9186 53.1687 21.9579 49.9202 20.5477 47.0998V37.7257H29.2772V47.0998C27.8567 49.9409 29.9346 53.1687 33 53.1687C36.0938 53.1687 38.1331 49.9202 36.7229 47.0998V37.7257H45.4524V47.0998C44.0318 49.9409 46.1098 53.1687 49.1752 53.1687C52.2689 53.1687 54.3082 49.9202 52.898 47.0998V37.7257H57.2628Z" fill="#72C2E9"/>
<path d="M16.8256 53.1686C13.7602 53.1686 11.6823 49.9408 13.1028 47.0997C13.7963 45.7462 15.204 44.8207 16.8256 44.8207C18.4473 44.8207 19.8549 45.7462 20.5484 47.0997C21.9587 49.9202 19.9194 53.1686 16.8256 53.1686Z" fill="#FFB69F"/>
<path d="M33.0004 53.1686C29.935 53.1686 27.8571 49.9408 29.2776 47.0997C29.9711 45.7462 31.3788 44.8207 33.0004 44.8207C34.6221 44.8207 36.0297 45.7462 36.7232 47.0997C38.1335 49.9202 36.0942 53.1686 33.0004 53.1686Z" fill="#FFB69F"/>
<path d="M49.1752 53.1686C46.1098 53.1686 44.0319 49.9408 45.4524 47.0997C46.1459 45.7462 47.5536 44.8207 49.1752 44.8207C50.7969 44.8207 52.2045 45.7462 52.898 47.0997C54.3083 49.9202 52.269 53.1686 49.1752 53.1686Z" fill="#FFB69F"/>
<path d="M5.82535 34.2617V4.25386C5.82535 3.29712 5.04959 2.52136 4.09285 2.52136C3.13611 2.52136 2.36035 3.29712 2.36035 4.25386V35.9942C2.36035 36.9509 3.13611 37.7267 4.09285 37.7267H61.4144C62.3711 37.7267 63.1469 36.9509 63.1469 35.9942C63.1469 35.0374 62.3711 34.2617 61.4144 34.2617H5.82535Z" fill="#F0C020"/>
<path d="M54.454 63.7227H15.6104C15.2544 63.7227 14.9659 63.4342 14.9659 63.0782C14.9659 62.7221 15.2544 62.4336 15.6104 62.4336H53.8094V54.7421C53.8094 54.386 54.0979 54.0975 54.454 54.0975C54.81 54.0975 55.0985 54.386 55.0985 54.7421V63.0782C55.0985 63.4342 54.81 63.7227 54.454 63.7227ZM13.0323 63.7227H11.5674C11.2113 63.7227 10.9229 63.4342 10.9229 63.0782C10.9229 62.7221 11.2113 62.4336 11.5674 62.4336H13.0323C13.3883 62.4336 13.6768 62.7221 13.6768 63.0782C13.6768 63.4342 13.3883 63.7227 13.0323 63.7227Z" fill="#C5E5FE"/>
<path d="M54.454 63.7227H15.6104C15.2544 63.7227 14.9659 63.4342 14.9659 63.0782C14.9659 62.7221 15.2544 62.4336 15.6104 62.4336H53.8094V54.7421C53.8094 54.386 54.0979 54.0975 54.454 54.0975C54.81 54.0975 55.0985 54.386 55.0985 54.7421V63.0782C55.0985 63.4342 54.81 63.7227 54.454 63.7227ZM13.0323 63.7227H11.5674C11.2113 63.7227 10.9229 63.4342 10.9229 63.0782C10.9229 62.7221 11.2113 62.4336 11.5674 62.4336H13.0323C13.3883 62.4336 13.6768 62.7221 13.6768 63.0782C13.6768 63.4342 13.3883 63.7227 13.0323 63.7227Z" fill="#C5E5FE"/>
<path d="M15.0439 34.2606C15.0439 34.6164 15.3353 34.9052 15.6911 34.9052C16.0443 34.9052 16.333 34.6164 16.333 34.2606C16.333 33.9048 16.0443 33.6161 15.6911 33.6161C15.3353 33.6161 15.0439 33.9048 15.0439 34.2606Z" fill="black"/>
<path d="M61.4139 33.6161H56.0153V32.3993C56.0153 32.0461 55.7266 31.7573 55.3708 31.7573C55.015 31.7573 54.7263 32.0461 54.7263 32.3993V33.6161H43.612V32.3993C43.612 32.0461 43.3232 31.7573 42.9674 31.7573C42.6116 31.7573 42.3229 32.0461 42.3229 32.3993V33.6161H31.2086V32.3993C31.2086 32.0461 30.9198 31.7573 30.5641 31.7573C30.2109 31.7573 29.9195 32.0461 29.9195 32.3993V33.6161H18.8052V32.3993C18.8052 32.0461 18.5165 31.7573 18.1607 31.7573C17.8049 31.7573 17.5162 32.0461 17.5162 32.3993V34.263C17.5162 34.626 17.8227 34.9421 18.2272 34.9008C18.3329 34.9075 61.3079 34.9049 61.4139 34.9049C62.012 34.9075 62.5019 35.3948 62.5019 35.9929C62.5019 36.5936 62.012 37.0811 61.4139 37.0811H4.09187C3.49375 37.0811 3.00648 36.5936 3.00391 35.9929V4.25388C3.00648 3.65575 3.49375 3.16849 4.09187 3.16565C4.69258 3.16849 5.17984 3.65549 5.17984 4.25388V34.2607C5.17984 34.6103 5.46163 34.9052 5.82438 34.9052H13.1102C13.4659 34.9052 13.7547 34.6165 13.7547 34.2607C13.7547 33.9049 13.4659 33.6161 13.1102 33.6161H6.46891V28.1015L13.8037 20.7668H24.9863L30.2109 24.1931C30.4841 24.3736 30.876 24.3063 31.0745 24.0485L33.6135 20.7668H45.0119C45.3677 20.7668 45.6564 20.478 45.6564 20.1248C45.6564 19.769 45.3677 19.4803 45.0119 19.4803H34.6086L35.3027 18.5834C35.52 18.3023 35.4702 17.8976 35.1866 17.6782C34.9134 17.467 34.4957 17.5212 34.2843 17.7942L32.9795 19.4803H25.3761L18.501 14.9709C18.2535 14.8085 17.9029 14.8448 17.6941 15.0534L13.2674 19.4803H6.46891V4.25388C6.46891 2.94419 5.40414 1.87659 4.09187 1.87659C2.78219 1.87659 1.71484 2.94419 1.71484 4.25388V35.9929C1.71484 37.3054 2.78219 38.3702 4.09187 38.3702H8.09312V64.8836C8.09312 65.2394 8.38188 65.5282 8.73766 65.5282C9.09344 65.5282 9.38219 65.2394 9.38219 64.8836V38.3702H12.4579V46.9587C10.977 50.1754 13.31 53.8132 16.8252 53.8132C20.339 53.8132 22.6745 50.1873 21.1926 46.9587V38.3702H24.2683V64.8836C24.2683 65.2394 24.557 65.5282 24.9128 65.5282C25.2686 65.5282 25.5573 65.2394 25.5573 64.8836V38.3702H28.633V46.959C27.1429 50.1963 29.506 53.8132 33.0004 53.8132C36.5144 53.8132 38.8496 50.187 37.3677 46.9592V38.3702H40.4434V64.8836C40.4434 65.2394 40.7322 65.5282 41.088 65.5282C41.4437 65.5282 41.7325 65.2394 41.7325 64.8836V38.3702H44.8082V46.9592C43.3152 50.1739 45.6688 53.8062 49.1755 53.8129C52.6875 53.8129 55.0276 50.1757 53.5429 46.9548V38.3702H56.6186V64.8836C56.6186 65.2394 56.9073 65.5282 57.2631 65.5282C57.6189 65.5282 57.9077 65.2394 57.9077 64.8836V38.3702H61.4139C62.7236 38.3702 63.7909 37.3054 63.7909 35.9929C63.7909 34.6832 62.7236 33.6161 61.4139 33.6161ZM31.9838 20.7668L30.4197 22.788L27.3378 20.7668H31.9838ZM18.2329 16.3375L23.0246 19.4803H15.0902L18.2329 16.3375ZM11.9809 20.7668L6.46891 26.2788V20.7668H11.9809ZM16.8252 52.5241C14.2574 52.5241 12.463 49.8199 13.6761 47.3934C14.2855 46.2041 15.4921 45.4652 16.8252 45.4652C18.1584 45.4652 19.3649 46.2041 19.9716 47.388C21.165 49.7745 19.4451 52.5241 16.8252 52.5241ZM19.9035 45.2842C19.054 44.5791 17.9746 44.1759 16.8252 44.1759C15.6764 44.1759 14.597 44.5788 13.747 45.285V38.3702H19.9035V45.2842ZM33.0004 52.5241C30.4323 52.5241 28.6379 49.8199 29.8512 47.3934C30.4607 46.2041 31.6672 45.4652 33.0004 45.4652C34.3335 45.4652 35.5401 46.2041 36.1467 47.388C37.3401 49.7748 35.6203 52.5241 33.0004 52.5241ZM36.0787 45.2842C35.2294 44.5791 34.1497 44.1759 33.0004 44.1759C31.8516 44.1759 30.7721 44.5788 29.9221 45.285V38.3702H36.0787V45.2842ZM49.1755 52.5239C46.5848 52.5205 44.8242 49.7965 46.0251 47.396C46.0251 47.396 46.0251 47.3934 46.0277 47.3934C46.6361 46.2049 47.8427 45.465 49.173 45.465H49.1781C50.5084 45.465 51.715 46.2023 52.3234 47.3934C53.5241 49.7939 51.7673 52.5205 49.1755 52.5239ZM52.2538 45.2837C51.4051 44.5791 50.3251 44.1761 49.1755 44.1761C48.0262 44.1761 46.9465 44.5788 46.0973 45.2832V38.3702H52.2538V45.2837Z" fill="black"/>
<path d="M49.8482 12.9989L54.7261 7.95021V10.8307C54.7261 11.1865 55.0148 11.4753 55.3706 11.4753C55.7264 11.4753 56.0151 11.1865 56.0151 10.8307V6.37832C56.0151 6.01481 55.7173 5.73096 55.3706 5.73096H50.9182C50.5624 5.73096 50.2736 6.02229 50.2736 6.37832C50.2736 6.73127 50.5624 7.02002 50.9182 7.02002H53.8345L49.3223 11.6893L43.3591 7.11051C43.0858 6.90143 42.6682 6.95557 42.4593 7.22911L37.4397 13.7157C37.2185 14.0013 37.2747 14.4048 37.5532 14.6206C37.8429 14.8395 38.2467 14.7835 38.4581 14.5046L43.0858 8.52332L48.9923 13.0634C49.2475 13.2568 49.6265 13.2284 49.8482 12.9989Z" fill="black"/>
<path d="M35.8622 15.7547C35.6314 16.0509 35.7114 16.4435 35.9648 16.6511C36.2373 16.8741 36.6606 16.8339 36.8805 16.5436C37.0971 16.2626 37.0455 15.8578 36.7645 15.6387C36.4912 15.4275 36.071 15.4816 35.8622 15.7547Z" fill="black"/>
<path d="M46.9453 20.1248C46.9453 20.478 47.2341 20.7667 47.5898 20.7667C47.9456 20.7667 48.2344 20.478 48.2344 20.1248C48.2344 19.769 47.9456 19.4802 47.5898 19.4802C47.2341 19.4802 46.9453 19.769 46.9453 20.1248Z" fill="black"/>
<path d="M50.168 20.7667H55.5588C55.9146 20.7667 56.2059 20.478 56.2059 20.1248C56.2059 19.769 55.9146 19.4802 55.5588 19.4802H50.168C49.8122 19.4802 49.5234 19.769 49.5234 20.1248C49.5234 20.478 49.8122 20.7667 50.168 20.7667Z" fill="black"/>
</svg>
