<svg width="81" height="81" viewBox="0 0 81 81" fill="none" xmlns="http://www.w3.org/2000/svg">
<g clip-path="url(#clip0_895_646)">
<path d="M66.2366 54.8705V74.4909H57.6968C56.7381 74.4909 55.7921 74.7092 54.9314 75.1269L51.8402 76.6298C50.9764 77.0475 50.0303 77.2658 49.0748 77.2658H31.6788C30.4574 77.2658 29.407 76.4748 29.0304 75.3705H26.4296C24.9583 75.3705 23.5313 74.8484 22.408 73.896C21.307 72.9563 19.8863 72.4184 18.3865 72.4184H14.7637V52.8012H21.2279C22.927 52.8012 24.5533 52.1178 25.743 50.906L27.2744 49.3461C28.4641 48.1343 30.0904 47.454 31.7895 47.454H41.6772C42.6644 47.454 43.5914 47.7862 44.3382 48.3462H49.9512C51.5143 48.3462 52.9824 49.0835 53.9158 50.3364L55.8079 52.8772C56.7413 54.1302 58.2094 54.8705 59.7725 54.8705H66.2366Z" fill="#FFB69F"/>
<path d="M78.9965 50.7983H70.4551V78.5601H78.9965V50.7983Z" fill="#7D7B79"/>
<path d="M10.5453 48.7275H2.00391V76.4893H10.5453V48.7275Z" fill="#1279E0"/>
<path d="M66.2354 53.4087V75.9498C66.2354 76.4741 66.6603 76.899 67.1846 76.899H70.4546V52.4595H67.1846C66.6603 52.4595 66.2354 52.8844 66.2354 53.4087Z" fill="#EFEFEF"/>
<path d="M14.7642 73.8789V51.3378C14.7642 50.8135 14.3393 50.3886 13.815 50.3886H10.5449V74.8281H13.815C14.3393 74.8281 14.7642 74.4032 14.7642 73.8789Z" fill="#EFEFEF"/>
<path d="M76.1469 76.1697H73.835C73.398 76.1697 73.0439 75.8157 73.0439 75.3787C73.0439 74.9418 73.398 74.5877 73.835 74.5877H75.3559V58.3902C75.3559 57.9533 75.71 57.5992 76.1469 57.5992C76.5839 57.5992 76.938 57.9533 76.938 58.3902V75.3787C76.938 75.8157 76.5839 76.1697 76.1469 76.1697ZM76.1469 56.0172C75.71 56.0172 75.3559 55.6631 75.3559 55.2262V53.8732C75.3559 53.4363 75.71 53.0822 76.1469 53.0822C76.5839 53.0822 76.938 53.4363 76.938 53.8732V55.2262C76.938 55.6628 76.5839 56.0172 76.1469 56.0172Z" fill="#EFEFEF"/>
<path d="M7.1655 74.2051H4.85352C4.41656 74.2051 4.0625 73.8511 4.0625 73.4141V56.742C4.0625 56.3051 4.41656 55.951 4.85352 55.951C5.29047 55.951 5.64453 56.3051 5.64453 56.742V72.6231H7.1655C7.60245 72.6231 7.95651 72.9772 7.95651 73.4141C7.95651 73.8511 7.60245 74.2051 7.1655 74.2051ZM4.85352 54.369C4.41656 54.369 4.0625 54.0149 4.0625 53.578V51.9086C4.0625 51.4717 4.41656 51.1176 4.85352 51.1176C5.29047 51.1176 5.64453 51.4717 5.64453 51.9086V53.578C5.64453 54.0146 5.29047 54.369 4.85352 54.369Z" fill="#E3EFFB"/>
<path d="M9.75428 75.6979H2.00391C1.56695 75.6979 1.21289 76.052 1.21289 76.489C1.21289 76.9259 1.56695 77.28 2.00391 77.28H10.5453C10.9822 77.28 11.3363 76.9259 11.3363 76.489V75.6188H13.8153C14.775 75.6188 15.5556 74.838 15.5556 73.8786V73.2091H18.3865C19.6752 73.2091 20.9212 73.6666 21.8964 74.4994C23.1604 75.5711 24.7703 76.1612 26.4295 76.1612H28.5143C29.131 77.3145 30.34 78.0564 31.6787 78.0564H49.0747C50.1423 78.0564 51.2174 77.8093 52.1859 77.3407L55.2766 75.8381C56.0268 75.4742 56.8634 75.2816 57.6965 75.2816H65.4453V75.9492C65.4453 76.9076 66.2268 77.6894 67.1855 77.6894H69.6636V78.5595C69.6636 78.9965 70.0176 79.3505 70.4546 79.3505H78.996C79.4329 79.3505 79.787 78.9965 79.787 78.5595C79.787 78.1226 79.4329 77.7685 78.996 77.7685H71.2456V51.5891H78.996C79.4329 51.5891 79.787 51.235 79.787 50.798C79.787 50.3611 79.4329 50.007 78.996 50.007H70.4546C70.0176 50.007 69.6636 50.3611 69.6636 50.798V51.6682H67.1855C66.2268 51.6682 65.4453 52.4497 65.4453 53.4084V54.0792H59.7721C58.4685 54.0792 57.2219 53.4527 56.4403 52.4022L54.5514 49.8643C53.4724 48.4183 51.7544 47.5546 49.9508 47.5546H44.5909C43.724 46.9689 42.7146 46.6623 41.6768 46.6623H31.7891C30.3305 46.6623 28.9288 47.0989 27.736 47.9279C27.3753 48.1747 27.2867 48.6683 27.5335 49.029C27.7739 49.3739 28.2865 49.4688 28.6346 49.2283C28.6377 49.2283 28.6377 49.2252 28.6377 49.2252C29.568 48.5829 30.6564 48.244 31.7891 48.244H41.6768C42.9605 48.244 44.1005 48.9287 44.7384 49.9064C44.7403 49.9096 44.7422 49.9124 44.7444 49.9153C44.7456 49.9175 44.7472 49.9197 44.7485 49.9216L47.5715 54.1719C48.2081 55.1277 47.9265 56.4098 46.9776 57.0224C46.0328 57.6277 44.7694 57.3657 44.1587 56.4351L42.8298 54.4323C42.6833 54.2114 42.4359 54.0785 42.1707 54.0785H29.4797C26.6058 54.0785 24.9035 57.3046 26.5061 59.6758C24.2485 59.6758 22.7782 61.3831 22.7782 63.267C22.7782 64.8522 23.8106 66.2007 25.2379 66.6756C23.4256 69.0221 25.1012 72.4583 28.0812 72.4583H28.7193C28.2935 73.0715 28.071 73.7948 28.0944 74.5785H26.4295C25.1446 74.5785 23.898 74.1216 22.9215 73.2936C21.6622 72.2184 20.0514 71.6261 18.3865 71.6261H15.5556V53.5913H21.2278C22.0093 53.5913 22.7845 53.4615 23.5249 53.2084C23.9362 53.0692 24.1577 52.6199 24.0185 52.2054C23.8824 51.8033 23.4205 51.5726 23.0123 51.7115C22.4396 51.9077 21.8385 52.0089 21.2278 52.0089H15.5556V51.3366C15.5556 50.3772 14.775 49.5963 13.8153 49.5963H11.3363V48.7262C11.3363 48.2893 10.9822 47.9352 10.5453 47.9352H2.00391C1.56695 47.9352 1.21289 48.2893 1.21289 48.7262C1.21289 49.1632 1.56695 49.5172 2.00391 49.5172H9.75428V75.6979ZM41.9005 72.4586C42.3375 72.4586 42.6915 72.1045 42.6915 71.6676C42.6915 71.2306 42.3375 70.8765 41.9005 70.8765C40.3049 70.8765 29.6243 70.8765 28.0812 70.8765C26.9734 70.8765 26.072 69.9751 26.072 68.8674C26.072 67.7596 26.9734 66.8582 28.0812 66.8582H41.6771C42.1141 66.8582 42.4682 66.5041 42.4682 66.0672C42.4682 65.6302 42.1141 65.2762 41.6771 65.2762C38.906 65.2762 30.0903 65.2762 26.3694 65.2762C25.2617 65.2762 24.3602 64.3747 24.3602 63.2667C24.3602 62.1589 25.2617 61.2575 26.3688 61.2575C32.4719 61.2635 24.9636 61.2575 41.6771 61.2575C42.1141 61.2575 42.4682 60.9034 42.4682 60.4665C42.4682 60.0295 42.1141 59.6755 41.6771 59.6755C41.518 59.6755 29.6167 59.6742 29.4582 59.6777C28.3621 59.666 27.4737 58.7686 27.4737 57.6663C27.4737 56.5601 28.3735 55.6603 29.4797 55.6603H41.7464L42.8383 57.3059C43.9198 58.9547 46.1593 59.4245 47.8331 58.3532C49.5319 57.2575 50.0122 54.9828 48.889 53.2961L46.1261 49.1366H49.9512C51.2579 49.1366 52.5014 49.7599 53.2829 50.8072L55.1719 53.3476C56.2508 54.7968 57.9721 55.6609 59.7724 55.6609H65.4456V58.1383C65.4456 58.575 65.7999 58.9294 66.2366 58.9294C66.6701 58.9294 67.0276 58.575 67.0276 58.1383V53.4081C67.0276 53.3195 67.0972 53.2499 67.1858 53.2499H69.6639V76.1071H67.1858C67.0972 76.1071 67.0276 76.0371 67.0276 75.9489C67.0276 74.0286 67.0276 71.6065 67.0276 64.4665C67.0276 64.0298 66.6701 63.6755 66.2366 63.6755C65.7999 63.6755 65.4456 64.0298 65.4456 64.4665V73.6992H57.6968C56.6257 73.6992 55.55 73.9466 54.5856 74.4149L51.4959 75.9169C50.7422 76.2814 49.905 76.4741 49.0747 76.4741H31.6787C30.551 76.4741 29.6081 75.5353 29.6774 74.3406C29.7401 73.2853 30.6633 72.4586 31.7799 72.4586H41.9005ZM13.8153 51.1793C13.9027 51.1793 13.9736 51.2505 13.9736 51.3375C13.9736 56.0409 13.9736 69.0104 13.9736 73.8783C13.9736 73.9653 13.9027 74.0365 13.8153 74.0365H11.3363V51.1793H13.8153Z" fill="black"/>
<path d="M66.2363 62.0941C66.6732 62.0941 67.0273 61.7399 67.0273 61.303C67.0273 60.8662 66.6732 60.512 66.2363 60.512C65.7995 60.512 65.4453 60.8662 65.4453 61.303C65.4453 61.7399 65.7995 62.0941 66.2363 62.0941Z" fill="black"/>
<path d="M25.328 50.1969C25.0243 50.5101 25.0274 51.01 25.3375 51.3169C25.6476 51.6204 26.1551 51.6163 26.4576 51.3078C26.7613 50.9945 26.7582 50.4946 26.4481 50.1877C26.1443 49.8931 25.6254 49.8963 25.328 50.1969Z" fill="black"/>
</g>
<defs>
<clipPath id="clip0_895_646">
<rect width="81" height="81" fill="white"/>
</clipPath>
</defs>
</svg>
