<svg width="81" height="69" viewBox="0 0 81 69" fill="none" xmlns="http://www.w3.org/2000/svg">
<path d="M76.0858 0.799866H4.00586C2.23677 0.799866 0.802734 2.23391 0.802734 4.00299V49.5066C0.802734 51.2757 2.23677 52.7097 4.00586 52.7097H76.0858C77.8549 52.7097 79.2889 51.2757 79.2889 49.5066V4.00299C79.2889 2.23391 77.8549 0.799866 76.0858 0.799866Z" fill="#1279E0"/>
<path d="M74.1943 47.6157L74.1943 5.89374L5.8957 5.89374L5.8957 47.6157L74.1943 47.6157Z" fill="#EFEFEF"/>
<path d="M47.9632 62.7492H32.127L34.9521 52.7097H45.138L47.9632 62.7492Z" fill="#72C2E9"/>
<path d="M45.9647 55.6479H34.126L34.9524 52.7097H45.1383L45.9647 55.6479Z" fill="#4BA5C8"/>
<path d="M53.8726 24.6932C53.8726 29.413 51.5033 33.5895 47.8831 36.0816C45.655 37.6181 42.9557 38.5201 40.0457 38.5201C37.1356 38.5201 34.4364 37.6213 32.2083 36.0848C28.5913 33.5927 26.2188 29.4226 26.2188 24.6935C26.2188 17.0573 32.4094 10.8666 40.0457 10.8666C47.6819 10.8666 53.8726 17.0569 53.8726 24.6932Z" fill="#F0C020"/>
<path d="M44.1526 19.7114H36.0605L36.0625 17.3699C36.0631 16.5822 36.7018 15.9439 37.4895 15.9439H41.6647C42.1711 15.9439 42.6702 15.8215 43.1189 15.587L44.8631 14.6764C45.7452 16.4375 45.3768 18.4071 44.1526 19.7114Z" fill="#7C7B7A"/>
<path d="M40.1064 26.7359C37.8722 26.7359 36.0615 24.9248 36.0615 22.691V19.7114H44.1517V22.691C44.1513 24.9248 42.3403 26.7359 40.1064 26.7359Z" fill="#FFB69F"/>
<path d="M47.8828 31.4492V36.0812C45.6547 37.6178 42.9555 38.5198 40.0454 38.5198C37.1354 38.5198 34.4361 37.621 32.208 36.0844V31.4492C32.208 28.8473 34.3198 26.7355 36.9217 26.7355H43.1688C45.771 26.7358 47.8828 28.8473 47.8828 31.4492Z" fill="#FC5D3D"/>
<path d="M55.3408 65.9523V68.0344H24.751V65.9523C24.751 64.1842 26.186 62.7492 27.9541 62.7492H52.1377C53.9058 62.7492 55.3408 64.1842 55.3408 65.9523Z" fill="#72C2E9"/>
<path d="M47.3044 33.4006C46.9985 33.0809 47.0097 32.5742 47.329 32.2683C49.38 30.3044 50.5562 27.5379 50.5562 24.6775C50.5562 22.1179 49.6161 19.6489 47.9091 17.7254C47.6157 17.3946 47.6458 16.8885 47.9767 16.5951C48.3076 16.3013 48.8137 16.3318 49.1071 16.6627C51.0744 18.8795 52.1577 21.7262 52.1577 24.6775C52.1577 27.9726 50.8015 31.1606 48.4367 33.4249C48.1173 33.7311 47.6103 33.7199 47.3044 33.4006Z" fill="#F8E5B0"/>
<path d="M39.5786 36.0266C39.5651 35.5845 39.9127 35.2152 40.3547 35.2018C42.972 35.1226 45.4483 34.0813 47.3273 32.2703C47.6463 31.9634 48.153 31.9727 48.4596 32.2908C48.7664 32.6091 48.7571 33.1162 48.4391 33.4231C46.2731 35.5112 43.4195 36.7114 40.4034 36.8027C39.9393 36.8116 39.5914 36.4526 39.5786 36.0266ZM37.0058 36.4225C36.6756 36.3369 36.3444 36.236 36.0212 36.1223C35.6041 35.9756 35.3851 35.5182 35.5321 35.1012C35.6788 34.6841 36.1359 34.465 36.5532 34.6121C36.8335 34.7107 37.1205 34.7982 37.4065 34.8722C37.8348 34.983 38.0923 35.4196 37.9815 35.8478C37.8704 36.2774 37.4322 36.5327 37.0058 36.4225Z" fill="#FFCBC3"/>
<path d="M47.3044 33.4006C46.9985 33.0809 47.0097 32.5742 47.329 32.2683C49.38 30.3044 50.5562 27.5379 50.5562 24.6775C50.5562 22.1179 49.6161 19.6489 47.9091 17.7254C47.6157 17.3946 47.6458 16.8885 47.9767 16.5951C48.3076 16.3013 48.8137 16.3318 49.1071 16.6627C51.0744 18.8795 52.1577 21.7262 52.1577 24.6775C52.1577 27.9726 50.8015 31.1606 48.4367 33.4249C48.1173 33.7311 47.6103 33.7199 47.3044 33.4006Z" fill="#F8E5B0"/>
<path d="M39.5786 36.0266C39.5651 35.5845 39.9127 35.2152 40.3547 35.2018C42.972 35.1226 45.4483 34.0813 47.3273 32.2703C47.6463 31.9634 48.153 31.9727 48.4596 32.2908C48.7664 32.6091 48.7571 33.1162 48.4391 33.4231C46.2731 35.5112 43.4195 36.7114 40.4034 36.8027C39.9393 36.8116 39.5914 36.4526 39.5786 36.0266ZM37.0058 36.4225C36.6756 36.3369 36.3444 36.236 36.0212 36.1223C35.6041 35.9756 35.3851 35.5182 35.5321 35.1012C35.6788 34.6841 36.1359 34.465 36.5532 34.6121C36.8335 34.7107 37.1205 34.7982 37.4065 34.8722C37.8348 34.983 38.0923 35.4196 37.9815 35.8478C37.8704 36.2774 37.4322 36.5327 37.0058 36.4225Z" fill="#FFCBC3"/>
<path d="M40.0457 39.3215C48.0339 39.3215 54.6743 32.8522 54.6743 24.6929C54.6743 16.6031 48.1137 10.0642 40.0457 10.0642C35.0148 10.0642 30.3572 12.6475 27.6848 16.8676C27.4478 17.2392 27.5599 17.7357 27.9314 17.9727C28.2966 18.2034 28.8091 18.0848 29.0365 17.7261C31.4453 13.9304 35.5613 11.6658 40.0457 11.6658C47.2473 11.6658 53.0728 17.4945 53.0728 24.6929C53.0728 28.4437 51.4558 31.9835 48.6839 34.4406V31.4496C48.6839 28.5786 46.4779 26.2156 43.6722 25.9607C44.4641 25.0978 44.9522 23.9517 44.9522 22.6909V20.0089C46.2751 18.4055 46.5307 16.2181 45.5807 14.3183C45.3789 13.9144 44.8878 13.7645 44.4916 13.9659L42.7491 14.8785C42.416 15.0515 42.0412 15.1444 41.6664 15.1444H37.4896C36.2628 15.1444 35.2634 16.1437 35.2634 17.3705V22.6906C35.2634 23.9485 35.7461 25.0923 36.535 25.9546C33.675 26.1548 31.4078 28.5395 31.4078 31.4496V34.4429C28.6355 31.9838 27.0186 28.4437 27.0186 24.6929C27.0186 24.2476 27.041 23.8056 27.0858 23.3764C27.1265 22.9267 26.8039 22.5442 26.3683 22.4987C25.9295 22.4571 25.5355 22.7806 25.4907 23.2162C25.4426 23.7031 25.417 24.1996 25.417 24.6929C25.417 32.7673 31.9703 39.3215 40.0457 39.3215ZM36.8621 22.6906V20.5128H43.3506V22.6906C43.3506 24.4796 41.8955 25.9351 40.1065 25.9351C38.3176 25.9351 36.8621 24.4796 36.8621 22.6906ZM37.4896 16.7427H41.6664C42.2975 16.7427 42.9285 16.589 43.489 16.2975L44.4339 15.8042C44.7238 16.9022 44.4541 18.0531 43.7844 18.9103H36.8618L36.865 17.3705C36.865 17.0246 37.1436 16.7459 37.4896 16.7427ZM36.922 27.5366H43.1694C45.327 27.5366 47.0823 29.2919 47.0823 31.4496V35.653C47.082 35.653 47.082 35.6533 47.0817 35.6533C45.0297 36.9749 42.6027 37.7193 40.0457 37.7193C37.6475 37.7193 35.2195 37.0681 33.009 35.6559V31.4496C33.009 29.2919 34.7644 27.5366 36.922 27.5366Z" fill="black"/>
<path d="M26.711 20.9324C27.1591 21.0823 27.5957 20.8344 27.7296 20.4359C27.7328 20.4359 27.7328 20.4327 27.7328 20.4327C27.8737 20.0163 27.6527 19.5615 27.2363 19.4173C26.8263 19.2764 26.3586 19.507 26.2177 19.9138C26.0736 20.3267 26.2872 20.7844 26.711 20.9324Z" fill="black"/>
<path d="M45.3604 41.6887H29.3447C28.9024 41.6887 28.5439 42.0471 28.5439 42.4894C28.5439 42.9318 28.9024 43.2902 29.3447 43.2902H45.3604C45.8027 43.2902 46.1611 42.9318 46.1611 42.4894C46.1611 42.0471 45.8027 41.6887 45.3604 41.6887Z" fill="black"/>
<path d="M50.7461 41.6887H48.5635C48.1211 41.6887 47.7627 42.0471 47.7627 42.4894C47.7627 42.9318 48.1211 43.2902 48.5635 43.2902H50.7461C51.1884 43.2902 51.5469 42.9318 51.5469 42.4894C51.5469 42.0471 51.1884 41.6887 50.7461 41.6887Z" fill="black"/>
<path d="M5.89648 5.09296C5.45413 5.09296 5.0957 5.45139 5.0957 5.89374V47.6157C5.0957 48.0581 5.45413 48.4165 5.89648 48.4165H74.1951C74.6375 48.4165 74.9959 48.0581 74.9959 47.6157V5.89374C74.9959 5.45139 74.6375 5.09296 74.1951 5.09296H5.89648ZM73.394 46.8149H6.69727V6.69452H73.3943V46.8149H73.394Z" fill="black"/>
<path d="M76.0871 0H4.00711C1.79695 0 0.00320313 1.79695 0 4.00391V49.5075C0.00320313 51.7145 1.79695 53.5114 4.00711 53.5114H33.8952L31.521 61.9484H27.9537C25.7467 61.9484 23.9498 63.7454 23.9498 65.9523V68.0344C23.9498 68.4719 24.3056 68.8352 24.7506 68.8352H28.5943C29.0363 68.8352 29.3951 68.4764 29.3951 68.0344C29.3951 67.5923 29.0363 67.2336 28.5943 67.2336H25.5513V65.9523C25.5545 64.6294 26.6308 63.5532 27.9537 63.55C33.0092 63.55 46.4104 63.55 52.1373 63.55C53.4602 63.5532 54.5364 64.6294 54.5396 65.9523V67.2336H35.0006C34.5585 67.2336 34.1998 67.5923 34.1998 68.0344C34.1998 68.4764 34.5585 68.8352 35.0006 68.8352H55.3404C55.7895 68.8352 56.1412 68.4726 56.1412 68.0344V65.9523C56.1412 63.7454 54.3442 61.9484 52.1373 61.9484H48.5703L46.1961 53.5114H76.0874C78.2943 53.5114 80.0881 51.7145 80.0881 49.5075V36.458C80.0881 36.0159 79.7293 35.6572 79.2905 35.6572C78.8485 35.6572 78.4897 36.0159 78.4897 36.458V49.5075C78.4865 50.8304 77.4071 51.9066 76.0874 51.9098C71.5806 51.9098 4.93057 51.9098 4.00743 51.9098C2.68454 51.9066 1.60509 50.8304 1.60188 49.5075V4.00391C1.60509 2.68102 2.68454 1.60156 4.00743 1.60156H76.0874C77.4071 1.60156 78.4865 2.68102 78.4897 4.00391V30.0517C78.4897 30.4938 78.8485 30.8525 79.2905 30.8525C79.7293 30.8525 80.0913 30.4938 80.0913 30.0517C80.0913 30.0517 80.0913 30.0485 80.0881 30.0485V4.00391C80.0878 1.79695 78.294 0 76.0871 0ZM46.9063 61.9484H33.1847L35.5589 53.5114H44.5321L46.9063 61.9484Z" fill="black"/>
<path d="M79.29 32.454C78.848 32.454 78.4893 32.8128 78.4893 33.2548C78.4893 33.6969 78.848 34.0556 79.29 34.0556C79.7289 34.0556 80.0876 33.6969 80.0876 33.2548C80.0876 32.8128 79.7289 32.454 79.29 32.454Z" fill="black"/>
<path d="M31.7979 68.8351C32.2401 68.8351 32.5986 68.4766 32.5986 68.0344C32.5986 67.5921 32.2401 67.2336 31.7979 67.2336C31.3556 67.2336 30.9971 67.5921 30.9971 68.0344C30.9971 68.4766 31.3556 68.8351 31.7979 68.8351Z" fill="black"/>
</svg>
