<svg width="69" height="60" viewBox="0 0 69 60" fill="none" xmlns="http://www.w3.org/2000/svg">
<path d="M44.7503 7.63171H28.2344C26.6698 7.63171 25.4014 8.70415 25.4014 10.0271V18.6001C25.4014 19.9195 26.623 21.0506 28.1832 21.0741C29.7722 21.0978 31.0675 20.017 31.0675 18.6792V13.7036C31.0675 13.0883 31.6574 12.5895 32.3851 12.5895H37.7676C38.4953 12.5895 39.0853 13.0883 39.0853 13.7036V18.5994C39.0853 19.9183 40.3055 21.0497 41.8651 21.0738C43.4541 21.0985 44.7511 20.0168 44.7511 18.679V7.63171H44.7503Z" fill="#FFB69F"/>
<path d="M44.7516 0.590942H34.2168V7.63098H44.7516V0.590942Z" fill="#72C2E9"/>
<path d="M35.0762 22.2433C37.2902 22.2433 39.085 20.7257 39.085 18.8538C39.085 16.9818 37.2902 15.4642 35.0762 15.4642C32.8622 15.4642 31.0674 16.9818 31.0674 18.8538C31.0674 20.7257 32.8622 22.2433 35.0762 22.2433Z" fill="#FFB69F"/>
<path d="M34.9997 22.2427C32.1742 22.2427 29.8838 24.1793 29.8838 26.5684V34.9615H40.1156V26.5684C40.1156 24.1793 37.8252 22.2427 34.9997 22.2427Z" fill="#1279E0"/>
<path d="M51.3018 35.2874C53.5158 35.2874 55.3105 33.7698 55.3105 31.8979C55.3105 30.0259 53.5158 28.5084 51.3018 28.5084C49.0878 28.5084 47.293 30.0259 47.293 31.8979C47.293 33.7698 49.0878 35.2874 51.3018 35.2874Z" fill="#FFB69F"/>
<path d="M51.2253 35.2872C48.3998 35.2872 46.1094 37.2238 46.1094 39.6128V48.0055H56.3412V39.6128C56.3412 37.2238 54.0508 35.2872 51.2253 35.2872Z" fill="#1279E0"/>
<path d="M17.2851 35.2874C19.4991 35.2874 21.2938 33.7698 21.2938 31.8979C21.2938 30.0259 19.4991 28.5084 17.2851 28.5084C15.0711 28.5084 13.2764 30.0259 13.2764 31.8979C13.2764 33.7698 15.0711 35.2874 17.2851 35.2874Z" fill="#FFB69F"/>
<path d="M17.2086 35.2872C14.3832 35.2872 12.0928 37.2238 12.0928 39.6128V48.0055H22.3245V39.6128C22.3245 37.2238 20.0341 35.2872 17.2086 35.2872Z" fill="#1279E0"/>
<path d="M37.7441 33.5475C37.3574 33.5475 37.0441 33.2826 37.0441 32.9556V32.1561C37.0441 31.8292 37.3574 31.5643 37.7441 31.5643C38.1308 31.5643 38.4441 31.8292 38.4441 32.1561V32.9556C38.4441 33.2826 38.1308 33.5475 37.7441 33.5475ZM37.7441 30.3805C37.3574 30.3805 37.0441 30.1156 37.0441 29.7887V26.5682C37.0441 25.6153 36.1271 24.8397 34.9998 24.8397C34.6131 24.8397 34.2998 24.5748 34.2998 24.2479C34.2998 23.9209 34.6131 23.656 34.9998 23.656C36.8988 23.656 38.4441 24.9626 38.4441 26.5682V29.7887C38.4441 30.1156 38.1308 30.3805 37.7441 30.3805Z" fill="#FFCBC3"/>
<path d="M19.9528 46.5922C19.5661 46.5922 19.2528 46.3272 19.2528 46.0003V45.2008C19.2528 44.8738 19.5661 44.6089 19.9528 44.6089C20.3395 44.6089 20.6528 44.8738 20.6528 45.2008V46.0003C20.6528 46.3272 20.3395 46.5922 19.9528 46.5922ZM19.9528 43.4252C19.5661 43.4252 19.2528 43.1602 19.2528 42.8333V39.6126C19.2528 38.6597 18.3358 37.8843 17.2088 37.8843C16.8221 37.8843 16.5088 37.6194 16.5088 37.2924C16.5088 36.9655 16.8221 36.7006 17.2088 36.7006C19.1078 36.7006 20.6528 38.0069 20.6528 39.6126V42.8333C20.6528 43.1602 20.3395 43.4252 19.9528 43.4252Z" fill="#FFCBC3"/>
<path d="M53.9694 46.5922C53.5827 46.5922 53.2694 46.3272 53.2694 46.0003V45.2011C53.2694 44.8741 53.5827 44.6092 53.9694 44.6092C54.3561 44.6092 54.6694 44.8741 54.6694 45.2011V46.0003C54.6694 46.3272 54.3561 46.5922 53.9694 46.5922ZM53.9694 43.4255C53.5827 43.4255 53.2694 43.1606 53.2694 42.8336V39.613C53.2694 38.6601 52.3527 37.8848 51.2254 37.8848C50.8387 37.8848 50.5254 37.6198 50.5254 37.2929C50.5254 36.966 50.8387 36.701 51.2254 36.701C53.1244 36.701 54.6694 38.0074 54.6694 39.613V42.8336C54.6694 43.1606 54.3561 43.4255 53.9694 43.4255Z" fill="#FFCBC3"/>
<path d="M44.7508 13.8031C45.1374 13.8031 45.4508 13.5384 45.4508 13.2118C45.4508 12.8852 45.1374 12.6205 44.7508 12.6205C44.3642 12.6205 44.0508 12.8852 44.0508 13.2118C44.0508 13.5384 44.3642 13.8031 44.7508 13.8031Z" fill="black"/>
<path d="M34.2166 0C33.8299 0 33.5166 0.264913 33.5166 0.591852V7.04067H28.2358C26.287 7.04067 24.7021 8.38038 24.7021 10.0257V18.6005C24.7021 20.2901 26.2889 21.6663 28.2358 21.6663C29.2883 21.6663 30.2327 21.2721 30.8804 20.6514C31.2455 21.2581 31.7856 21.7775 32.4492 22.1561C30.5189 22.957 29.1838 24.6312 29.1838 26.5685V34.9611C29.1838 35.2881 29.4972 35.553 29.8838 35.553H31.0545V44.957H30.2274C29.8407 44.957 29.5274 45.222 29.5274 45.5489C29.5274 45.8758 29.8407 46.1407 30.2274 46.1407H31.7545C32.1412 46.1407 32.4545 45.8758 32.4545 45.5489V35.553H37.5446V45.5489C37.5446 45.8758 37.858 46.1407 38.2446 46.1407H39.7718C40.1584 46.1407 40.4718 45.8758 40.4718 45.5489C40.4718 45.222 40.1584 44.957 39.7718 44.957H38.9446V35.553H40.1156C40.5023 35.553 40.8156 35.2881 40.8156 34.9611V26.5685C40.8156 24.6596 39.5198 23.0053 37.6354 22.1909C38.3356 21.8057 38.9054 21.2674 39.2823 20.6324C39.9893 21.3235 40.9542 21.6663 41.9194 21.6663C43.8654 21.6639 45.4502 20.3239 45.4502 18.6786V15.5799C45.4502 15.2532 45.1366 14.988 44.7502 14.988C44.3666 14.988 44.0502 15.2532 44.0502 15.5799V18.6788C44.0502 19.6708 43.0926 20.4804 41.9194 20.4828C40.717 20.4828 39.783 19.5912 39.7858 18.5983V13.7025C39.7858 12.7627 38.8786 11.998 37.767 11.998H32.3854C31.2738 11.998 30.3666 12.7627 30.3666 13.7025V18.6788C30.3638 19.6334 29.4658 20.4828 28.1938 20.4828C27.0598 20.471 26.0994 19.6095 26.1022 18.6007V10.026C26.105 9.03426 27.0598 8.22461 28.2358 8.22461H44.0502V10.8451C44.0502 11.1718 44.3666 11.4369 44.7502 11.4369C45.1366 11.4369 45.4502 11.1718 45.4502 10.8451C45.4502 10.4431 45.4513 6.98835 45.4513 0.591852C45.4513 0.264913 45.138 0 44.7513 0C44.3646 0 44.0513 0.264913 44.0513 0.591852V7.03996H34.9166V0.591852C34.9166 0.264913 34.6032 0 34.2166 0ZM39.4153 26.5687V34.3695H30.5836V26.5687C30.5836 24.51 32.5646 22.8351 34.9994 22.8351C37.4343 22.8351 39.4153 24.5098 39.4153 26.5687ZM35.0759 21.6514C33.2514 21.6514 31.7671 20.3964 31.7671 18.8538C31.7671 17.3112 33.2514 16.0565 35.0759 16.0565C36.9004 16.0565 38.3844 17.3114 38.3844 18.8538C38.3846 20.3964 36.9004 21.6514 35.0759 21.6514ZM32.3854 13.1817H37.767C38.1086 13.1817 38.3858 13.4161 38.3858 13.7025V16.0259C36.5487 14.4885 33.6056 14.4873 31.7666 16.0257V13.7025C31.7666 13.4161 32.0438 13.1817 32.3854 13.1817Z" fill="black"/>
<path d="M56.0101 31.8981C56.0101 29.7031 53.8978 27.9171 51.3014 27.9171C48.7052 27.9171 46.5929 29.7031 46.5929 31.8981C46.5929 33.2717 47.42 34.485 48.6753 35.2006C46.7444 36.001 45.4082 37.675 45.4082 39.6137V48.006C45.4082 48.3301 45.7246 48.5979 46.111 48.5979H47.28V58.0014H46.4526C46.0659 58.0014 45.7526 58.2663 45.7526 58.5932C45.7526 58.9201 46.0659 59.1851 46.4526 59.1851H47.9797C48.3664 59.1851 48.6797 58.9201 48.6797 58.5932V48.5981H53.7701V58.5932C53.7701 58.9201 54.0835 59.1851 54.4701 59.1851H55.9973C56.3839 59.1851 56.6973 58.9201 56.6973 58.5932C56.6973 58.2663 56.3839 58.0014 55.9973 58.0014H55.1701V48.5981H56.3422C56.7323 48.5981 57.0394 48.3252 57.0394 48.0063V43.437C57.0394 43.1103 56.7258 42.8451 56.3422 42.8451C55.9558 42.8451 55.6422 43.1103 55.6422 43.437L55.6394 47.4144C52.5527 47.4144 49.9336 47.4144 46.8082 47.4144V39.6139C46.8141 37.5588 48.7934 35.8827 51.2294 35.8782C53.2986 35.8782 55.113 37.121 55.5442 38.8327C55.6226 39.1449 56.0034 39.3558 56.3758 39.2872C56.751 39.2209 56.9946 38.906 56.9134 38.5864C56.5696 37.2103 55.5064 35.9409 53.8611 35.2349C55.1525 34.5245 56.0101 33.2953 56.0101 31.8981ZM51.3014 34.6956C49.4769 34.6956 47.9929 33.4407 47.9929 31.8983C47.9929 30.356 49.4772 29.101 51.3014 29.101C53.1261 29.101 54.6101 30.356 54.6101 31.8983C54.6101 33.4407 53.1259 34.6956 51.3014 34.6956Z" fill="black"/>
<path d="M55.6396 41.0695C55.6396 41.3962 55.9561 41.6614 56.3425 41.6614C56.7261 41.6614 57.0397 41.3962 57.0397 41.0695C57.0397 40.7428 56.7261 40.4777 56.3425 40.4777C55.9561 40.4777 55.6396 40.7431 55.6396 41.0695Z" fill="black"/>
<path d="M13.8269 30.08C13.4769 29.9592 13.0597 30.1108 12.9169 30.407C12.7733 30.7086 12.9449 31.0573 13.3033 31.1796C13.66 31.2995 14.0668 31.1597 14.2161 30.8524C14.2161 30.85 14.2161 30.85 14.2161 30.8476C14.3591 30.552 14.1906 30.2039 13.8269 30.08Z" fill="black"/>
<path d="M11.3926 39.6126V48.0054C11.3926 48.3323 11.7059 48.5972 12.0926 48.5972H13.2633V58.0013H12.4361C12.0495 58.0013 11.7361 58.2663 11.7361 58.5932C11.7361 58.9201 12.0495 59.1851 12.4361 59.1851H13.9633C14.35 59.1851 14.6633 58.9201 14.6633 58.5932V48.5972H19.7537V58.5932C19.7537 58.9201 20.067 59.1851 20.4537 59.1851H21.9808C22.3675 59.1851 22.6809 58.9201 22.6809 58.5932C22.6809 58.2663 22.3675 58.0013 21.9808 58.0013H21.1537V48.5972H22.3244C22.7111 48.5972 23.0244 48.3323 23.0244 48.0054V39.6126C23.0244 37.7033 21.728 36.0487 19.843 35.2343C21.1347 34.5241 21.992 33.2952 21.992 31.8981C21.992 29.7033 19.8808 27.9161 17.2824 27.9161C16.5124 27.9161 15.748 28.0771 15.0732 28.3825C14.738 28.5317 14.5958 28.8882 14.7848 29.1827C14.9676 29.4775 15.4025 29.5811 15.7312 29.4266C16.21 29.2111 16.7336 29.0998 17.2852 29.0998C19.1052 29.1022 20.5892 30.357 20.5948 31.8981C20.5892 33.437 19.1052 34.6917 17.2824 34.6941C15.846 34.6941 14.5832 33.9199 14.138 32.7646C14.0204 32.4592 13.6172 32.2843 13.256 32.3837C12.8892 32.4855 12.6876 32.8193 12.8052 33.1292C13.1403 33.9992 13.8048 34.7161 14.6577 35.2005C12.7276 36.0014 11.3926 37.6756 11.3926 39.6126ZM17.2085 35.879C19.6434 35.879 21.6244 37.5539 21.6244 39.6126V47.4135H12.7926V39.6126C12.7926 37.5539 14.7736 35.879 17.2085 35.879Z" fill="black"/>
<path d="M35.0761 48.9222C34.6897 48.9222 34.3761 49.1874 34.3761 49.5117V54.8246L32.4049 53.1577C32.1389 52.9327 31.6797 52.9351 31.4137 53.1577C31.1421 53.3894 31.1421 53.7637 31.4137 53.9957L34.5805 56.671C34.8414 56.8964 35.2841 56.9136 35.5717 56.671L38.7385 53.9931C39.0104 53.7635 39.0104 53.3894 38.7385 53.1577C38.4728 52.9351 38.0133 52.9327 37.7503 53.1553L37.7473 53.1577L35.7761 54.8243V49.5117C35.7761 49.1876 35.4627 48.9222 35.0761 48.9222Z" fill="black"/>
<path d="M22.9102 25.4274C23.1297 25.6944 23.5651 25.7626 23.8843 25.5753C24.2018 25.3886 24.2802 25.0197 24.0593 24.7515L17.3111 16.5469C17.1803 16.3878 16.9656 16.2931 16.7365 16.2931H13.3152C12.9286 16.2931 12.6152 16.558 12.6152 16.8849C12.6152 17.2119 12.9286 17.4768 13.3152 17.4768H16.3706L22.9102 25.4274Z" fill="black"/>
<path d="M0 16.8846C0 17.2116 0.313318 17.4766 0.699996 17.4766H9.81563C10.2023 17.4766 10.5156 17.2116 10.5156 16.8846C10.5156 16.5577 10.2023 16.2927 9.81563 16.2927H0.699996C0.313318 16.2927 0 16.5577 0 16.8846Z" fill="black"/>
<path d="M0.699996 20.2448H9.81563C10.2023 20.2448 10.5156 19.9799 10.5156 19.653C10.5156 19.326 10.2023 19.0612 9.81563 19.0612H0.699996C0.313318 19.0612 0 19.326 0 19.653C0 19.9799 0.313318 20.2448 0.699996 20.2448Z" fill="black"/>
<path d="M0.699996 23.0129H9.81563C10.2023 23.0129 10.5156 22.748 10.5156 22.4211C10.5156 22.0941 10.2023 21.8292 9.81563 21.8292H0.699996C0.313318 21.8292 0 22.0941 0 22.4211C0 22.748 0.313318 23.0129 0.699996 23.0129Z" fill="black"/>
<path d="M55.1181 16.2927H51.6967C51.4677 16.2927 51.2529 16.3874 51.1219 16.5465L44.3733 24.7515C44.1527 25.0199 44.2311 25.3888 44.5483 25.5753C44.865 25.7614 45.3013 25.6963 45.5227 25.4274L52.0621 17.4762H55.1175C55.5042 17.4762 55.8175 17.2113 55.8175 16.8844C55.8175 16.5574 55.5047 16.2927 55.1181 16.2927Z" fill="black"/>
<path d="M67.7337 16.2927H58.618C58.2313 16.2927 57.918 16.5577 57.918 16.8846C57.918 17.2116 58.2313 17.4766 58.618 17.4766H67.7337C68.1204 17.4766 68.4337 17.2116 68.4337 16.8846C68.4337 16.5577 68.1204 16.2927 67.7337 16.2927Z" fill="black"/>
<path d="M67.7337 19.0612H58.618C58.2313 19.0612 57.918 19.326 57.918 19.653C57.918 19.9799 58.2313 20.2448 58.618 20.2448H67.7337C68.1204 20.2448 68.4337 19.9799 68.4337 19.653C68.4337 19.326 68.1204 19.0612 67.7337 19.0612Z" fill="black"/>
<path d="M68.4337 22.4211C68.4337 22.0941 68.1204 21.8292 67.7337 21.8292H58.618C58.2313 21.8292 57.918 22.0941 57.918 22.4211C57.918 22.748 58.2313 23.0129 58.618 23.0129H67.7337C68.1204 23.0129 68.4337 22.748 68.4337 22.4211Z" fill="black"/>
</svg>
