<svg width="67" height="67" viewBox="0 0 67 67" fill="none" xmlns="http://www.w3.org/2000/svg">
<path d="M43.9923 10.7175V37.7093H32.2873C31.5707 37.7093 30.9891 38.2909 30.9891 39.0076V40.9965H28.6419C27.9252 40.9965 27.3436 41.5755 27.3436 42.2947V55.5264H1.64355V1.8349H35.1123L43.9897 10.7149L43.9923 10.7175Z" fill="#EFEFEF"/>
<path d="M43.9916 35.8918V37.7094H32.2867C31.57 37.7094 30.9884 38.291 30.9884 39.0076V40.9965H28.6412C27.9245 40.9965 27.3429 41.5756 27.3429 42.2948V55.5265H25.5254V41.7755C25.5254 40.3422 26.6886 39.179 28.1219 39.179H29.1709V38.4883C29.1709 37.0551 30.3341 35.8918 31.7674 35.8918H43.9916Z" fill="#AFAFAF"/>
<path d="M52.629 28.7328C51.6728 28.4168 50.685 28.1405 50.1304 25.752C49.6197 27.952 48.8016 28.3464 47.6318 28.7328C49.5395 29.3632 49.8272 30.4067 50.1304 31.7138C50.6531 29.4608 51.5177 29.0999 52.629 28.7328Z" fill="#F0C020"/>
<path d="M49.505 31.8587C49.2279 30.6645 49.0451 29.8757 47.4306 29.3424C46.8441 29.1487 46.8454 28.3163 47.4306 28.1228C48.4025 27.8016 49.0446 27.5895 49.505 25.6063C49.6579 24.9473 50.6028 24.9455 50.756 25.6063C51.2267 27.6344 51.9301 27.8261 52.8303 28.1226C53.4168 28.3163 53.4155 29.1487 52.8303 29.3421C51.8932 29.6516 51.2158 29.8755 50.756 31.8584C50.6022 32.5208 49.6587 32.521 49.505 31.8587ZM49.1378 28.7473C49.6 29.0646 49.9157 29.427 50.1432 29.8103C50.4187 29.3234 50.7378 28.9882 51.0932 28.7385C50.7526 28.4946 50.4226 28.1493 50.1328 27.6274C49.8464 28.1428 49.5117 28.4908 49.1378 28.7473Z" fill="black"/>
<path d="M23.2882 61.1021C22.3319 60.7861 21.3442 60.5099 20.7896 58.1213C20.2789 60.3213 19.4607 60.7158 18.291 61.1021C20.1987 61.7325 20.4864 62.7761 20.7896 64.0829C21.3123 61.8302 22.1769 61.4693 23.2882 61.1021Z" fill="#F0C020"/>
<path d="M20.1642 64.2283C19.8871 63.0342 19.7043 62.2454 18.0898 61.7121C17.5033 61.5184 17.5046 60.686 18.0898 60.4925C19.0617 60.1713 19.7038 59.9592 20.1642 57.976C20.3171 57.317 21.2619 57.3152 21.4151 57.976C21.8859 60.0041 22.5893 60.1957 23.4895 60.4923C24.076 60.686 24.0747 61.5184 23.4895 61.7118C22.5524 62.0213 21.875 62.2451 21.4151 64.2281C21.2614 64.8905 20.3179 64.8904 20.1642 64.2283ZM19.797 61.117C20.2592 61.4343 20.5749 61.7967 20.8024 62.18C21.0779 61.6931 21.397 61.3579 21.7524 61.1081C21.4115 60.8643 21.0818 60.519 20.792 59.9971C20.5056 60.5123 20.1709 60.8604 19.797 61.117Z" fill="black"/>
<path d="M61.1925 32.4834C60.2362 32.1674 59.2485 31.8912 58.6939 29.5024C58.1832 31.7024 57.365 32.0968 56.1953 32.4834C58.103 33.1138 58.3906 34.1574 58.6939 35.4642C59.2166 33.2115 60.0812 32.8506 61.1925 32.4834Z" fill="#F0C020"/>
<path d="M58.0684 35.6093C57.7914 34.4152 57.6086 33.6264 55.9941 33.0931C55.4076 32.8994 55.4089 32.0669 55.9941 31.8735C56.966 31.5523 57.6081 31.3402 58.0684 29.357C58.2214 28.698 59.1662 28.6962 59.3194 29.357C59.7902 31.3851 60.4936 31.5767 61.3938 31.8732C61.9803 32.0669 61.979 32.8994 61.3938 33.0928C60.4567 33.4023 59.7793 33.6261 59.3194 35.6091C59.1657 36.2714 58.2222 36.2717 58.0684 35.6093ZM57.7013 32.498C58.1635 32.8152 58.4792 33.1777 58.7067 33.561C58.9822 33.0741 59.3013 32.7389 59.6567 32.4891C59.3158 32.2453 58.986 31.9 58.6963 31.3781C58.4099 31.8935 58.0752 32.2414 57.7013 32.498Z" fill="black"/>
<path d="M23.1734 53.6105H4.2917C3.93339 53.6105 3.64258 53.3197 3.64258 52.9614C3.64258 52.6031 3.93339 52.3123 4.2917 52.3123H23.1734C23.5317 52.3123 23.8225 52.6031 23.8225 52.9614C23.8225 53.3197 23.5317 53.6105 23.1734 53.6105Z" fill="white"/>
<path d="M41.3278 34.6561C40.9695 34.6561 40.6787 34.3653 40.6787 34.007V13.7414C40.6787 13.3831 40.9695 13.0923 41.3278 13.0923C41.6836 13.0923 41.977 13.3831 41.977 13.7414V34.007C41.977 34.3653 41.6836 34.6561 41.3278 34.6561Z" fill="white"/>
<path d="M1.64326 7.87309C2.00158 7.87309 2.29239 7.58254 2.29239 7.22396C2.29239 6.8685 2.00158 6.5777 1.64326 6.5777C1.28754 6.5777 0.994141 6.8685 0.994141 7.22396C0.994141 7.58254 1.28754 7.87309 1.64326 7.87309Z" fill="black"/>
<path d="M6.47139 11.1467H16.3718C16.7304 11.1467 17.0209 10.8561 17.0209 10.4976C17.0209 10.139 16.7304 9.84845 16.3718 9.84845H6.47139C6.11281 9.84845 5.82227 10.139 5.82227 10.4976C5.82227 10.8561 6.11281 11.1467 6.47139 11.1467Z" fill="black"/>
<path d="M11.1804 22.0193H18.1096C18.4682 22.0193 18.7588 21.7288 18.7588 21.3702C18.7588 21.0116 18.4682 20.7211 18.1096 20.7211H11.1804C10.8218 20.7211 10.5312 21.0116 10.5312 21.3702C10.5312 21.7288 10.8218 22.0193 11.1804 22.0193Z" fill="black"/>
<path d="M11.1804 26.0828H18.1096C18.4682 26.0828 18.7588 25.7922 18.7588 25.4337C18.7588 25.0751 18.4682 24.7845 18.1096 24.7845H11.1804C10.8218 24.7845 10.5312 25.0751 10.5312 25.4337C10.5312 25.7922 10.8218 26.0828 11.1804 26.0828Z" fill="black"/>
<path d="M11.1804 30.1468H18.1096C18.4682 30.1468 18.7588 29.8563 18.7588 29.4977C18.7588 29.1391 18.4682 28.8486 18.1096 28.8486H11.1804C10.8218 28.8486 10.5312 29.1391 10.5312 29.4977C10.5312 29.8563 10.8218 30.1468 11.1804 30.1468Z" fill="black"/>
<path d="M11.1804 34.2104H18.1096C18.4682 34.2104 18.7588 33.9198 18.7588 33.5612C18.7588 33.2027 18.4682 32.9121 18.1096 32.9121H11.1804C10.8218 32.9121 10.5312 33.2027 10.5312 33.5612C10.5312 33.9198 10.8218 34.2104 11.1804 34.2104Z" fill="black"/>
<path d="M27.5261 22.0193H34.4553C34.8139 22.0193 35.1044 21.7288 35.1044 21.3702C35.1044 21.0116 34.8139 20.7211 34.4553 20.7211H27.5261C27.1675 20.7211 26.877 21.0116 26.877 21.3702C26.877 21.7288 27.1675 22.0193 27.5261 22.0193Z" fill="black"/>
<path d="M27.5261 26.0828H34.4553C34.8139 26.0828 35.1044 25.7922 35.1044 25.4337C35.1044 25.0751 34.8139 24.7845 34.4553 24.7845H27.5261C27.1675 24.7845 26.877 25.0751 26.877 25.4337C26.877 25.7922 27.1675 26.0828 27.5261 26.0828Z" fill="black"/>
<path d="M27.5261 30.1468H34.4553C34.8139 30.1468 35.1044 29.8563 35.1044 29.4977C35.1044 29.1391 34.8139 28.8486 34.4553 28.8486H27.5261C27.1675 28.8486 26.877 29.1391 26.877 29.4977C26.877 29.8563 27.1675 30.1468 27.5261 30.1468Z" fill="black"/>
<path d="M27.5261 34.2104H34.4553C34.8139 34.2104 35.1044 33.9198 35.1044 33.5612C35.1044 33.2027 34.8139 32.9121 34.4553 32.9121H27.5261C27.1675 32.9121 26.877 33.2027 26.877 33.5612C26.877 33.9198 27.1675 34.2104 27.5261 34.2104Z" fill="black"/>
<path d="M6.47139 48.1903H16.3718C16.7304 48.1903 17.0209 47.8998 17.0209 47.5412C17.0209 47.1826 16.7304 46.8921 16.3718 46.8921H6.47139C6.11281 46.8921 5.82227 47.1826 5.82227 47.5412C5.82227 47.8998 6.11281 48.1903 6.47139 48.1903Z" fill="black"/>
<path d="M6.47139 50.9922H16.3718C16.7304 50.9922 17.0209 50.7017 17.0209 50.3431C17.0209 49.9845 16.7304 49.694 16.3718 49.694H6.47139C6.11281 49.694 5.82227 49.9845 5.82227 50.3431C5.82227 50.7017 6.11281 50.9922 6.47139 50.9922Z" fill="black"/>
<path d="M34.5576 50.5856V52.0153C34.5576 52.3739 34.8482 52.6644 35.2067 52.6644C35.5653 52.6644 35.8559 52.3739 35.8559 52.0153V50.5856C35.8559 50.2271 35.5653 49.9365 35.2067 49.9365C34.8482 49.9365 34.5576 50.2273 34.5576 50.5856Z" fill="black"/>
<path d="M53.9633 52.0153V50.5856C53.9633 50.2271 53.6727 49.9365 53.3142 49.9365C52.9556 49.9365 52.665 50.2271 52.665 50.5856V52.0153C52.665 52.3739 52.9556 52.6644 53.3142 52.6644C53.6727 52.6644 53.9633 52.3739 53.9633 52.0153Z" fill="black"/>
<path d="M40.3698 58.9178C40.7283 58.9178 41.019 58.6271 41.019 58.2686C41.019 57.9101 40.7283 57.6195 40.3698 57.6195C40.0113 57.6195 39.7207 57.9101 39.7207 58.2686C39.7207 58.6271 40.0113 58.9178 40.3698 58.9178Z" fill="black"/>
<path d="M47.5707 51.3005C47.5707 49.4757 46.086 47.9907 44.2609 47.9907C42.4358 47.9907 40.9512 49.4757 40.9512 51.3005C40.9512 53.1253 42.4358 54.6102 44.2609 54.6102C46.086 54.6102 47.5707 53.1255 47.5707 51.3005ZM42.2494 51.3005C42.2494 50.1915 43.1517 49.289 44.2609 49.289C45.3701 49.289 46.2724 50.1915 46.2724 51.3005C46.2724 52.4094 45.3701 53.312 44.2609 53.312C43.1517 53.312 42.2494 52.4097 42.2494 51.3005Z" fill="black"/>
<path d="M61.8247 60.3069V58.9671H63.528C64.6019 58.9671 65.4754 58.0936 65.4754 57.0197V39.0079C65.4754 37.934 64.6019 37.0605 63.528 37.0605H44.6412V10.7188C44.6412 10.5714 44.5848 10.4078 44.4708 10.2829C44.401 10.2058 35.6454 1.45066 35.5716 1.37692C35.4628 1.26787 35.2777 1.18738 35.112 1.18738H1.64326C1.28079 1.18738 0.994141 1.48156 0.994141 1.8365V4.63033C0.994141 4.98604 1.28754 5.27659 1.64326 5.27659C2.00158 5.27659 2.29239 4.98604 2.29239 4.63033V2.48303H34.4603V9.3845C34.4603 10.475 35.3509 11.3656 36.4414 11.3656H43.3429V37.0605H39.8125V15.8726C39.8125 15.514 39.5219 15.2235 39.1633 15.2235H22.8184H22.8179H6.4717C6.11312 15.2235 5.82258 15.514 5.82258 15.8726V43.9269C5.82258 44.2855 6.11312 44.576 6.4717 44.576C8.62367 44.576 24.1421 44.576 26.6942 44.576V54.8776H2.29239V9.82331C2.29239 9.46499 2.00158 9.17133 1.64326 9.17133C1.28754 9.17133 0.994141 9.46499 0.994141 9.82331V55.5267C0.994141 55.8905 1.29326 56.1759 1.64326 56.1759H26.6942V60.3069C26.6942 61.3808 27.5677 62.2542 28.6416 62.2542H59.8774C60.9513 62.2542 61.8247 61.3808 61.8247 60.3069ZM36.4414 10.0674C36.0649 10.0674 35.7586 9.76099 35.7586 9.3845V3.40218L42.4238 10.0674H36.4414ZM64.1772 39.0079V57.0197C64.1772 57.3778 63.8858 57.6688 63.528 57.6688H61.8247V42.295C61.8247 41.2211 60.9513 40.3477 59.8774 40.3477H31.6379V39.0079C31.6379 38.6498 31.9293 38.3587 32.287 38.3587H63.528C63.8858 38.3587 64.1772 38.6498 64.1772 39.0079ZM22.1685 43.2778H7.12082V16.5217H22.1685V43.2778ZM23.4673 43.2778V16.5217H38.514V37.0605H32.287C31.2131 37.0605 30.3397 37.934 30.3397 39.0079V40.3477H28.6416C27.5677 40.3477 26.6942 41.2211 26.6942 42.295V43.2778H23.4673ZM27.9925 60.3069C27.9925 57.794 27.9925 44.7926 27.9925 42.295C27.9925 41.937 28.2838 41.6459 28.6416 41.6459C29.6874 41.6459 58.7344 41.6459 59.8774 41.6459C60.2352 41.6459 60.5265 41.937 60.5265 42.295C60.5265 44.1206 60.5265 58.2164 60.5265 60.3069C60.5265 60.6649 60.2352 60.956 59.8774 60.956H28.6416C28.2838 60.956 27.9925 60.6649 27.9925 60.3069Z" fill="black"/>
<path d="M10.5957 38.8764C10.5957 44.5146 13.1334 49.6645 17.32 53.5947C18.5329 52.8435 20.015 51.9865 21.702 51.1432C26.0935 48.9448 31.8504 46.8248 37.7407 46.8248C43.6311 46.8248 49.3879 48.9448 53.7795 51.1432C55.4665 51.9865 56.9486 52.8435 58.1614 53.5947C62.348 49.6645 64.8857 44.5146 64.8857 38.8764C64.8857 26.5369 52.7334 16.5352 37.7407 16.5352C22.7481 16.5352 10.5957 26.5369 10.5957 38.8764Z" fill="#1279E0"/>
<path d="M15.8454 38.8764C15.8454 43.6145 18.0686 47.9271 21.7024 51.1433C26.0939 48.9449 31.8508 46.8249 37.7411 46.8249C43.6314 46.8249 49.3882 48.9449 53.7798 51.1433C57.4136 47.9271 59.6367 43.6145 59.6367 38.8764C59.6367 28.9237 49.8338 20.8556 37.7411 20.8556C25.6483 20.8556 15.8454 28.9237 15.8454 38.8764Z" fill="#EFEFEF"/>
<path d="M37.7406 65.1054C31.6074 65.1054 26.6355 61.0133 26.6355 55.9655C26.6355 50.9177 31.6074 46.8257 37.7406 46.8257C43.8738 46.8257 48.8457 50.9177 48.8457 55.9655C48.8457 61.0133 43.8738 65.1054 37.7406 65.1054Z" fill="#FC5D3D"/>
<path d="M37.7406 59.3114C39.9852 59.3114 41.8057 57.8131 41.8057 55.9657C41.8057 54.0042 39.7681 52.5259 37.6024 52.622C37.5993 54.1726 35.7102 55.2126 33.99 54.6714C32.872 56.8688 34.8331 59.3114 37.7406 59.3114Z" fill="#4C4945"/>
<path d="M32.2698 52.62C32.2698 53.5575 32.9846 54.3576 33.9902 54.6714C35.7146 55.214 37.5994 54.1684 37.6025 52.622V52.62C37.6025 51.4081 36.4087 50.4255 34.9362 50.4255C33.4636 50.4255 32.2698 51.4081 32.2698 52.62Z" fill="#FFCBC2"/>
<path d="M37.741 40.8561C36.4125 40.8561 35.3356 39.9698 35.3356 38.8764C35.3356 37.783 36.4125 36.8966 37.741 36.8966C39.0695 36.8966 40.1465 37.783 40.1465 38.8764C40.1465 39.9698 39.0695 40.8561 37.741 40.8561Z" fill="#4C4945"/>
<path d="M18.0618 51.5773C18.3253 51.4153 18.3794 51.108 18.1826 50.8911C17.7463 50.4102 17.3322 49.9083 16.9516 49.3996C16.7791 49.1692 16.4122 49.0972 16.1322 49.2392C15.8522 49.3812 15.7647 49.683 15.9373 49.9136C16.3361 50.4473 16.7705 50.9736 17.2283 51.478C17.4249 51.6945 17.7975 51.7393 18.0618 51.5773ZM15.5567 48.3802C15.852 48.261 15.974 47.9672 15.8291 47.724C14.1978 44.9883 13.3357 41.9287 13.3357 38.8764C13.3357 27.8009 24.2835 18.7905 37.7405 18.7905C43.0456 18.7905 48.0931 20.1733 52.3383 22.7894C52.6014 22.952 52.975 22.9079 53.172 22.6908C53.3693 22.4743 53.3157 22.1668 53.0522 22.0046C48.5994 19.2604 43.3051 17.8099 37.7405 17.8099C23.6268 17.8099 12.1443 27.2602 12.1443 38.8764C12.1443 42.0778 13.0486 45.2868 14.7597 48.1561C14.9041 48.3981 15.2598 48.5001 15.5567 48.3802Z" fill="#C5E5FE"/>
<path d="M22.715 48.5099C22.9807 48.3505 23.0389 48.0436 22.8451 47.8249C22.7727 47.7431 22.7012 47.661 22.6307 47.5782C22.4415 47.3566 22.0702 47.303 21.801 47.4584C21.5317 47.6139 21.4664 47.9196 21.6554 48.1412C21.73 48.2289 21.806 48.3162 21.883 48.4028C22.0767 48.6217 22.4498 48.6694 22.715 48.5099ZM21.1786 46.6216C21.4695 46.4951 21.5808 46.1985 21.4269 45.9591C20.0358 43.792 19.3005 41.343 19.3005 38.8765C19.3005 30.5077 27.5729 23.6993 37.7411 23.6993C42.0604 23.6993 46.2637 24.9589 49.5763 27.2462C49.8276 27.4205 50.2039 27.3934 50.4152 27.1856C50.6268 26.9781 50.5939 26.6688 50.3416 26.495C46.815 24.0599 42.3401 22.7187 37.7411 22.7187C26.9159 22.7187 18.1091 29.967 18.1091 38.8765C18.1091 41.502 18.892 44.1095 20.3737 46.4172C20.5276 46.6569 20.8881 46.7482 21.1786 46.6216Z" fill="white"/>
<path d="M38.0406 62.6462C43.9773 62.6462 47.8782 57.5777 45.417 53.1732C45.2793 52.9271 44.9262 52.8196 44.6269 52.9326C44.3281 53.0457 44.197 53.3369 44.3345 53.5829C46.434 57.3382 43.1081 61.6655 38.0406 61.6655C36.1908 61.6655 34.4516 61.0726 33.1434 59.9958C32.9106 59.8042 32.5337 59.8042 32.3011 59.9958C32.0685 60.1874 32.0683 60.4976 32.3011 60.689C33.8342 61.9512 35.8724 62.6462 38.0406 62.6462ZM43.9609 52.115C44.202 51.9306 44.2159 51.6204 43.9921 51.4221C43.923 51.3609 43.8525 51.3007 43.7805 51.2415C43.5477 51.0499 43.1708 51.0499 42.9382 51.2415C42.7056 51.4331 42.7054 51.7433 42.9382 51.9347C42.9999 51.9855 43.0602 52.0369 43.1191 52.0893C43.3435 52.2879 43.7202 52.2989 43.9609 52.115Z" fill="#FFCBC2"/>
<path d="M25.0692 61.7726C25.3599 61.8962 25.4828 62.1833 25.3313 62.4335C25.1757 62.6838 24.8092 62.7652 24.5309 62.6473C24.2378 62.5257 24.1208 62.2296 24.2686 61.9883C24.4139 61.753 24.7832 61.6528 25.0692 61.7726Z" fill="black"/>
<path d="M37.1455 25.4146V24.0073C37.1455 23.7365 37.4122 23.517 37.7412 23.517C38.0703 23.517 38.3369 23.7365 38.3369 24.0073V25.4146C38.3369 25.6854 38.0703 25.9049 37.7412 25.9049C37.4122 25.9049 37.1455 25.6854 37.1455 25.4146Z" fill="black"/>
<path d="M21.9795 38.8766C21.9795 39.1475 21.7129 39.3669 21.3838 39.3669H19.6739C19.3448 39.3669 19.0782 39.1475 19.0782 38.8766C19.0782 38.6058 19.3448 38.3864 19.6739 38.3864H21.3838C21.7129 38.3864 21.9795 38.6058 21.9795 38.8766Z" fill="black"/>
<path d="M55.8066 38.3864C56.1357 38.3864 56.4023 38.6058 56.4023 38.8766C56.4023 39.1475 56.1357 39.3669 55.8066 39.3669H54.0967C53.7677 39.3669 53.501 39.1475 53.501 38.8766C53.501 38.6058 53.7677 38.3864 54.0967 38.3864H55.8066Z" fill="black"/>
<path d="M28.0248 31.0227C28.2571 30.8311 28.6346 30.8311 28.8671 31.0227L35.9839 36.8783C36.4785 36.5827 37.0845 36.4064 37.7412 36.4064C38.309 36.4064 38.8385 36.5392 39.2917 36.7657L43.9301 32.9464C44.1629 32.7548 44.5401 32.755 44.7726 32.9462C45.0054 33.1378 45.0054 33.4483 44.7729 33.6397L40.1693 37.4305C40.5284 37.8377 40.7426 38.3364 40.7426 38.8769C40.7426 40.2387 39.3963 41.3469 37.7412 41.3469C36.0861 41.3469 34.7398 40.2389 34.7398 38.8769C34.7398 38.4095 34.9011 37.9736 35.1763 37.6006L28.0248 31.7164C27.792 31.5248 27.792 31.2143 28.0248 31.0227ZM37.741 40.3662C38.7389 40.3662 39.5509 39.698 39.5509 38.8767C39.5509 38.0554 38.7391 37.387 37.741 37.387C36.7428 37.387 35.931 38.0552 35.931 38.8767C35.931 39.6978 36.743 40.3662 37.741 40.3662Z" fill="black"/>
<path d="M42.4014 55.9657C42.4014 58.0808 40.3107 59.8017 37.7406 59.8017C34.6346 59.8017 32.4174 57.3487 33.2557 54.9181C32.2918 54.4382 31.6739 53.5661 31.6739 52.62C31.6739 51.1396 33.1375 49.9354 34.936 49.9354C36.5354 49.9354 37.8664 50.8881 38.1428 52.1417C40.4251 52.289 42.4014 53.8912 42.4014 55.9657ZM37.7406 58.8211C39.6535 58.8211 41.21 57.5403 41.21 55.9657C41.21 54.4421 39.7729 53.2692 38.1423 53.123C37.8226 54.5437 36.1269 55.5184 34.3756 55.265C33.8404 57.0079 35.4052 58.8211 37.7406 58.8211ZM34.936 50.9158C33.7942 50.9158 32.8654 51.6802 32.8654 52.6198C32.8654 53.3231 33.4022 53.9634 34.2026 54.2132C35.5484 54.6363 37.0041 53.8185 37.0067 52.6198C37.0067 51.6804 36.0776 50.9158 34.936 50.9158Z" fill="black"/>
<path d="M10 38.8764C10 26.2385 22.4436 16.0449 37.7407 16.0449C53.0687 16.0449 65.4814 26.2646 65.4814 38.8764C65.4814 40.3335 65.3146 41.7907 64.9811 43.2105C64.9215 43.4713 64.607 43.6498 64.2853 43.5988C63.9669 43.5512 63.7513 43.2948 63.8111 43.0281C63.8111 43.0281 64.29 41.2076 64.29 38.8764C64.29 26.797 52.4151 17.0255 37.7407 17.0255C23.0643 17.0255 11.1914 26.799 11.1914 38.8764C11.1914 44.0124 13.4005 49.0037 17.4108 52.9279C18.3349 52.3665 19.5773 51.6587 20.7885 51.0337C17.2147 47.6637 15.2496 43.3711 15.2496 38.8764C15.2496 35.7525 16.1922 32.5994 18.1971 29.7101C18.3544 29.4826 18.7333 29.3963 19.0097 29.5259C19.2944 29.6595 19.3952 29.9593 19.2313 30.1966C17.4061 32.8265 16.441 35.829 16.441 38.8766C16.441 43.1887 18.3508 47.3042 21.8207 50.5153C26.6161 48.1732 32.144 46.3385 37.7407 46.3346C43.3399 46.3385 48.8673 48.1739 53.6613 50.5151C57.1314 47.3038 59.0409 43.1886 59.0409 38.8764C59.0409 29.189 49.5156 21.3459 37.7407 21.3459C31.736 21.3459 25.9794 23.4482 21.9475 27.1134C21.7354 27.3055 21.3398 27.3232 21.1066 27.1488C20.8611 26.9663 20.8442 26.6564 21.0634 26.4546C25.1828 22.7108 31.1377 20.3653 37.7407 20.3653C50.1519 20.3653 60.2323 28.6423 60.2323 38.8764C60.2323 43.3713 58.2691 47.664 54.6933 51.0343C55.8306 51.6218 57.0046 52.2806 58.0711 52.9281C59.975 51.065 61.4786 48.9723 62.5339 46.7092C62.6483 46.464 63.0036 46.3307 63.3036 46.427C63.6109 46.5231 63.7634 46.8072 63.6464 47.0602C62.5477 49.4136 60.9891 51.5804 59.0183 53.517C60.7489 54.6178 61.8319 55.4399 62.0476 55.6049L62.0526 55.6108C62.2954 55.8024 62.3059 56.1181 62.0526 56.3226C55.755 61.0974 46.057 65.6614 37.6693 65.5939C34.2509 65.5843 30.5678 64.8791 26.7178 63.4982C26.4164 63.3886 26.2775 63.1007 26.4105 62.853C26.5368 62.612 26.9013 62.4941 27.1944 62.6C28.4049 63.034 29.596 63.3974 30.7653 63.692C24.4713 59.8335 24.4647 52.1101 30.7546 48.2447C24.9662 49.7085 18.8622 52.9099 14.7251 55.9653C17.3632 57.8717 20.2738 59.5581 23.0007 60.8505C23.2847 60.9839 23.3848 61.2808 23.2199 61.5192C23.0626 61.7448 22.6837 61.8311 22.4073 61.6997C18.4547 59.8256 14.9751 57.5325 13.4287 56.3203C13.1854 56.1279 13.1763 55.8116 13.4287 55.6084C13.4792 55.5705 14.6029 54.6996 16.4639 53.5174C12.2713 49.3977 10 44.2615 10 38.8764ZM60.7589 55.9655C56.1785 52.6751 50.4471 49.6915 44.726 48.2445C51.0142 52.1084 51.009 59.826 44.7252 63.6865C50.5279 62.22 56.1127 59.2681 60.7589 55.9655ZM27.2313 55.9655C27.2313 60.7413 31.9567 64.6145 37.7362 64.6145C43.5427 64.6145 48.2499 60.7299 48.2499 55.9655C48.2499 51.1962 43.5355 47.3161 37.7407 47.3161C31.946 47.3161 27.2313 51.196 27.2313 55.9655Z" fill="black"/>
<path d="M63.2723 44.8892C63.3605 44.6363 63.6989 44.4794 64.0086 44.5539C64.3232 44.6284 64.509 44.8991 64.4185 45.1599L64.4161 45.1618C64.3222 45.4266 63.9805 45.5711 63.6798 45.4952C63.3595 45.4213 63.1801 45.1444 63.2723 44.8892Z" fill="black"/>
<path d="M19.6551 28.704C19.3906 28.5452 19.3311 28.2373 19.5214 28.0176C19.7073 27.8078 20.0981 27.7568 20.3554 27.9098C20.6175 28.0655 20.6826 28.371 20.4865 28.5942C20.2918 28.8158 19.9165 28.859 19.6551 28.704Z" fill="black"/>
</svg>
