<svg width="53" height="63" viewBox="0 0 53 63" fill="none" xmlns="http://www.w3.org/2000/svg">
<path d="M31.1085 0.620605V13.3545C27.7719 11.7861 24.0501 11.9775 21.1074 13.352V0.620605H31.1085Z" fill="#EFEFEF"/>
<path d="M26.1492 29.3059C28.4758 29.3059 30.3619 27.7112 30.3619 25.744C30.3619 23.7768 28.4758 22.1821 26.1492 22.1821C23.8226 22.1821 21.9365 23.7768 21.9365 25.744C21.9365 27.7112 23.8226 29.3059 26.1492 29.3059Z" fill="#FFB69F"/>
<path d="M26.1076 29.3025C23.1411 29.3025 20.7363 31.3358 20.7363 33.8441V42.656H31.4789V33.8441C31.4789 31.3358 29.0741 29.3025 26.1076 29.3025Z" fill="#72C2E9"/>
<path d="M28.9892 41.1714C28.5832 41.1714 28.2543 40.8932 28.2543 40.55V39.7106C28.2543 39.3673 28.5832 39.0892 28.9892 39.0892C29.3952 39.0892 29.7241 39.3673 29.7241 39.7106V40.55C29.7241 40.8932 29.3952 41.1714 28.9892 41.1714ZM28.9892 37.8466C28.5832 37.8466 28.2543 37.5684 28.2543 37.2252V33.844C28.2543 32.8435 27.2915 32.0292 26.108 32.0292C25.702 32.0292 25.373 31.7511 25.373 31.4078C25.373 31.0645 25.702 30.7864 26.108 30.7864C28.102 30.7864 29.7241 32.1582 29.7241 33.844V37.2252C29.7241 37.5682 29.3952 37.8466 28.9892 37.8466Z" fill="#C5E5FE"/>
<path d="M46.1903 37.3374C48.5148 37.3374 50.3992 35.7442 50.3992 33.7789C50.3992 31.8136 48.5148 30.2205 46.1903 30.2205C43.8658 30.2205 41.9814 31.8136 41.9814 33.7789C41.9814 35.7442 43.8658 37.3374 46.1903 37.3374Z" fill="#FFB69F"/>
<path d="M46.1096 37.3374C43.143 37.3374 40.7383 39.3706 40.7383 41.8788V50.6906H51.4808V41.8788C51.4808 39.3706 49.0761 37.3374 46.1096 37.3374Z" fill="#1279E0"/>
<path d="M6.1864 37.3374C8.51089 37.3374 10.3953 35.7442 10.3953 33.7789C10.3953 31.8136 8.51089 30.2205 6.1864 30.2205C3.86191 30.2205 1.97754 31.8136 1.97754 33.7789C1.97754 35.7442 3.86191 37.3374 6.1864 37.3374Z" fill="#FFB69F"/>
<path d="M6.10657 37.3374C3.14007 37.3374 0.735352 39.3706 0.735352 41.8788V50.6906H11.4778V41.8788C11.4778 39.3706 9.07307 37.3374 6.10657 37.3374Z" fill="#1279E0"/>
<path d="M8.98699 49.207C8.58101 49.207 8.25205 48.9289 8.25205 48.5856V47.7462C8.25205 47.403 8.58101 47.1248 8.98699 47.1248C9.39297 47.1248 9.72192 47.403 9.72192 47.7462V48.5856C9.72192 48.9289 9.39297 49.207 8.98699 49.207ZM8.98699 45.882C8.58101 45.882 8.25205 45.6039 8.25205 45.2606V41.8792C8.25205 40.8787 7.28928 40.0647 6.10603 40.0647C5.70005 40.0647 5.37109 39.7866 5.37109 39.4433C5.37109 39.1 5.70005 38.8219 6.10603 38.8219C8.09977 38.8219 9.72192 40.1935 9.72192 41.8792V45.2606C9.72192 45.6039 9.39297 45.882 8.98699 45.882Z" fill="#FFCBC3"/>
<path d="M48.9909 49.207C48.5849 49.207 48.256 48.9289 48.256 48.5856V47.7465C48.256 47.4032 48.5849 47.125 48.9909 47.125C49.3969 47.125 49.7258 47.4032 49.7258 47.7465V48.5856C49.7258 48.9289 49.3969 49.207 48.9909 49.207ZM48.9909 45.8822C48.5849 45.8822 48.256 45.6041 48.256 45.2608V41.8793C48.256 40.8788 47.2932 40.0647 46.1099 40.0647C45.704 40.0647 45.375 39.7866 45.375 39.4433C45.375 39.1 45.704 38.8219 46.1099 38.8219C48.1037 38.8219 49.7258 40.1935 49.7258 41.8793V45.2608C49.7258 45.6041 49.3969 45.8822 48.9909 45.8822Z" fill="#FFCBC3"/>
<path d="M32.7811 27.7245C31.8257 28.4055 30.3617 27.8289 30.3617 26.7725V20.9836C30.3617 20.2901 29.6944 19.7259 28.8742 19.7259H23.4209C22.6007 19.7259 21.9363 20.2876 21.9363 20.9811V26.8321C21.9363 27.8761 20.4958 28.4627 19.5404 27.799C17.2238 26.1909 15.7451 23.7525 15.7451 21.0209C15.7451 17.5957 17.9911 14.8119 21.1073 13.3529C24.05 11.9784 27.7717 11.787 31.1084 13.3554C34.1246 14.7697 36.2324 17.4218 36.45 20.474C36.6587 23.3822 35.1888 26.0094 32.7811 27.7245Z" fill="#AFAFAF"/>
<path d="M31.1089 4.96143H21.1074V9.30078H31.1089V4.96143Z" fill="#AFAFAF"/>
<path d="M28.9892 41.1714C28.5832 41.1714 28.2543 40.8932 28.2543 40.55V39.7106C28.2543 39.3673 28.5832 39.0892 28.9892 39.0892C29.3952 39.0892 29.7241 39.3673 29.7241 39.7106V40.55C29.7241 40.8932 29.3952 41.1714 28.9892 41.1714ZM28.9892 37.8466C28.5832 37.8466 28.2543 37.5684 28.2543 37.2252V33.844C28.2543 32.8435 27.2915 32.0292 26.108 32.0292C25.702 32.0292 25.373 31.7511 25.373 31.4078C25.373 31.0645 25.702 30.7864 26.108 30.7864C28.102 30.7864 29.7241 32.1582 29.7241 33.844V37.2252C29.7241 37.5682 29.3952 37.8466 28.9892 37.8466Z" fill="#C5E5FE"/>
<path d="M8.98699 49.207C8.58101 49.207 8.25205 48.9289 8.25205 48.5856V47.7462C8.25205 47.403 8.58101 47.1248 8.98699 47.1248C9.39297 47.1248 9.72192 47.403 9.72192 47.7462V48.5856C9.72192 48.9289 9.39297 49.207 8.98699 49.207ZM8.98699 45.882C8.58101 45.882 8.25205 45.6039 8.25205 45.2606V41.8792C8.25205 40.8787 7.28928 40.0647 6.10603 40.0647C5.70005 40.0647 5.37109 39.7866 5.37109 39.4433C5.37109 39.1 5.70005 38.8219 6.10603 38.8219C8.09977 38.8219 9.72192 40.1935 9.72192 41.8792V45.2606C9.72192 45.6039 9.39297 45.882 8.98699 45.882Z" fill="#FFCBC3"/>
<path d="M48.9909 49.207C48.5849 49.207 48.256 48.9288 48.256 48.5856V47.7464C48.256 47.4032 48.5849 47.125 48.9909 47.125C49.3969 47.125 49.7258 47.4032 49.7258 47.7464V48.5856C49.7258 48.9288 49.3969 49.207 48.9909 49.207ZM48.9909 45.8823C48.5849 45.8823 48.256 45.6041 48.256 45.2609V41.8795C48.256 40.879 47.2932 40.065 46.1099 40.065C45.704 40.065 45.375 39.7869 45.375 39.4436C45.375 39.1003 45.704 38.8222 46.1099 38.8222C48.1037 38.8222 49.7258 40.1937 49.7258 41.8795V45.2609C49.7258 45.6041 49.3969 45.8823 48.9909 45.8823Z" fill="#FFCBC3"/>
<path d="M51.1336 33.7791C51.1336 31.4745 48.9158 29.5994 46.1898 29.5994C43.4637 29.5994 41.246 31.4745 41.246 33.7791C41.246 35.2213 42.1144 36.4949 43.432 37.2465C41.4059 38.0881 40.0039 39.8452 40.0039 41.8801V50.6913C40.0039 51.0224 40.3155 51.3102 40.7388 51.3102H41.9674V60.1559H41.099C40.693 60.1559 40.364 60.434 40.364 60.7773C40.364 61.1205 40.693 61.3987 41.099 61.3987H42.7023C43.1083 61.3987 43.4373 61.1205 43.4373 60.7773V51.3104H48.7815V60.7775C48.7815 61.1208 49.1104 61.3989 49.5164 61.3989H51.1198C51.5257 61.3989 51.8547 61.1208 51.8547 60.7775C51.8547 60.4343 51.5257 60.1561 51.1198 60.1561H50.2513V51.3104H51.4808C51.9085 51.3104 52.2157 51.0181 52.2157 50.6915V45.8944C52.2157 45.5513 51.8864 45.273 51.4808 45.273C51.0751 45.273 50.7458 45.5513 50.7458 45.8944V50.0701C38.6525 50.0701 52.2974 50.0701 41.4738 50.0701V41.8801C41.4767 39.7224 43.5581 37.9626 46.1127 37.9579C48.2882 37.9579 50.1931 39.2628 50.6459 41.0596C50.7282 41.3877 51.128 41.6092 51.516 41.5396C51.9129 41.4675 52.1657 41.1369 52.0834 40.8014C52.0834 40.8014 52.0834 40.7987 52.0805 40.7987C51.7165 39.3451 50.5953 38.0205 48.8776 37.2823C50.2334 36.5364 51.1336 35.2459 51.1336 33.7791ZM46.1901 36.7163C44.2745 36.7163 42.7161 35.3987 42.7161 33.7794C42.7161 32.16 44.2745 30.8424 46.1901 30.8424C48.1056 30.8424 49.664 32.16 49.664 33.7794C49.664 35.3987 48.1053 36.7163 46.1901 36.7163Z" fill="black"/>
<path d="M51.4811 44.0286C51.887 44.0286 52.2161 43.7506 52.2161 43.4078C52.2161 43.0649 51.887 42.787 51.4811 42.787C51.0752 42.787 50.7461 43.0649 50.7461 43.4078C50.7461 43.7506 51.0752 44.0286 51.4811 44.0286Z" fill="black"/>
<path d="M2.00762 33.024C2.38653 33.1513 2.80895 32.9974 2.96298 32.6834C2.96298 32.6807 2.96298 32.6807 2.96298 32.6807C3.11584 32.3604 2.9327 31.9982 2.55732 31.8702C2.18693 31.7434 1.74893 31.9025 1.60195 32.2133C1.44909 32.5317 1.63135 32.8947 2.00762 33.024Z" fill="black"/>
<path d="M0 41.879V50.6907C0 51.034 0.32896 51.3121 0.734943 51.3121H1.96436V60.1559H1.09595C0.689965 60.1559 0.361004 60.434 0.361004 60.7773C0.361004 61.1205 0.689965 61.3987 1.09595 61.3987H2.6993C3.10528 61.3987 3.43424 61.1205 3.43424 60.7773V51.3121H8.77845V60.7773C8.77845 61.1205 9.10742 61.3987 9.5134 61.3987H11.1167C11.5227 61.3987 11.8517 61.1205 11.8517 60.7773C11.8517 60.434 11.5227 60.1559 11.1167 60.1559H10.2483V51.3121H11.4775C11.8834 51.3121 12.2124 51.034 12.2124 50.6907V41.879C12.2124 39.8749 10.8519 38.1377 8.87311 37.2827C10.2295 36.5362 11.13 35.2462 11.13 33.7795C11.13 30.5837 7.09073 28.6335 3.86286 30.0881C3.50715 30.2497 3.36898 30.625 3.56006 30.9282C3.76114 31.2451 4.21681 31.3428 4.55371 31.1843C6.88142 30.143 9.65627 31.5839 9.66009 33.7792C9.65715 35.3949 8.09907 36.7122 6.18234 36.7147C4.67718 36.7147 3.3484 35.9017 2.88098 34.6889C2.76045 34.371 2.33712 34.1846 1.95495 34.289C1.56455 34.3991 1.35759 34.7501 1.48459 35.0717C1.83648 35.9849 2.53291 36.7376 3.42777 37.2464C1.40139 38.0878 0 39.8453 0 41.879ZM6.1062 37.959C8.66263 37.959 10.7425 39.7176 10.7425 41.879V50.0693H1.46989V41.879C1.46989 39.7176 3.54977 37.959 6.1062 37.959Z" fill="black"/>
<path d="M26.1079 62.5677C26.5136 62.5677 26.8429 62.2894 26.8429 61.9464V57.1169L28.9124 58.8667C29.1917 59.1001 29.6738 59.1001 29.9531 58.8667C30.2383 58.6231 30.2383 58.2302 29.9531 57.9868L26.6283 55.1754C26.349 54.942 25.8669 54.942 25.5876 55.1754L22.2627 57.9868C21.9775 58.2302 21.9775 58.6231 22.2627 58.8667C22.5605 59.1133 23.0215 59.1051 23.3063 58.8642L25.373 57.1169V61.9464C25.373 62.2891 25.7022 62.5677 26.1079 62.5677Z" fill="black"/>
<path d="M8.25243 20.3075C8.65518 20.3075 8.98737 20.0291 8.98737 19.6861V14.8546L11.057 16.6062C11.3333 16.8398 11.8184 16.8398 12.0947 16.6062C12.3887 16.3527 12.3743 15.9627 12.0947 15.7263L8.76983 12.9153C8.49349 12.6817 8.00843 12.6817 7.7321 12.9153L4.40723 15.7266C4.12207 15.9679 4.12207 16.3631 4.40723 16.6064C4.68944 16.8453 5.15187 16.852 5.4479 16.6064C5.4479 16.603 7.51455 14.8566 7.51749 14.8541V19.6861C7.51749 20.0291 7.84675 20.3075 8.25243 20.3075Z" fill="black"/>
<path d="M44.485 12.9153C44.2087 12.6817 43.7236 12.6817 43.4473 12.9153L40.1223 15.7266C39.8342 15.9679 39.8342 16.3631 40.1223 16.6064C40.4063 16.8471 40.8723 16.85 41.1601 16.6064C41.1601 16.6064 41.0842 16.6681 43.2297 14.8541V19.6861C43.2297 20.0291 43.5619 20.3075 43.9676 20.3075C44.3704 20.3075 44.6996 20.0291 44.6996 19.6861V14.8546L46.7692 16.6062C47.0485 16.8398 47.5336 16.8398 47.8099 16.6062C48.0969 16.3589 48.0966 15.9739 47.8099 15.7263L44.485 12.9153Z" fill="black"/>
<path d="M21.1074 0C20.7017 0 20.3725 0.278389 20.3725 0.621404V12.9945C18.4405 13.9848 16.8856 15.4573 15.9746 17.1731C15.8035 17.4885 15.9761 17.8557 16.345 17.9934C16.7037 18.1328 17.1534 17.9862 17.3151 17.6827C18.8012 14.8836 22.219 12.8807 26.105 12.8807C31.2535 12.8807 35.4197 16.3456 35.7152 20.5113C35.9212 22.9368 34.7483 25.5096 32.308 27.2498C31.832 27.5856 31.0968 27.3052 31.0968 26.7726C31.0968 14.7148 31.0968 26.0714 31.0968 20.9836C31.0968 19.9495 30.1002 19.1069 28.8743 19.1044H23.421C22.1981 19.1044 21.2015 19.9471 21.2015 20.9811V26.8322C21.2015 27.3502 20.4804 27.6492 20.008 27.3194C18.1412 26.0216 16.9241 24.2049 16.5802 22.1988C16.5243 21.8657 16.1422 21.6246 15.7482 21.6718C15.3455 21.7215 15.0662 22.0375 15.125 22.3753C15.5219 24.6896 16.9241 26.7872 19.0731 28.2786C19.9897 28.9199 21.2859 28.805 22.0696 28.1056C22.4268 28.5453 22.8798 28.9246 23.4043 29.2216C21.3917 30.0667 20.0018 31.8186 20.0018 33.8439V42.6554C20.0018 42.9986 20.3307 43.2768 20.7367 43.2768H21.9659V52.1206H21.0974C20.6915 52.1206 20.3625 52.3987 20.3625 52.742C20.3625 53.0853 20.6915 53.3634 21.0974 53.3634H22.7008C23.1068 53.3634 23.4357 53.0853 23.4357 52.742V43.2768H28.7802V52.742C28.7802 53.0853 29.1092 53.3634 29.5152 53.3634H31.1185C31.5245 53.3634 31.8535 53.0853 31.8535 52.742C31.8535 52.3987 31.5245 52.1206 31.1185 52.1206H30.2501V43.2768H31.4792C31.8852 43.2768 32.2142 42.9986 32.2142 42.6554V33.8441C32.2142 31.8343 30.8457 30.0933 28.8581 29.2405C29.4114 28.9333 29.8888 28.5363 30.2581 28.0718C31.0982 28.7906 32.3862 28.819 33.2549 28.199C35.8022 26.3855 37.3752 23.6454 37.1853 20.4365C36.9707 17.4704 35.0678 14.6621 31.8438 13.002V0.621404C31.8438 0.278389 31.5145 0 31.1088 0C30.7031 0 30.3739 0.278389 30.3739 0.621404V4.33988H21.8427V0.621404C21.8424 0.278389 21.5131 0 21.1074 0ZM23.421 20.3472H28.8743C29.2888 20.3472 29.6269 20.6328 29.6269 20.9836V22.7722C27.6966 21.1573 24.6037 21.1556 22.6714 22.7729V20.9811C22.6714 20.6331 23.0095 20.3472 23.421 20.3472ZM30.7443 33.8441V42.0342H21.4717V33.8441C21.4717 31.8656 23.2488 29.9822 26.1685 29.9265C28.6967 29.9544 30.7443 31.6998 30.7443 33.8441ZM22.6717 25.744C22.6717 24.1226 24.2318 22.8033 26.1497 22.8033C28.05 22.8033 29.6269 24.1042 29.6269 25.7537C29.6207 27.3654 28.0735 28.675 26.1685 28.6837C24.1495 28.6716 22.6717 27.3122 22.6717 25.744ZM30.3736 12.3634C29.1024 11.9098 27.6137 11.6277 26.1286 11.6277H26.1256C24.6416 11.6277 23.1353 11.9031 21.8424 12.3582V9.92232H30.3736V12.3634ZM30.3736 5.58269V8.67976H21.8424V5.58269H30.3736Z" fill="black"/>
<path d="M15.1135 19.7259C15.0529 20.0949 15.3904 20.432 15.8425 20.432C16.2071 20.432 16.5216 20.2005 16.5687 19.8925C16.6228 19.5564 16.347 19.2406 15.9396 19.1936C15.5398 19.1491 15.1664 19.3925 15.1135 19.7259Z" fill="black"/>
</svg>
