<svg width="62" height="62" viewBox="0 0 62 62" fill="none" xmlns="http://www.w3.org/2000/svg">
<path d="M55.6769 35.5081L51.9984 27.5064C51.5358 26.5004 51.3406 25.3934 51.4227 24.289C53.2163 11.8132 41.8776 0.953491 29.4965 0.953491C-0.971922 0.953491 5.10481 28.5873 10.7863 40.216C11.5727 41.8255 11.8262 43.6434 11.5199 45.4085L9.57656 61.0465H33.4989L34.1608 51.8705L43.3259 54.4706C46.1345 55.2674 49.0086 53.4314 49.4663 50.5479L51.0398 40.6342C51.1124 40.1767 51.4021 39.7827 51.817 39.5768L54.7542 38.1193C55.7172 37.6415 56.126 36.4848 55.6769 35.5081Z" fill="#FFB69F"/>
<path d="M34.1614 51.8693L33.4978 61.0458L30.3154 50.3629C31.0638 50.8497 31.8848 51.2251 32.7518 51.4721L34.1614 51.8693Z" fill="#EA8F7D"/>
<path d="M39.7547 25.9848L41.1606 26.7956C41.4208 26.9458 41.5363 27.2613 41.4338 27.5437C40.8267 29.2168 39.9306 30.7517 38.8071 32.0881C38.614 32.3177 38.2832 32.3751 38.0233 32.2252L36.6172 31.4132C34.9529 33.1366 32.8156 34.4015 30.4148 34.997V36.6195C30.4148 36.9198 30.1997 37.1775 29.904 37.2298C28.1775 37.5344 26.385 37.5349 24.6558 37.2298C24.3601 37.1777 24.145 36.9198 24.145 36.6195V34.997C21.7442 34.4015 19.6067 33.1366 17.9426 31.4132L16.5365 32.2252C16.2766 32.3754 15.9458 32.318 15.7528 32.0881C14.6293 30.7517 13.7332 29.217 13.126 27.5437C13.0235 27.2613 13.1391 26.9458 13.3992 26.7956L14.8051 25.9848C14.1403 23.6702 14.1323 21.1626 14.8051 18.8199L13.3992 18.009C13.1391 17.8589 13.0235 17.5433 13.126 17.2609C13.7332 15.5879 14.6293 14.0529 15.7528 12.7165C15.9458 12.4869 16.2766 12.4295 16.5365 12.5794L17.9426 13.3915C19.6069 11.6681 21.7442 10.4031 24.145 9.8076V8.18519C24.145 7.88488 24.3601 7.62719 24.6558 7.57488C26.3819 7.27021 28.1748 7.26972 29.904 7.57488C30.1997 7.62695 30.4148 7.88488 30.4148 8.18519V9.8076C32.8156 10.4031 34.9531 11.6681 36.6172 13.3915L38.0236 12.5797C38.2835 12.4295 38.6143 12.4869 38.8073 12.7168C39.9308 14.0532 40.8269 15.5879 41.4341 17.2612C41.5365 17.5436 41.421 17.8591 41.1609 18.0093L39.755 18.8201C40.4198 21.1345 40.4278 23.6421 39.7547 25.9848Z" fill="#72C2E9"/>
<path d="M27.2807 30.7983C31.9176 30.7983 35.6766 27.0393 35.6766 22.4024C35.6766 17.7654 31.9176 14.0065 27.2807 14.0065C22.6437 14.0065 18.8848 17.7654 18.8848 22.4024C18.8848 27.0393 22.6437 30.7983 27.2807 30.7983Z" fill="#EFEFEF"/>
<path d="M31.9766 22.8184L27.2801 27.5149L22.5836 22.8184C21.6388 21.8737 21.6388 20.3421 22.5836 19.3973C23.5284 18.4525 25.0599 18.4525 26.0047 19.3973L27.2801 20.6727L28.5554 19.3973C29.5002 18.4525 31.0318 18.4525 31.9766 19.3973C32.9214 20.3421 32.9214 21.8737 31.9766 22.8184Z" fill="#FC5D3D"/>
<path d="M12.5931 58.9867C12.5682 58.9867 12.5433 58.9853 12.5176 58.9819C12.1858 58.9407 11.9501 58.6382 11.9916 58.3064L13.5554 45.7207C13.5563 45.7122 13.5575 45.7037 13.559 45.6955C13.6571 45.1096 13.707 44.5143 13.707 43.9258C13.707 42.3179 13.3466 40.7653 12.6358 39.3109C10.0194 33.9552 8.18945 27.086 8.18945 21.0837C8.18945 15.7846 9.64282 11.5793 12.5096 8.58364C15.4217 5.54056 19.8207 3.72391 25.5843 3.1848C25.9169 3.15477 26.2126 3.39841 26.2436 3.73142C26.2748 4.06418 26.03 4.35941 25.6969 4.39065C14.8835 5.40203 9.40039 11.0184 9.40039 21.0839C9.40039 26.9473 11.2127 33.6384 13.7239 38.7793C14.5161 40.4005 14.9181 42.1322 14.9181 43.9258C14.9181 44.5768 14.8634 45.2351 14.7556 45.8827L13.1933 58.4559C13.155 58.7625 12.8942 58.9867 12.5931 58.9867ZM28.0563 4.24437C27.7308 4.24437 27.462 3.98596 27.4516 3.65803C27.4412 3.32382 27.7035 3.04433 28.0377 3.03367C28.5179 3.01842 29.0089 3.00728 29.4969 3.01115C29.8313 3.01139 30.1023 3.2824 30.1021 3.61686C30.1018 3.95132 29.8308 4.22209 29.4966 4.22209H29.4964C29.0183 4.22742 28.5431 4.22911 28.076 4.24413C28.0694 4.24437 28.0631 4.24437 28.0563 4.24437Z" fill="#FBE0E2"/>
<path d="M27.2792 33.8448C25.3478 33.8448 23.4384 33.3544 21.7569 32.4265C21.4641 32.265 21.358 31.8966 21.5195 31.6041C21.6811 31.311 22.0499 31.2049 22.342 31.3667C23.8445 32.196 25.552 32.6341 27.2792 32.6341C32.9355 32.6341 37.5126 28.0594 37.5126 22.4017C37.5126 19.6681 36.4485 17.0987 34.5163 15.1663C34.2797 14.9297 34.2797 14.5466 34.5163 14.3102C34.7529 14.0738 35.136 14.0736 35.3724 14.3102C37.5335 16.4712 38.7236 19.3448 38.7236 22.4017C38.7236 28.7262 33.6066 33.8448 27.2792 33.8448ZM19.6748 30.9514C19.5082 30.8029 19.3447 30.6484 19.1887 30.4924C18.9524 30.2556 18.9528 29.8722 19.1895 29.6361C19.4266 29.3997 19.8099 29.3999 20.0458 29.6368C20.1848 29.7763 20.3311 29.9143 20.4803 30.0473C20.73 30.2699 20.752 30.6525 20.5295 30.902C20.3071 31.1519 19.9245 31.1739 19.6748 30.9514Z" fill="#C5E5FE"/>
<path d="M42.3556 45.4581C42.2554 45.7768 42.4324 46.1169 42.7514 46.2174C44.5288 46.7756 47.4479 47.4225 49.3767 47.2428L48.8671 50.4515C48.4866 52.8746 46.0284 54.6041 43.4905 53.886C31.8302 50.5794 31.1562 50.6765 29.2247 48.6838C28.992 48.4438 28.6086 48.438 28.3686 48.6705C28.1286 48.9032 28.1225 49.2866 28.3553 49.5266C30.308 51.5409 32.3879 51.9979 33.5209 52.3169L32.8948 61.0012C32.8677 61.3662 33.1622 61.6525 33.4979 61.6525C33.8154 61.6525 34.0815 61.4054 34.1033 61.0884C34.1033 61.0884 34.7064 52.7213 34.7112 52.6554L43.1614 55.0507C46.305 55.9536 49.545 53.8867 50.0637 50.6429L51.638 40.728C51.6791 40.464 51.8487 40.2363 52.086 40.1174L55.0237 38.6594C56.2979 38.0273 56.8062 36.5202 56.2277 35.254L52.5488 27.2522C52.1209 26.3173 51.954 25.3052 52.0257 24.3583C52.5602 20.5891 51.9717 16.8357 50.2892 13.324C50.1487 13.0333 49.7734 12.9001 49.4803 13.0406C49.1693 13.191 49.0541 13.5519 49.197 13.8471C50.7855 17.1682 51.3297 20.7063 50.8245 24.203L50.8196 24.2393C50.7278 25.3621 50.9194 26.6065 51.4493 27.7583L55.1281 35.7602C55.4372 36.4422 55.1601 37.2412 54.4863 37.5766L51.5486 39.0322C50.9601 39.3252 50.5459 39.8895 50.4418 40.5386L49.574 46.0021C47.7455 46.3152 44.3481 45.4499 43.1154 45.0621C42.7957 44.9624 42.4559 45.1392 42.3556 45.4581Z" fill="black"/>
<path d="M45.4756 29.5089V27.4452C45.4756 27.1107 45.2046 26.8397 44.8701 26.8397C44.5357 26.8397 44.2646 27.1107 44.2646 27.4452V29.5089C44.2646 29.8433 44.5357 30.1143 44.8701 30.1143C45.2046 30.1143 45.4756 29.8433 45.4756 29.5089Z" fill="black"/>
<path d="M9.40226 35.3366C9.29352 35.0287 8.93726 34.8592 8.6275 34.9682C8.47492 35.0215 8.35383 35.1329 8.2836 35.2782C8.21578 35.4257 8.2061 35.5906 8.26156 35.7408C8.34657 35.9829 8.57664 36.1452 8.83094 36.1452C8.90117 36.1452 8.96899 36.1331 9.03438 36.1089C9.34898 35.9951 9.51391 35.649 9.40226 35.3366Z" fill="black"/>
<path d="M48.8928 11.9822C49.1737 11.8033 49.2561 11.4303 49.0817 11.1493C49.079 11.1467 49.079 11.1467 49.079 11.1467C48.9047 10.873 48.5174 10.7861 48.2437 10.9602C47.9655 11.1307 47.8739 11.5085 48.057 11.7933C48.227 12.0626 48.5845 12.1702 48.8928 11.9822Z" fill="black"/>
<path d="M29.4749 0.347534C20.9523 0.347534 14.5874 2.50543 10.5577 6.76066C6.8672 10.6601 5.53711 15.8868 5.53711 21.212C5.53711 24.9707 6.21281 29.1894 7.49398 33.4134C7.57148 33.6701 7.80398 33.8423 8.07305 33.8445C8.13094 33.8445 8.19148 33.8348 8.24961 33.8178C8.40485 33.7694 8.53055 33.6653 8.60805 33.5224C8.68313 33.3795 8.70008 33.2172 8.65382 33.0622C7.4068 28.9501 6.7478 24.8523 6.7478 21.212C6.7478 15.4576 8.32711 10.8754 11.4366 7.59378C15.9236 2.86047 22.9577 1.55847 29.5062 1.55847C36.0694 1.55847 42.4923 4.67082 46.6867 9.88246C46.8877 10.1343 47.2873 10.1779 47.537 9.97449C47.7983 9.76645 47.8398 9.38379 47.6291 9.12441C43.2799 3.72605 36.4899 0.347534 29.4749 0.347534Z" fill="black"/>
<path d="M9.5015 61.6455C9.52596 61.6503 9.55236 61.6503 9.57682 61.6503C9.88198 61.6503 10.1385 61.4229 10.1772 61.1202L12.1174 45.4991C12.2067 44.9857 12.2506 44.4601 12.2506 43.9416C12.2506 42.5638 11.9331 41.1831 11.3303 39.9506C10.9619 39.195 10.601 38.3957 10.2595 37.5675C10.136 37.2671 9.77275 37.1146 9.47002 37.2403C9.31986 37.3032 9.20361 37.4195 9.14089 37.5675C9.08034 37.7176 9.08034 37.8823 9.14089 38.0325C9.49448 38.8871 9.86478 39.7108 10.2428 40.4807C10.7633 41.5488 11.0396 42.7476 11.0396 43.9416C11.0396 44.3945 11.0009 44.8525 10.9234 45.3051L8.9762 60.9722C8.9544 61.1321 8.99799 61.2895 9.09729 61.4178C9.19659 61.5462 9.33924 61.6261 9.5015 61.6455Z" fill="black"/>
<path d="M24.5517 37.8235C26.3526 38.1401 28.2153 38.1398 30.0106 37.8235C30.5941 37.7218 31.0206 37.2132 31.0206 36.6177V35.46C33.1467 34.8521 35.1159 33.7139 36.7168 32.1687L37.7219 32.7475C38.2118 33.0343 38.8732 32.949 39.2716 32.4763C40.4584 31.0668 41.3763 29.4756 42.0035 27.7488C42.2079 27.1767 41.9662 26.5584 41.4637 26.2712L40.4608 25.6924C40.7274 24.6195 40.8628 23.5127 40.8628 22.401C40.8628 21.2894 40.7272 20.1826 40.4608 19.1097L41.4637 18.5306C41.9631 18.2427 42.2091 17.6275 42.0035 17.0533C41.3763 15.3265 40.4584 13.7353 39.2716 12.3256C38.8745 11.8547 38.2147 11.7666 37.7219 12.0543L36.7168 12.6334C35.1162 11.0882 33.147 9.94994 31.0206 9.34205V8.18439C31.0206 7.58861 30.5941 7.08002 30.0106 6.97588C28.2206 6.66104 26.3367 6.66104 24.5517 6.97588C23.9656 7.08026 23.5418 7.58861 23.5418 8.18439V9.34205C23.273 9.41713 23.0039 9.50432 22.7399 9.59635C22.4251 9.70775 22.2606 10.0563 22.3718 10.3713C22.4805 10.6765 22.8368 10.8485 23.1441 10.7395C23.5147 10.6063 23.8998 10.49 24.2921 10.3931C24.5634 10.3275 24.7523 10.0853 24.7523 9.80705V8.18439C24.7496 8.17713 24.7571 8.16986 24.7619 8.16986C26.4088 7.87924 28.1499 7.87924 29.7994 8.16986C29.8043 8.16986 29.8091 8.17471 29.8091 8.18439V9.80705C29.8091 10.0853 29.9978 10.3275 30.2691 10.3931C32.5166 10.9502 34.5609 12.1321 36.1833 13.8102C36.37 14.0042 36.687 14.0499 36.9195 13.9146L38.3269 13.103C38.3317 13.1006 38.3317 13.1006 38.3317 13.1006C38.339 13.1006 38.3414 13.1006 38.3438 13.1056C39.4388 14.4062 40.2864 15.8738 40.865 17.465C40.865 17.4674 40.865 17.4674 40.865 17.4699C40.865 17.4749 40.8626 17.482 40.858 17.4846L39.453 18.2935C39.2109 18.434 39.097 18.7174 39.1723 18.986C39.4896 20.0906 39.6516 21.2385 39.6516 22.401C39.6516 23.5635 39.4894 24.7115 39.1723 25.8159C39.097 26.0847 39.2109 26.3681 39.453 26.5085L40.8604 27.3199C40.8652 27.3199 40.8652 27.332 40.8652 27.332C40.8652 27.3346 40.8652 27.3371 40.8652 27.3392C40.2888 28.9282 39.4412 30.3932 38.3441 31.6962C38.3416 31.701 38.3295 31.701 38.3274 31.6986L36.92 30.8873C36.6851 30.7514 36.3702 30.7953 36.1838 30.9914C34.5638 32.6674 32.5195 33.8492 30.2695 34.4087C29.9983 34.4741 29.8096 34.7163 29.8096 34.9948V36.6199C29.8096 36.6247 29.8045 36.632 29.7999 36.632C28.1504 36.9226 26.4214 36.925 24.7598 36.632C24.7573 36.632 24.7501 36.6247 24.7527 36.6175V34.9948C24.7527 34.7163 24.5638 34.4741 24.2926 34.4087C22.0427 33.849 19.9986 32.6674 18.3784 30.9914C18.1916 30.7977 17.8746 30.7517 17.6397 30.8873L16.2323 31.7008C16.2299 31.7008 16.2202 31.7035 16.2156 31.696C15.1207 30.393 14.273 28.9253 13.6969 27.3366C13.6969 27.3342 13.6945 27.3315 13.6945 27.3315C13.6945 27.3267 13.6969 27.3218 13.6993 27.3194L15.1088 26.5081C15.351 26.3676 15.4649 26.0842 15.3874 25.8154C15.0698 24.7134 14.91 23.5631 14.91 22.4006C14.91 21.2354 15.0698 20.0877 15.3874 18.9855C15.4646 18.7169 15.3486 18.4335 15.1088 18.2931L13.7015 17.4815C13.6966 17.4815 13.6945 17.4745 13.6945 17.4694L13.6969 17.4645C14.2733 15.8755 15.1209 14.4081 16.2181 13.1052C16.2181 13.0993 16.2268 13.1001 16.2326 13.1001L17.6399 13.9138C17.8749 14.0494 18.1919 14.0034 18.3786 13.8094C18.6353 13.5455 18.9042 13.2912 19.1803 13.0514C19.4321 12.8312 19.4588 12.4486 19.2408 12.1967C19.0301 11.9545 18.6305 11.9255 18.3883 12.1362C18.2016 12.2958 18.0199 12.4631 17.8434 12.6327L16.8407 12.0536C16.3675 11.7741 15.6944 11.8414 15.2907 12.3248C14.1016 13.7368 13.1837 15.328 12.5588 17.0526C12.5564 17.0526 12.5564 17.055 12.5564 17.055C12.3588 17.5883 12.5697 18.2257 13.0989 18.5323L14.1016 19.109C13.8352 20.1768 13.6995 21.2836 13.6995 22.4003C13.6995 23.512 13.8354 24.6188 14.1016 25.6916L13.0989 26.2705C12.5722 26.5693 12.3559 27.209 12.5588 27.7502C13.1837 29.4722 14.1016 31.0634 15.2907 32.4753C15.6862 32.9452 16.3522 33.0345 16.8383 32.7466L17.8434 32.1677C19.4442 33.7129 21.4132 34.8512 23.5421 35.4591V36.6167C23.5418 37.2135 23.9656 37.7196 24.5517 37.8235Z" fill="black"/>
<path d="M21.0536 11.7086C21.3418 11.5417 21.4386 11.1688 21.2715 10.8803C21.1093 10.6042 20.7215 10.5001 20.4432 10.6648C20.1613 10.8251 20.0531 11.1932 20.2253 11.4906C20.3941 11.7793 20.7668 11.8825 21.0536 11.7086Z" fill="black"/>
<path d="M27.2804 31.4011C32.2625 31.4011 36.2801 27.373 36.2801 22.4014C36.2801 17.4174 32.2472 13.3993 27.2804 13.3993C22.3098 13.3993 18.2783 17.4244 18.2783 22.4014C18.2783 27.3142 22.2466 31.4011 27.2804 31.4011ZM27.2804 14.6102C31.5672 14.6173 35.0619 18.1123 35.0716 22.4014C35.0619 26.6881 31.5672 30.1829 27.2804 30.1926C22.9937 30.1829 19.4989 26.6881 19.4893 22.4014C19.4989 18.1123 22.9937 14.6173 27.2804 14.6102Z" fill="black"/>
<path d="M22.1558 23.2466L26.852 27.9426C27.0806 28.1712 27.4609 28.1855 27.7094 27.9426L32.4054 23.2466V23.2439C33.6049 22.0449 33.571 20.1299 32.4054 18.9696C31.2419 17.8061 29.324 17.769 28.1283 18.9696L27.2807 19.8146L26.433 18.9696C25.2725 17.8085 23.3539 17.7669 22.156 18.9696C20.9826 20.1379 20.963 22.0485 22.1558 23.2466ZM23.0107 19.8242C23.7234 19.1168 24.8646 19.1166 25.5779 19.8242L26.852 21.0984C27.0794 21.3282 27.4793 21.3282 27.7094 21.0984L28.9833 19.8242C29.7023 19.1105 30.8464 19.1231 31.548 19.8242C32.2615 20.5377 32.253 21.6842 31.548 22.3892L31.5456 22.3917L27.2807 26.659L23.0109 22.3892C22.3045 21.683 22.3011 20.5338 23.0107 19.8242Z" fill="black"/>
</svg>
