<svg width="67" height="67" viewBox="0 0 67 67" fill="none" xmlns="http://www.w3.org/2000/svg">
<path d="M60.4256 9.63648V11.1283C60.4256 11.5745 60.0632 11.9369 59.617 11.9369H48.0439V8.82788H59.617C60.0632 8.82788 60.4256 9.19027 60.4256 9.63648Z" fill="#F0C020" stroke="black"/>
<path d="M48.0439 11.9369V8.82788H49.6952V11.9369H48.0439Z" fill="#E8A521" stroke="black"/>
<path d="M19.9537 12.4368V6.24207H47.044V12.4368V12.9368H47.544H57.8294V37.6036H9.1709V12.9368H19.4537H19.9537V12.4368Z" fill="#EFEFEF" stroke="black"/>
<path d="M41.6114 32.1107C41.9384 31.6627 42.3437 31.2718 42.8052 30.9617C43.558 30.4575 44.464 30.1619 45.4396 30.1619H49.7579C52.3712 30.1619 54.4923 32.283 54.4923 34.8962V37.6031H12.6123V34.8962C12.6123 32.283 14.7334 30.1619 17.3467 30.1619H21.665C22.6413 30.1619 23.5443 30.4553 24.2962 30.9613L24.2965 30.9615C24.7589 31.2721 25.1641 31.6608 25.4935 32.111L25.8484 32.5962L26.2608 32.1588C27.1196 31.248 28.3373 30.6827 29.692 30.6827H37.4127C38.7673 30.6827 39.985 31.248 40.8438 32.1588L41.2566 32.5966L41.6114 32.1107Z" fill="#1279E0" stroke="black"/>
<path d="M18.9539 12.9368V19.265H17.457C17.4055 19.265 17.354 19.2665 17.3027 19.2697V12.9368H18.9539Z" fill="#AFAFAF" stroke="black"/>
<path d="M49.6952 12.9368V19.1669C49.4772 19.2316 49.2506 19.265 49.02 19.265H48.0439V12.9368H49.6952Z" fill="#AFAFAF" stroke="black"/>
<path d="M25.2452 31.7991C24.4402 32.7835 23.958 34.0445 23.958 35.417V37.603H23.126V35.417C23.126 33.8671 23.6618 32.3944 24.645 31.2187C24.8614 31.3943 25.0623 31.5885 25.2452 31.7991Z" fill="#4BA5C8" stroke="black"/>
<path d="M43.9795 35.417V37.603H43.1475V35.417C43.1475 34.0444 42.6652 32.7832 41.86 31.7988C42.0423 31.5884 42.243 31.3938 42.4592 31.218C43.4406 32.3867 43.9795 33.8628 43.9795 35.417Z" fill="#4BA5C8" stroke="black"/>
<path d="M62.8887 39.4116V47.0015C62.8887 47.4479 62.5265 47.8101 62.0801 47.8101H4.24023C3.79377 47.8101 3.43164 47.4479 3.43164 47.0015V39.4116C3.43164 38.9652 3.79377 38.603 4.24023 38.603H62.0801C62.5267 38.603 62.8887 38.9651 62.8887 39.4116Z" fill="#E3EFFB" stroke="black"/>
<path d="M49.1044 2.56482V4.43349C49.1044 4.87969 48.742 5.24208 48.2958 5.24208H18.8105C18.3643 5.24208 18.002 4.87969 18.002 4.43349V2.56482C18.002 2.11862 18.3643 1.75623 18.8105 1.75623H48.2958C48.742 1.75623 49.1044 2.11862 49.1044 2.56482Z" fill="#F0C020" stroke="black"/>
<path d="M18.9539 8.82788V11.9369H7.38086C6.93466 11.9369 6.57227 11.5745 6.57227 11.1283V9.63648C6.57227 9.19027 6.93466 8.82788 7.38086 8.82788H18.9539Z" fill="#F0C020" stroke="black"/>
<path d="M17.3027 11.9369V8.82788H18.9539V11.9369H17.3027Z" fill="#E8A521" stroke="black"/>
<path d="M33.5097 29.6828C31.4057 29.6828 29.7002 27.9772 29.7002 25.8733V23.1989H37.3194V25.8732C37.3194 25.8733 37.3194 25.8733 37.3194 25.8733C37.3191 27.9773 35.6136 29.6828 33.5097 29.6828Z" fill="#FFB69F" stroke="black"/>
<path d="M36.9501 18.7481L38.3349 18.0252C38.8571 19.4421 38.5793 21.0394 37.5957 22.1986H29.6261L29.4661 21.2068L29.4661 21.2067C29.2951 20.1462 30.1142 19.1844 31.1888 19.1844H35.1713C35.7904 19.1844 36.4009 19.0349 36.9501 18.7481Z" fill="#7C7B7A" stroke="black"/>
<path d="M19.4561 29.1619C17.6838 29.1619 16.2471 27.7252 16.2471 25.9528V23.7208H22.6652V25.9528C22.6652 27.7252 21.2285 29.1619 19.4561 29.1619Z" fill="#FFB69F" stroke="black"/>
<path d="M16.0457 21.9266L16.0455 21.9249C15.9313 21.2244 16.3446 20.5767 16.9707 20.3538L16.9776 20.3513L16.9845 20.3487C17.077 20.3126 17.1115 20.3012 17.1705 20.2915C17.2445 20.2793 17.3638 20.2698 17.6144 20.2649C17.9141 20.2591 18.3596 20.2603 19.0691 20.2622C19.5443 20.2634 20.138 20.265 20.8858 20.265C21.4297 20.265 21.9671 20.1329 22.4493 19.8811C22.4494 19.8811 22.4494 19.8811 22.4494 19.881L23.5672 19.2975C23.9834 20.5169 23.7098 21.7962 22.9404 22.7197H16.1722L16.0457 21.9266Z" fill="#7C7B7A" stroke="black"/>
<path d="M44.3818 25.9528V23.7208H50.8V25.9528V25.9529C50.8002 27.7251 49.3633 29.1619 47.5909 29.1619C45.8186 29.1619 44.3818 27.7252 44.3818 25.9528Z" fill="#FFB69F" stroke="black"/>
<path d="M50.3989 19.9703L50.4004 19.9696C50.5017 19.9239 51.2003 19.5605 51.6947 19.3025C52.1249 20.6093 51.8161 21.8331 51.0747 22.7197H44.308L44.1797 21.9261C44.1797 21.9261 44.1797 21.926 44.1797 21.9259C44.04 21.054 44.7117 20.265 45.594 20.265H49.0199C49.4993 20.265 49.9666 20.1634 50.3989 19.9703Z" fill="#7C7B7A" stroke="black"/>
<path d="M60.6406 46.0624H61.1406V45.5624V40.1971C61.1406 40.1119 61.2096 40.0428 61.2949 40.0428C61.3802 40.0428 61.4492 40.1119 61.4492 40.1971V46.2167C61.4492 46.3018 61.3801 46.371 61.2949 46.371H9.21289C9.1276 46.371 9.05859 46.302 9.05859 46.2167C9.05859 46.1314 9.1276 46.0624 9.21289 46.0624H60.6406ZM6.5957 46.371H5.02539C4.9401 46.371 4.87109 46.302 4.87109 46.2167C4.87109 46.1314 4.9401 46.0624 5.02539 46.0624H6.5957C6.68099 46.0624 6.75 46.1314 6.75 46.2167C6.75 46.302 6.68099 46.371 6.5957 46.371Z" fill="#FFCBC3" stroke="black"/>
<path d="M58.4844 30.252C58.4844 30.3372 58.4153 30.4062 58.3301 30.4062C58.2449 30.4062 58.1758 30.3372 58.1758 30.252C58.1758 30.1667 58.2449 30.0977 58.3301 30.0977C58.4153 30.0977 58.4844 30.1667 58.4844 30.252Z" fill="black" stroke="black"/>
<path d="M22.1543 48.3105C22.1543 48.3958 22.0852 48.4648 22 48.4648C21.9148 48.4648 21.8457 48.3958 21.8457 48.3105C21.8457 48.2253 21.9148 48.1562 22 48.1562C22.0852 48.1562 22.1543 48.2253 22.1543 48.3105Z" fill="black" stroke="black"/>
<path d="M24.4579 8.48267H23.3545C23.2692 8.48267 23.2002 8.41366 23.2002 8.32837C23.2002 8.24308 23.2692 8.17407 23.3545 8.17407H24.4579C24.5432 8.17407 24.6122 8.24308 24.6122 8.32837C24.6122 8.41366 24.5432 8.48267 24.4579 8.48267Z" fill="black" stroke="black"/>
<path d="M12.9931 15.6362H11.8896C11.8044 15.6362 11.7354 15.5672 11.7354 15.4819C11.7354 15.3966 11.8044 15.3276 11.8896 15.3276H12.9931C13.0783 15.3276 13.1474 15.3966 13.1474 15.4819C13.1474 15.5672 13.0783 15.6362 12.9931 15.6362Z" fill="black" stroke="black"/>
<path d="M12.9931 18.9951H11.8896C11.8044 18.9951 11.7354 18.9261 11.7354 18.8408C11.7354 18.7555 11.8044 18.6865 11.8896 18.6865H12.9931C13.0783 18.6865 13.1474 18.7555 13.1474 18.8408C13.1474 18.9261 13.0783 18.9951 12.9931 18.9951Z" fill="black" stroke="black"/>
<path d="M12.9931 22.3538H11.8896C11.8044 22.3538 11.7354 22.2848 11.7354 22.1995C11.7354 22.1142 11.8044 22.0452 11.8896 22.0452H12.9931C13.0783 22.0452 13.1474 22.1142 13.1474 22.1995C13.1474 22.2848 13.0783 22.3538 12.9931 22.3538Z" fill="black" stroke="black"/>
<path d="M54.1133 15.3276H55.2167C55.302 15.3276 55.371 15.3966 55.371 15.4819C55.371 15.5672 55.302 15.6362 55.2167 15.6362H54.1133C54.028 15.6362 53.959 15.5672 53.959 15.4819C53.959 15.3966 54.028 15.3276 54.1133 15.3276Z" fill="black" stroke="black"/>
<path d="M54.1133 18.6865H55.2167C55.302 18.6865 55.371 18.7555 55.371 18.8408C55.371 18.9261 55.302 18.9951 55.2167 18.9951H54.1133C54.028 18.9951 53.959 18.9261 53.959 18.8408C53.959 18.7555 54.028 18.6865 54.1133 18.6865Z" fill="black" stroke="black"/>
<path d="M54.1133 22.0452H55.2167C55.302 22.0452 55.371 22.1142 55.371 22.1995C55.371 22.2848 55.302 22.3538 55.2167 22.3538H54.1133C54.028 22.3538 53.959 22.2848 53.959 22.1995C53.959 22.1142 54.028 22.0452 54.1133 22.0452Z" fill="black" stroke="black"/>
<path d="M30.827 8.48267H29.7236C29.6383 8.48267 29.5693 8.41366 29.5693 8.32837C29.5693 8.24308 29.6383 8.17407 29.7236 8.17407H30.827C30.9123 8.17407 30.9813 8.24308 30.9813 8.32837C30.9813 8.41366 30.9123 8.48267 30.827 8.48267Z" fill="black" stroke="black"/>
<path d="M37.1952 8.48267H36.0918C36.0065 8.48267 35.9375 8.41366 35.9375 8.32837C35.9375 8.24308 36.0065 8.17407 36.0918 8.17407H37.1952C37.2805 8.17407 37.3495 8.24308 37.3495 8.32837C37.3495 8.41366 37.2805 8.48267 37.1952 8.48267Z" fill="black" stroke="black"/>
<path d="M43.5634 8.48267H42.46C42.3747 8.48267 42.3057 8.41366 42.3057 8.32837C42.3057 8.24308 42.3747 8.17407 42.46 8.17407H43.5634C43.6487 8.17407 43.7177 8.24308 43.7177 8.32837C43.7177 8.41366 43.6487 8.48267 43.5634 8.48267Z" fill="black" stroke="black"/>
<path d="M24.4579 12.0596H23.3545C23.2692 12.0596 23.2002 11.9906 23.2002 11.9053C23.2002 11.82 23.2692 11.751 23.3545 11.751H24.4579C24.5432 11.751 24.6122 11.82 24.6122 11.9053C24.6122 11.9906 24.5432 12.0596 24.4579 12.0596Z" fill="black" stroke="black"/>
<path d="M30.827 12.0596H29.7236C29.6383 12.0596 29.5693 11.9906 29.5693 11.9053C29.5693 11.82 29.6383 11.751 29.7236 11.751H30.827C30.9123 11.751 30.9813 11.82 30.9813 11.9053C30.9813 11.9906 30.9123 12.0596 30.827 12.0596Z" fill="black" stroke="black"/>
<path d="M37.1952 12.0596H36.0918C36.0065 12.0596 35.9375 11.9906 35.9375 11.9053C35.9375 11.82 36.0065 11.751 36.0918 11.751H37.1952C37.2805 11.751 37.3495 11.82 37.3495 11.9053C37.3495 11.9906 37.2805 12.0596 37.1952 12.0596Z" fill="black" stroke="black"/>
<path d="M43.5634 12.0596H42.46C42.3747 12.0596 42.3057 11.9906 42.3057 11.9053C42.3057 11.82 42.3747 11.751 42.46 11.751H43.5634C43.6487 11.751 43.7177 11.82 43.7177 11.9053C43.7177 11.9906 43.6487 12.0596 43.5634 12.0596Z" fill="black" stroke="black"/>
<path d="M24.4579 15.6362H23.3545C23.2692 15.6362 23.2002 15.5672 23.2002 15.4819C23.2002 15.3966 23.2692 15.3276 23.3545 15.3276H24.4579C24.5432 15.3276 24.6122 15.3966 24.6122 15.4819C24.6122 15.5672 24.5432 15.6362 24.4579 15.6362Z" fill="black" stroke="black"/>
<path d="M30.827 15.6362H29.7236C29.6383 15.6362 29.5693 15.5672 29.5693 15.4819C29.5693 15.3966 29.6383 15.3276 29.7236 15.3276H30.827C30.9123 15.3276 30.9813 15.3966 30.9813 15.4819C30.9813 15.5672 30.9123 15.6362 30.827 15.6362Z" fill="black" stroke="black"/>
<path d="M37.1952 15.6362H36.0918C36.0065 15.6362 35.9375 15.5672 35.9375 15.4819C35.9375 15.3966 36.0065 15.3276 36.0918 15.3276H37.1952C37.2805 15.3276 37.3495 15.3966 37.3495 15.4819C37.3495 15.5672 37.2805 15.6362 37.1952 15.6362Z" fill="black" stroke="black"/>
<path d="M43.5634 15.6362H42.46C42.3747 15.6362 42.3057 15.5672 42.3057 15.4819C42.3057 15.3966 42.3747 15.3276 42.46 15.3276H43.5634C43.6487 15.3276 43.7177 15.3966 43.7177 15.4819C43.7177 15.5672 43.6487 15.6362 43.5634 15.6362Z" fill="black" stroke="black"/>
<path d="M35.1768 25.7966C35.1768 25.7113 35.2458 25.6423 35.3311 25.6423C35.4164 25.6423 35.4854 25.7113 35.4854 25.7966C35.4854 26.8848 34.5993 27.7709 33.5111 27.7709C32.4232 27.7709 31.5371 26.8849 31.5371 25.7966C31.5371 25.7113 31.6061 25.6423 31.6914 25.6423C31.7767 25.6423 31.8457 25.7113 31.8457 25.7966C31.8457 26.7154 32.5921 27.4623 33.5111 27.4623C34.4301 27.4623 35.1768 26.7156 35.1768 25.7966Z" fill="black" stroke="black"/>
<path d="M21.1774 25.8868C21.1774 26.8353 20.4052 27.6075 19.457 27.6075C18.5086 27.6075 17.7363 26.8353 17.7363 25.8868C17.7363 25.8016 17.8053 25.7325 17.8906 25.7325C17.9759 25.7325 18.0449 25.8016 18.0449 25.8868C18.0449 26.6661 18.6782 27.2989 19.457 27.2989C20.2361 27.2989 20.8688 26.6656 20.8688 25.8868C20.8688 25.8015 20.9378 25.7325 21.0231 25.7325C21.1084 25.7325 21.1774 25.8015 21.1774 25.8868Z" fill="black" stroke="black"/>
<path d="M49.3132 25.8868C49.3132 26.8353 48.5409 27.6075 47.5925 27.6075C46.6441 27.6075 45.8721 26.8354 45.8721 25.8868C45.8721 25.8016 45.9411 25.7325 46.0264 25.7325C46.1117 25.7325 46.1807 25.8016 46.1807 25.8868C46.1807 26.6659 46.8135 27.2989 47.5925 27.2989C48.3718 27.2989 49.0046 26.6657 49.0046 25.8868C49.0046 25.8016 49.0736 25.7325 49.1589 25.7325C49.2442 25.7325 49.3132 25.8016 49.3132 25.8868Z" fill="black" stroke="black"/>
</svg>
