<svg width="33" height="41" viewBox="0 0 33 41" fill="none" xmlns="http://www.w3.org/2000/svg">
<g clip-path="url(#clip0_406_1210)">
<path d="M16.5 31.4334C19.4914 31.4334 22.4157 30.5517 24.903 28.8998C27.3903 27.2479 29.3289 24.9 30.4737 22.153C31.6185 19.4061 31.918 16.3834 31.3344 13.4672C30.7508 10.551 29.3103 7.87232 27.195 5.76987C25.0797 3.66742 22.3847 2.23563 19.4507 1.65557C16.5168 1.0755 13.4756 1.37321 10.7119 2.51105C7.94818 3.64889 5.58598 5.57575 3.92402 8.04797C2.26207 10.5202 1.375 13.4267 1.375 16.4C1.375 20.3871 2.96852 24.2109 5.80501 27.0302C8.6415 29.8495 12.4886 31.4334 16.5 31.4334ZM8.64875 16.7964C8.90637 16.5418 9.25487 16.399 9.61813 16.399C9.98138 16.399 10.3299 16.5418 10.5875 16.7964L13.75 19.9397L21.7113 12.0267C21.9743 11.8028 22.3126 11.6858 22.6587 11.6991C23.0048 11.7124 23.333 11.855 23.5779 12.0984C23.8228 12.3418 23.9662 12.668 23.9796 13.012C23.993 13.356 23.8753 13.6923 23.65 13.9537L14.7125 22.837C14.4549 23.0916 14.1064 23.2345 13.7431 23.2345C13.3799 23.2345 13.0314 23.0916 12.7738 22.837L8.64875 18.737C8.51987 18.61 8.41758 18.4588 8.34778 18.2923C8.27797 18.1258 8.24203 17.9471 8.24203 17.7667C8.24203 17.5863 8.27797 17.4077 8.34778 17.2411C8.41758 17.0746 8.51987 16.9234 8.64875 16.7964Z" fill="#1279E0" fill-opacity="0.1"/>
</g>
<defs>
<clipPath id="clip0_406_1210">
<rect width="33" height="41" fill="white"/>
</clipPath>
</defs>
</svg>
