<svg width="31" height="31" viewBox="0 0 31 31" fill="none" xmlns="http://www.w3.org/2000/svg">
<path d="M15.5 30.4334C18.4914 30.4334 21.4157 29.5517 23.903 27.8998C26.3903 26.2479 28.3289 23.9 29.4737 21.153C30.6185 18.4061 30.918 15.3834 30.3344 12.4672C29.7508 9.551 28.3103 6.87232 26.195 4.76987C24.0797 2.66742 21.3847 1.23563 18.4507 0.655567C15.5168 0.0755028 12.4756 0.373213 9.71191 1.51105C6.94818 2.64889 4.58598 4.57575 2.92402 7.04797C1.26207 9.52019 0.375 12.4267 0.375 15.4C0.375 19.3871 1.96852 23.2109 4.80501 26.0302C7.6415 28.8495 11.4886 30.4334 15.5 30.4334ZM7.64875 15.7964C7.90637 15.5418 8.25487 15.399 8.61813 15.399C8.98138 15.399 9.32988 15.5418 9.5875 15.7964L12.75 18.9397L20.7113 11.0267C20.9743 10.8028 21.3126 10.6858 21.6587 10.6991C22.0048 10.7124 22.333 10.855 22.5779 11.0984C22.8228 11.3418 22.9662 11.668 22.9796 12.012C22.993 12.356 22.8753 12.6923 22.65 12.9537L13.7125 21.837C13.4549 22.0916 13.1064 22.2345 12.7431 22.2345C12.3799 22.2345 12.0314 22.0916 11.7738 21.837L7.64875 17.737C7.51987 17.61 7.41758 17.4588 7.34778 17.2923C7.27797 17.1258 7.24203 16.9471 7.24203 16.7667C7.24203 16.5863 7.27797 16.4077 7.34778 16.2411C7.41758 16.0746 7.51987 15.9234 7.64875 15.7964Z" fill="#1279E0"/>
</svg>
