<svg width="64" height="80" viewBox="0 0 64 80" fill="none" xmlns="http://www.w3.org/2000/svg">
<g clip-path="url(#clip0_1061_11)">
<path d="M62 31H61V24.94C60.9844 23.3695 60.3535 21.8677 59.2429 20.7571C58.1323 19.6465 56.6305 19.0156 55.06 19C54.3266 19.0032 53.607 18.8007 52.983 18.4153C52.3589 18.0299 51.8555 17.4772 51.53 16.82L51.22 16.21C52.3583 15.6203 53.3128 14.7293 53.9794 13.6342C54.646 12.5391 54.999 11.282 55 10V8C55 6.14348 54.2625 4.36301 52.9497 3.05025C51.637 1.7375 49.8565 1 48 1C46.1435 1 44.363 1.7375 43.0503 3.05025C41.7375 4.36301 41 6.14348 41 8V10C41.001 11.282 41.354 12.5391 42.0206 13.6342C42.6872 14.7293 43.6417 15.6203 44.78 16.21L44.47 16.82C44.1445 17.4772 43.6411 18.0299 43.017 18.4153C42.393 18.8007 41.6734 19.0032 40.94 19C39.3695 19.0156 37.8677 19.6465 36.7571 20.7571C35.6465 21.8677 35.0156 23.3695 35 24.94V31H27V30C27 29.2044 26.6839 28.4413 26.1213 27.8787C25.5587 27.3161 24.7956 27 24 27H23V25H31C31.7956 25 32.5587 24.6839 33.1213 24.1213C33.6839 23.5587 34 22.7956 34 22V8C34 7.20435 33.6839 6.44129 33.1213 5.87868C32.5587 5.31607 31.7956 5 31 5H7C6.20435 5 5.44129 5.31607 4.87868 5.87868C4.31607 6.44129 4 7.20435 4 8V22C4 22.7956 4.31607 23.5587 4.87868 24.1213C5.44129 24.6839 6.20435 25 7 25H8V26C8 26.2652 7.89464 26.5196 7.70711 26.7071C7.51957 26.8946 7.26522 27 7 27C6.20435 27 5.44129 27.3161 4.87868 27.8787C4.31607 28.4413 4 29.2044 4 30V31H2C1.73478 31 1.48043 31.1054 1.29289 31.2929C1.10536 31.4804 1 31.7348 1 32V38C1 38.2652 1.10536 38.5196 1.29289 38.7071C1.48043 38.8946 1.73478 39 2 39H3V62C3 62.2652 3.10536 62.5196 3.29289 62.7071C3.48043 62.8946 3.73478 63 4 63H60C60.2652 63 60.5196 62.8946 60.7071 62.7071C60.8946 62.5196 61 62.2652 61 62V39H62C62.2652 39 62.5196 38.8946 62.7071 38.7071C62.8946 38.5196 63 38.2652 63 38V32C63 31.7348 62.8946 31.4804 62.7071 31.2929C62.5196 31.1054 62.2652 31 62 31ZM52.71 20.52L51.56 23.42L49.56 21.89L51.56 19.89C51.9181 20.1431 52.3039 20.3545 52.71 20.52ZM43 10V8C43 6.67392 43.5268 5.40215 44.4645 4.46447C45.4021 3.52678 46.6739 3 48 3C49.3261 3 50.5979 3.52678 51.5355 4.46447C52.4732 5.40215 53 6.67392 53 8V10C53 11.3261 52.4732 12.5979 51.5355 13.5355C50.5979 14.4732 49.3261 15 48 15C46.6739 15 45.4021 14.4732 44.4645 13.5355C43.5268 12.5979 43 11.3261 43 10ZM48 17C48.4431 16.9974 48.8849 16.9539 49.32 16.87L49.74 17.71C49.8605 17.9609 50.001 18.2016 50.16 18.43L48 20.59L45.84 18.43C45.999 18.2016 46.1395 17.9609 46.26 17.71L46.68 16.87C47.1151 16.9539 47.5569 16.9974 48 17ZM44.44 19.85L46.44 21.85L44.44 23.38L43.29 20.48C43.6961 20.3145 44.0819 20.1031 44.44 19.85ZM37 24.94C37.0155 23.8999 37.4356 22.9067 38.1711 22.1711C38.9067 21.4356 39.8999 21.0155 40.94 21C41.07 21 41.19 21 41.31 21L43.07 25.4C43.1273 25.5424 43.2167 25.6697 43.3312 25.772C43.4456 25.8743 43.5821 25.9489 43.73 25.99C43.8189 26.0079 43.91 26.0113 44 26C44.2164 26 44.4269 25.9298 44.6 25.8L48 23.25L51.4 25.8C51.5731 25.9298 51.7836 26 52 26C52.0894 26.0146 52.1806 26.0146 52.27 26C52.4179 25.9589 52.5544 25.8843 52.6688 25.782C52.7833 25.6797 52.8727 25.5524 52.93 25.41L54.69 21C54.81 21 54.93 21 55.06 21C56.1001 21.0155 57.0933 21.4356 57.8289 22.1711C58.5644 22.9067 58.9845 23.8999 59 24.94V31H56V27H54V31H42V27H40V31H37V24.94ZM25 30V31H13V30C13 29.7348 13.1054 29.4804 13.2929 29.2929C13.4804 29.1054 13.7348 29 14 29H24C24.2652 29 24.5196 29.1054 24.7071 29.2929C24.8946 29.4804 25 29.7348 25 30ZM17 27V19C17 18.4696 17.2107 17.9609 17.5858 17.5858C17.9609 17.2107 18.4696 17 19 17C19.5304 17 20.0391 17.2107 20.4142 17.5858C20.7893 17.9609 21 18.4696 21 19V27H17ZM6 22V8C6 7.73478 6.10536 7.48043 6.29289 7.29289C6.48043 7.10536 6.73478 7 7 7H31C31.2652 7 31.5196 7.10536 31.7071 7.29289C31.8946 7.48043 32 7.73478 32 8V22C32 22.2652 31.8946 22.5196 31.7071 22.7071C31.5196 22.8946 31.2652 23 31 23H23V19C23 17.9391 22.5786 16.9217 21.8284 16.1716C21.0783 15.4214 20.0609 15 19 15C17.9391 15 16.9217 15.4214 16.1716 16.1716C15.4214 16.9217 15 17.9391 15 19V23H7C6.73478 23 6.48043 22.8946 6.29289 22.7071C6.10536 22.5196 6 22.2652 6 22ZM6 30C6 29.7348 6.10536 29.4804 6.29289 29.2929C6.48043 29.1054 6.73478 29 7 29C7.79565 29 8.55871 28.6839 9.12132 28.1213C9.68393 27.5587 10 26.7956 10 26V25H15V27H14C13.2044 27 12.4413 27.3161 11.8787 27.8787C11.3161 28.4413 11 29.2044 11 30V31H6V30ZM5 61V59H59V61H5ZM59 57H5V39H59V57ZM61 37H3V33H61V37Z" fill="#1279E0"/>
<path d="M20 55H44C44.2652 55 44.5196 54.8946 44.7071 54.7071C44.8946 54.5196 45 54.2652 45 54V42C45 41.7348 44.8946 41.4804 44.7071 41.2929C44.5196 41.1054 44.2652 41 44 41H20C19.7348 41 19.4804 41.1054 19.2929 41.2929C19.1054 41.4804 19 41.7348 19 42V54C19 54.2652 19.1054 54.5196 19.2929 54.7071C19.4804 54.8946 19.7348 55 20 55ZM21 43H43V53H21V43Z" fill="#1279E0"/>
<path d="M41 45H23V47H41V45Z" fill="#1279E0"/>
<path d="M41 49H23V51H41V49Z" fill="#1279E0"/>
</g>
<defs>
<clipPath id="clip0_1061_11">
<rect width="64" height="80" fill="white"/>
</clipPath>
</defs>
</svg>
