<svg width="73" height="91" viewBox="0 0 73 91" fill="none" xmlns="http://www.w3.org/2000/svg">
<path d="M62.2697 24.1696C59.4957 12.3032 48.7647 3.8584 36.5007 3.8584C24.1637 3.8584 13.5057 12.3032 10.7317 24.1696C6.13266 25.6984 2.84766 29.9208 2.84766 34.944V46.0096C2.84766 51.324 6.57066 55.7648 11.5347 57.0024C14.2357 62.608 19.7837 66.1752 26.1347 66.1752H29.7847C30.4417 68.3592 32.4857 69.9608 34.8947 69.9608H38.8367C41.8297 69.9608 44.2387 67.5584 44.2387 64.5736C44.2387 61.5888 41.8297 59.1864 38.8367 59.1864H34.8947C32.7047 59.1864 30.8067 60.4968 29.9307 62.3896H26.0617C21.9007 62.3896 18.1777 60.3512 15.9147 57.0752C18.6887 56.3472 20.8057 53.7992 20.8057 50.7416V30.1392C20.8057 26.7176 18.1047 23.8784 14.7467 23.5872C17.6667 14.196 26.4267 7.5712 36.4277 7.5712C46.5017 7.5712 55.2617 14.196 58.1087 23.5872C54.7507 23.8784 52.0497 26.6448 52.0497 30.1392V50.7416C52.0497 54.3816 54.9697 57.2936 58.6197 57.2936C64.8977 57.2936 70.0077 52.1976 70.0077 45.9368V34.944C70.0807 29.9208 66.7957 25.6984 62.2697 24.1696ZM34.9677 62.972H38.9097C39.7857 62.972 40.5157 63.7 40.5157 64.5736C40.5157 65.4472 39.7857 66.1752 38.9097 66.1752H34.9677C34.0917 66.1752 33.3617 65.4472 33.3617 64.5736C33.3617 63.6272 34.0187 62.972 34.9677 62.972ZM17.0827 30.1392V50.7416C17.0827 52.2704 15.8417 53.508 14.3087 53.508C10.1477 53.508 6.71666 50.0864 6.71666 45.9368V34.944C6.71666 30.7944 10.1477 27.3728 14.3087 27.3728C15.7687 27.3728 17.0827 28.6104 17.0827 30.1392ZM66.2847 46.0096C66.2847 50.1592 62.8537 53.5808 58.6927 53.5808C57.1597 53.5808 55.9187 52.3432 55.9187 50.8144V30.1392C55.9187 28.6104 57.1597 27.3728 58.6927 27.3728C62.8537 27.3728 66.2847 30.7944 66.2847 34.944V46.0096Z" fill="#1279E0"/>
</svg>
