<svg width="64" height="80" viewBox="0 0 64 80" fill="none" xmlns="http://www.w3.org/2000/svg">
<g clip-path="url(#clip0_1061_22)">
<path d="M58 10V12C58.5304 12 59.0391 12.2107 59.4142 12.5858C59.7893 12.9609 60 13.4696 60 14V44H4V14C4 13.4696 4.21071 12.9609 4.58579 12.5858C4.96086 12.2107 5.46957 12 6 12V10C4.93913 10 3.92172 10.4214 3.17157 11.1716C2.42143 11.9217 2 12.9391 2 14V48C2 49.0609 2.42143 50.0783 3.17157 50.8284C3.92172 51.5786 4.93913 52 6 52H25.656L23.256 60H21V62H43V60H40.744L38.344 52H58C59.0609 52 60.0783 51.5786 60.8284 50.8284C61.5786 50.0783 62 49.0609 62 48V14C62 12.9391 61.5786 11.9217 60.8284 11.1716C60.0783 10.4214 59.0609 10 58 10ZM38.656 60H25.344L27.744 52H36.256L38.656 60ZM60 48C60 48.5304 59.7893 49.0391 59.4142 49.4142C59.0391 49.7893 58.5304 50 58 50H6C5.46957 50 4.96086 49.7893 4.58579 49.4142C4.21071 49.0391 4 48.5304 4 48V46H60V48Z" fill="#1279E0"/>
<path d="M56 42V6C56 4.93913 55.5786 3.92172 54.8284 3.17157C54.0783 2.42143 53.0609 2 52 2H12C10.9391 2 9.92172 2.42143 9.17157 3.17157C8.42143 3.92172 8 4.93913 8 6V42H10V6C10 5.46957 10.2107 4.96086 10.5858 4.58579C10.9609 4.21071 11.4696 4 12 4H52C52.5304 4 53.0391 4.21071 53.4142 4.58579C53.7893 4.96086 54 5.46957 54 6V42H56Z" fill="#1279E0"/>
<path d="M14 6H12V8H14V6Z" fill="#1279E0"/>
<path d="M18 6H16V8H18V6Z" fill="#1279E0"/>
<path d="M22 6H20V8H22V6Z" fill="#1279E0"/>
<path d="M52 10H12V12H52V10Z" fill="#1279E0"/>
<path d="M23 24C23.2652 24 23.5196 23.8946 23.7071 23.7071C23.8946 23.5196 24 23.2652 24 23V15C24 14.7348 23.8946 14.4804 23.7071 14.2929C23.5196 14.1054 23.2652 14 23 14H13C12.7348 14 12.4804 14.1054 12.2929 14.2929C12.1054 14.4804 12 14.7348 12 15V23C12 23.2652 12.1054 23.5196 12.2929 23.7071C12.4804 23.8946 12.7348 24 13 24H23ZM14 16H22V22H14V16Z" fill="#1279E0"/>
<path d="M34 14H26V16H34V14Z" fill="#1279E0"/>
<path d="M42 18H26V20H42V18Z" fill="#1279E0"/>
<path d="M34 22H26V24H34V22Z" fill="#1279E0"/>
<path d="M52 26H12V28H52V26Z" fill="#1279E0"/>
<path d="M52 18H44V20H52V18Z" fill="#1279E0"/>
<path d="M50 22H36V24H50V22Z" fill="#1279E0"/>
<path d="M13 30C12.7348 30 12.4804 30.1054 12.2929 30.2929C12.1054 30.4804 12 30.7348 12 31V39C12 39.2652 12.1054 39.5196 12.2929 39.7071C12.4804 39.8946 12.7348 40 13 40H23C23.2652 40 23.5196 39.8946 23.7071 39.7071C23.8946 39.5196 24 39.2652 24 39V31C24 30.7348 23.8946 30.4804 23.7071 30.2929C23.5196 30.1054 23.2652 30 23 30H13ZM22 38H14V32H22V38Z" fill="#1279E0"/>
<path d="M34 30H26V32H34V30Z" fill="#1279E0"/>
<path d="M42 34H26V36H42V34Z" fill="#1279E0"/>
<path d="M34 38H26V40H34V38Z" fill="#1279E0"/>
<path d="M52 34H44V36H52V34Z" fill="#1279E0"/>
<path d="M50 38H36V40H50V38Z" fill="#1279E0"/>
</g>
<defs>
<clipPath id="clip0_1061_22">
<rect width="64" height="80" fill="white"/>
</clipPath>
</defs>
</svg>
