<svg width="50" height="63" viewBox="0 0 50 63" fill="none" xmlns="http://www.w3.org/2000/svg">
<g clip-path="url(#clip0_282_35)">
<path d="M46.0938 49.6125H28.9062C28.0774 49.6125 27.2826 49.2806 26.6965 48.6899C26.1105 48.0991 25.7812 47.2979 25.7812 46.4625V41.8399C25.7859 41.2915 25.9325 40.7538 26.2065 40.2801C26.4806 39.8063 26.8726 39.4129 27.3438 39.1387L32.375 36.099C32.9728 35.7397 33.6725 35.5918 34.3631 35.6788C35.0538 35.7658 35.6958 36.0828 36.1875 36.5794L37.5 37.9496L38.9219 36.5164C39.4205 36.0135 40.0733 35.6954 40.774 35.6139C41.4747 35.5324 42.1821 35.6923 42.7812 36.0675L47.7266 39.1466C48.1824 39.4282 48.5589 39.8229 48.8202 40.2931C49.0814 40.7632 49.2187 41.2931 49.2188 41.832V46.4625C49.2188 47.2979 48.8895 48.0991 48.3035 48.6899C47.7174 49.2806 46.9226 49.6125 46.0938 49.6125ZM33.9375 38.808L28.9062 41.8399V46.4625H46.0938V41.832L41.1406 38.745L39.7188 40.1625C39.1329 40.7516 38.3392 41.0824 37.5117 41.0824C36.6842 41.0824 35.8905 40.7516 35.3047 40.1625L33.9375 38.808Z" fill="white"/>
<path d="M37.5 35.532C36.4076 35.532 35.3397 35.2055 34.4313 34.5937C33.523 33.9819 32.8151 33.1124 32.397 32.095C31.979 31.0777 31.8696 29.9582 32.0827 28.8782C32.2958 27.7982 32.8219 26.8061 33.5943 26.0275C34.3668 25.2488 35.351 24.7186 36.4224 24.5037C37.4939 24.2889 38.6045 24.3992 39.6137 24.8206C40.623 25.242 41.4857 25.9556 42.0926 26.8712C42.6995 27.7868 43.0234 28.8632 43.0234 29.9644C43.0234 31.441 42.4415 32.8571 41.4057 33.9013C40.3698 34.9454 38.9649 35.532 37.5 35.532ZM37.5 27.5625C37.0253 27.5625 36.5613 27.7045 36.1667 27.9705C35.7721 28.2365 35.4647 28.6145 35.2834 29.0568C35.1021 29.499 35.0551 29.9855 35.1482 30.4547C35.2414 30.9239 35.4706 31.3546 35.8068 31.6924C36.143 32.0302 36.5711 32.2599 37.0369 32.3522C37.5027 32.4446 37.9852 32.3956 38.4233 32.2114C38.8614 32.0273 39.2354 31.7162 39.498 31.3175C39.7606 30.9189 39.9 30.4507 39.8984 29.9722C39.8964 29.3324 39.6428 28.7195 39.1932 28.2678C38.7436 27.8161 38.1348 27.5625 37.5 27.5625Z" fill="white"/>
<path d="M21.0938 25.2H3.90625C3.07745 25.2 2.28259 24.8681 1.69654 24.2774C1.11049 23.6866 0.78125 22.8854 0.78125 22.05V17.4274C0.7859 16.879 0.932497 16.3413 1.20654 15.8676C1.48059 15.3938 1.87258 15.0004 2.34375 14.7262L7.375 11.6865C7.9728 11.3272 8.6725 11.1793 9.36314 11.2663C10.0538 11.3533 10.6958 11.6703 11.1875 12.1669L12.5 13.5371L13.9219 12.1039C14.4205 11.601 15.0732 11.2829 15.774 11.2014C16.4747 11.1199 17.1821 11.2798 17.7812 11.655L22.7266 14.7341C23.1824 15.0157 23.5589 15.4104 23.8202 15.8806C24.0814 16.3508 24.2187 16.8806 24.2188 17.4195V22.05C24.2188 22.8854 23.8895 23.6866 23.3035 24.2774C22.7174 24.8681 21.9226 25.2 21.0938 25.2ZM8.9375 14.3955L3.90625 17.4274V22.05H21.0938V17.4195L16.1406 14.3325L14.7188 15.75C14.1329 16.3391 13.3392 16.6699 12.5117 16.6699C11.6842 16.6699 10.8905 16.3391 10.3047 15.75L8.9375 14.3955Z" fill="white"/>
<path d="M12.5 11.1195C11.4076 11.1195 10.3397 10.793 9.43134 10.1812C8.52302 9.56941 7.81507 8.69987 7.39701 7.68252C6.97896 6.66517 6.86957 5.5457 7.0827 4.46569C7.29582 3.38568 7.82188 2.39362 8.59434 1.61497C9.36681 0.836329 10.351 0.306064 11.4224 0.0912358C12.4939 -0.123592 13.6045 -0.0133347 14.6137 0.408066C15.623 0.829466 16.4856 1.54308 17.0926 2.45867C17.6995 3.37426 18.0234 4.45071 18.0234 5.55188C18.0234 6.28303 17.8806 7.00702 17.603 7.68252C17.3254 8.35801 16.9186 8.97178 16.4057 9.48879C15.3698 10.5329 13.9649 11.1195 12.5 11.1195ZM12.5 3.15001C12.0253 3.15001 11.5613 3.292 11.1667 3.558C10.7721 3.824 10.4647 4.20205 10.2834 4.64427C10.1021 5.0865 10.0551 5.573 10.1482 6.04219C10.2414 6.51138 10.4706 6.94214 10.8068 7.27994C11.143 7.61773 11.5711 7.84736 12.0369 7.93976C12.5027 8.03215 12.9852 7.98315 13.4233 7.79896C13.8614 7.61476 14.2354 7.30367 14.498 6.90505C14.7606 6.50644 14.9 6.03825 14.8984 5.55976C14.8964 4.91993 14.6428 4.30702 14.1932 3.85532C13.7436 3.40363 13.1348 3.15 12.5 3.15001Z" fill="white"/>
<path d="M21.6953 46.305C17.4389 45.7823 13.4407 43.9673 10.2315 41.1009C7.02223 38.2345 4.75355 34.4521 3.72652 30.2557C3.67896 30.0452 3.67483 29.8271 3.7144 29.615C3.75397 29.4028 3.83639 29.2011 3.95654 29.0224C4.07669 28.8437 4.23201 28.6918 4.41285 28.5761C4.59369 28.4604 4.79619 28.3835 5.00777 28.35C5.3932 28.2891 5.78731 28.3757 6.11259 28.5928C6.43788 28.8099 6.67081 29.1419 6.76558 29.5234C7.63847 33.0936 9.56872 36.3115 12.2997 38.7493C15.0307 41.187 18.4331 42.7292 22.0546 43.1707L21.6953 46.305Z" fill="white"/>
<path d="M17.9688 48.825C17.8161 48.6861 17.6921 48.5182 17.604 48.3309C17.5158 48.1436 17.4652 47.9406 17.455 47.7336C17.4449 47.5265 17.4754 47.3195 17.5448 47.1244C17.6141 46.9292 17.7211 46.7498 17.8594 46.5964L20.3125 43.8716L17.9688 41.6036C17.8235 41.4574 17.7083 41.2837 17.6296 41.0925C17.551 40.9013 17.5105 40.6963 17.5105 40.4893C17.5105 40.2823 17.551 40.0774 17.6296 39.8862C17.7083 39.695 17.8235 39.5213 17.9688 39.375C18.1139 39.2286 18.2862 39.1124 18.4759 39.0331C18.6656 38.9539 18.8689 38.9131 19.0742 38.9131C19.2796 38.9131 19.4829 38.9539 19.6726 39.0331C19.8623 39.1124 20.0346 39.2286 20.1797 39.375L23.586 42.7061C23.8738 42.9912 24.0411 43.3775 24.0527 43.7841C24.0644 44.1908 23.9195 44.5862 23.6485 44.8875L20.1797 48.7384C20.0403 48.8907 19.8725 49.0137 19.6859 49.1005C19.4992 49.1873 19.2975 49.2361 19.0921 49.2441C18.8867 49.2522 18.6818 49.2193 18.489 49.1474C18.2962 49.0755 18.1195 48.9659 17.9688 48.825Z" fill="white"/>
<path d="M43.2344 20.8845C42.3629 17.3128 40.4332 14.0932 37.7021 11.6539C34.971 9.21464 31.5678 7.67133 27.9453 7.22925L28.3047 4.07925C32.5615 4.60086 36.5601 6.41547 39.7696 9.28207C42.979 12.1487 45.2474 15.9316 46.2734 20.1285C46.3234 20.3401 46.3294 20.5598 46.291 20.7738C46.2526 20.9879 46.1706 21.1916 46.0503 21.3721C45.9299 21.5526 45.7737 21.706 45.5916 21.8227C45.4095 21.9394 45.2054 22.0168 44.9922 22.05C44.6078 22.1113 44.2146 22.0257 43.8895 21.8102C43.5644 21.5946 43.3308 21.2645 43.2344 20.8845Z" fill="white"/>
<path d="M29.8205 11.025L26.4143 7.72538C26.1172 7.43899 25.944 7.0461 25.9323 6.63188C25.9206 6.21765 26.0713 5.81547 26.3518 5.51251L29.8205 1.66163C29.9599 1.50937 30.1277 1.38632 30.3144 1.29954C30.501 1.21276 30.7028 1.16394 30.9082 1.1559C31.1135 1.14785 31.3185 1.18073 31.5112 1.25265C31.704 1.32456 31.8808 1.43411 32.0315 1.57501C32.1841 1.7139 32.3081 1.8818 32.3963 2.06909C32.4844 2.25638 32.535 2.45938 32.5452 2.66643C32.5554 2.87348 32.5249 3.08051 32.4555 3.27566C32.3861 3.47081 32.2792 3.65023 32.1408 3.80363L29.6877 6.52838L32.0315 8.79638C32.1767 8.94266 32.292 9.11636 32.3706 9.30756C32.4492 9.49876 32.4897 9.70371 32.4897 9.91069C32.4897 10.1177 32.4492 10.3226 32.3706 10.5138C32.292 10.705 32.1767 10.8787 32.0315 11.025C31.8863 11.1714 31.714 11.2876 31.5243 11.3669C31.3347 11.4461 31.1313 11.4869 30.926 11.4869C30.7207 11.4869 30.5173 11.4461 30.3276 11.3669C30.138 11.2876 29.9656 11.1714 29.8205 11.025Z" fill="white"/>
</g>
<defs>
<clipPath id="clip0_282_35">
<rect width="50" height="63" fill="white"/>
</clipPath>
</defs>
</svg>
