<svg width="52" height="54" viewBox="0 0 52 54" fill="none" xmlns="http://www.w3.org/2000/svg">
<g clip-path="url(#clip0_282_66)">
<path d="M33.5888 21.9682L48.3927 2.33182H41.4262C37.0721 8.1 32.8424 14.1136 28.2396 19.6364C30.23 20.0045 32.096 20.8636 33.5888 22.0909V21.9682ZM35.2061 23.5636C36.9477 25.65 38.0673 28.35 38.0673 31.2955C38.0673 37.9227 32.5936 43.2 26.0003 43.2C19.2826 43.2 13.9333 37.8 13.9333 31.2955C13.9333 28.35 15.053 25.65 16.7946 23.5636L0.24913 1.47273C-0.248477 0.859092 0.249131 -0.122726 0.995542 -0.122726H11.6941C12.5649 1.10455 25.8759 18.5318 26.0003 18.5318C26.2491 18.5318 39.0625 1.47273 40.3065 -0.122726H51.0051C51.7515 -0.122726 52.2491 0.736364 51.7515 1.47273L35.2061 23.5636ZM18.2874 21.9682C19.7802 20.7409 21.6463 19.8818 23.6367 19.5136C19.0338 13.9909 14.8042 7.97727 10.4501 2.20909H3.48358L18.2874 21.8455V21.9682ZM18.0386 25.5273C16.7946 27.1227 16.0482 29.2091 16.0482 31.2955C16.0482 36.6955 20.4022 40.9909 25.8759 40.9909C31.3496 40.9909 35.7037 36.6955 35.7037 31.2955C35.7037 28.8409 34.8329 26.6318 33.34 24.9136C28.1152 19.8818 21.7707 20.9864 18.163 25.4045L18.0386 25.5273Z" fill="white"/>
</g>
<defs>
<clipPath id="clip0_282_66">
<rect width="52" height="54" fill="white"/>
</clipPath>
</defs>
</svg>
