<svg width="60" height="75" viewBox="0 0 60 75" fill="none" xmlns="http://www.w3.org/2000/svg">
<g clip-path="url(#clip0_282_48)">
<path d="M30.7125 45.0937H0.9375C0.68886 45.0937 0.450403 44.995 0.274587 44.8192C0.0987721 44.6433 0 44.4049 0 44.1562V14.7984C0 14.5498 0.0987721 14.3113 0.274587 14.1355C0.450403 13.9597 0.68886 13.8609 0.9375 13.8609H5.32969C5.57833 13.8609 5.81678 13.9597 5.9926 14.1355C6.16842 14.3113 6.26719 14.5498 6.26719 14.7984C6.26719 15.0471 6.16842 15.2855 5.9926 15.4613C5.81678 15.6372 5.57833 15.7359 5.32969 15.7359H1.875V43.2187H30.7125C30.9611 43.2187 31.1996 43.3175 31.3754 43.4933C31.5512 43.6691 31.65 43.9076 31.65 44.1562C31.65 44.4049 31.5512 44.6433 31.3754 44.8192C31.1996 44.995 30.9611 45.0937 30.7125 45.0937Z" fill="white"/>
<path d="M13.6736 41.4188H4.85645C4.6078 41.4188 4.36935 41.32 4.19353 41.1442C4.01772 40.9684 3.91895 40.7299 3.91895 40.4813C3.91895 40.2326 4.01772 39.9942 4.19353 39.8183C4.36935 39.6425 4.6078 39.5438 4.85645 39.5438H13.6736C13.9223 39.5438 14.1607 39.6425 14.3365 39.8183C14.5124 39.9942 14.6111 40.2326 14.6111 40.4813C14.6111 40.7299 14.5124 40.9684 14.3365 41.1442C14.1607 41.32 13.9223 41.4188 13.6736 41.4188Z" fill="white"/>
<path d="M30.7173 39.5391C30.6365 39.5385 30.5562 39.5274 30.4782 39.5063L4.4204 32.6859C4.17986 32.6231 3.9741 32.4674 3.8484 32.2529C3.7227 32.0384 3.68733 31.7828 3.75009 31.5422L10.8751 4.31719C10.9379 4.07665 11.0937 3.87089 11.3082 3.74519C11.5226 3.61949 11.7783 3.58412 12.0188 3.64688L59.3017 16.0219C59.5422 16.0847 59.748 16.2405 59.8737 16.4549C59.9994 16.6694 60.0347 16.9251 59.972 17.1656L55.9782 32.4188C55.9087 32.651 55.7519 32.8474 55.5407 32.9665C55.3295 33.0856 55.0803 33.1182 54.8456 33.0576C54.6108 32.9969 54.4087 32.8477 54.2816 32.6411C54.1546 32.4346 54.1125 32.1869 54.1642 31.95L57.9142 17.6016L12.4454 5.70001L5.79853 31.1109L30.9376 37.6922C31.1559 37.7515 31.3454 37.8877 31.4712 38.0757C31.597 38.2637 31.6505 38.4909 31.622 38.7153C31.5934 38.9397 31.4847 39.1462 31.3159 39.2967C31.147 39.4473 30.9294 39.5317 30.7032 39.5344L30.7173 39.5391Z" fill="white"/>
<path d="M19.9589 36.7219C19.8152 36.7223 19.6733 36.6897 19.5442 36.6266C19.4151 36.5634 19.3022 36.4714 19.2143 36.3577C19.1264 36.244 19.0658 36.1116 19.0373 35.9707C19.0087 35.8298 19.0129 35.6843 19.0495 35.5453L26.1699 8.35782C26.2394 8.12553 26.3962 7.92922 26.6074 7.8101C26.8186 7.69099 27.0678 7.65833 27.3025 7.71899C27.5373 7.77966 27.7394 7.92892 27.8665 8.13544C27.9935 8.34195 28.0356 8.58967 27.9839 8.82657L20.8636 36.0141C20.8127 36.2157 20.6961 36.3946 20.5324 36.5228C20.3686 36.6509 20.1669 36.7209 19.9589 36.7219Z" fill="white"/>
<path d="M47.7421 22.1531C47.5984 22.1536 47.4565 22.1209 47.3274 22.0578C47.1983 21.9947 47.0854 21.9027 46.9975 21.7889C46.9096 21.6752 46.849 21.5428 46.8205 21.4019C46.7919 21.2611 46.7961 21.1155 46.8328 20.9766L48.6093 14.1797C48.6789 13.9474 48.8357 13.7511 49.0469 13.632C49.2581 13.5129 49.5072 13.4802 49.742 13.5409C49.9767 13.6015 50.1789 13.7508 50.3059 13.9573C50.433 14.1638 50.4751 14.4115 50.4234 14.6484L48.6468 21.4453C48.5959 21.6469 48.4793 21.8259 48.3156 21.954C48.1518 22.0821 47.9501 22.1522 47.7421 22.1531Z" fill="white"/>
<path d="M22.7339 11.8734C22.6531 11.8728 22.5728 11.8618 22.4948 11.8406L18.8011 10.875C18.6779 10.8481 18.5614 10.7966 18.4585 10.7237C18.3556 10.6507 18.2686 10.5577 18.2025 10.4503C18.1364 10.3429 18.0927 10.2232 18.0739 10.0985C18.0551 9.97382 18.0617 9.8466 18.0933 9.7245C18.1248 9.6024 18.1807 9.48792 18.2575 9.38791C18.3344 9.2879 18.4306 9.20442 18.5404 9.14247C18.6503 9.08051 18.7715 9.04136 18.8968 9.02735C19.0222 9.01334 19.149 9.02476 19.2698 9.06093L22.9683 10.0312C23.1907 10.087 23.385 10.2223 23.5144 10.4116C23.6439 10.601 23.6994 10.8312 23.6705 11.0587C23.6416 11.2862 23.5304 11.4952 23.3578 11.6462C23.1852 11.7972 22.9632 11.8797 22.7339 11.8781V11.8734Z" fill="white"/>
<path d="M17.3437 32.4C17.2629 32.3994 17.1825 32.3884 17.1046 32.3672L8.94367 30.2297C8.82046 30.2028 8.70393 30.1513 8.60108 30.0784C8.49822 30.0054 8.41115 29.9124 8.34507 29.805C8.27898 29.6976 8.23525 29.5779 8.21649 29.4532C8.19773 29.3285 8.20432 29.2013 8.23587 29.0792C8.26742 28.9571 8.32328 28.8426 8.40011 28.7426C8.47694 28.6426 8.57316 28.5591 8.683 28.4972C8.79285 28.4352 8.91407 28.3961 9.0394 28.3821C9.16473 28.368 9.2916 28.3795 9.41242 28.4156L17.5921 30.5578C17.8146 30.6135 18.0089 30.7489 18.1383 30.9382C18.2677 31.1275 18.3232 31.3577 18.2943 31.5852C18.2655 31.8127 18.1542 32.0218 17.9816 32.1728C17.809 32.3238 17.5871 32.4063 17.3577 32.4047L17.3437 32.4Z" fill="white"/>
<path d="M34.5137 52.5609C34.265 52.5609 34.0266 52.4622 33.8508 52.2863C33.6749 52.1105 33.5762 51.8721 33.5762 51.6234V28.0359C33.5762 27.7873 33.6749 27.5488 33.8508 27.373C34.0266 27.1972 34.265 27.0984 34.5137 27.0984C34.7623 27.0984 35.0008 27.1972 35.1766 27.373C35.3524 27.5488 35.4512 27.7873 35.4512 28.0359V51.6234C35.4512 51.8721 35.3524 52.1105 35.1766 52.2863C35.0008 52.4622 34.7623 52.5609 34.5137 52.5609Z" fill="white"/>
<path d="M51.9189 52.5609C51.6703 52.5609 51.4318 52.4622 51.256 52.2863C51.0802 52.1105 50.9814 51.8721 50.9814 51.6234V28.0359C50.9814 27.7873 51.0802 27.5488 51.256 27.373C51.4318 27.1972 51.6703 27.0984 51.9189 27.0984C52.1676 27.0984 52.406 27.1972 52.5819 27.373C52.7577 27.5488 52.8564 27.7873 52.8564 28.0359V51.6234C52.8564 51.8721 52.7577 52.1105 52.5819 52.2863C52.406 52.4622 52.1676 52.5609 51.9189 52.5609Z" fill="white"/>
<path d="M43.2145 32.4C37.716 32.4 33.5723 30.3562 33.5723 27.6422C33.5723 24.9281 37.716 22.8844 43.2145 22.8844C48.7129 22.8844 52.8566 24.9281 52.8566 27.6562C52.8566 30.3844 48.7129 32.4 43.2145 32.4ZM43.2145 24.7594C38.4754 24.7594 35.4473 26.4656 35.4473 27.6422C35.4473 28.8187 38.4707 30.525 43.2145 30.525C47.9582 30.525 50.9816 28.8187 50.9816 27.6422C50.9816 26.4656 47.9582 24.7594 43.2145 24.7594Z" fill="white"/>
<path d="M43.2145 56.3813C37.716 56.3813 33.5723 54.3375 33.5723 51.6234C33.5723 51.3748 33.671 51.1363 33.8469 50.9605C34.0227 50.7847 34.2611 50.6859 34.5098 50.6859C34.7584 50.6859 34.9969 50.7847 35.1727 50.9605C35.3485 51.1363 35.4473 51.3748 35.4473 51.6234C35.4473 52.8 38.4707 54.5063 43.2145 54.5063C47.9582 54.5063 50.9816 52.8 50.9816 51.6234C50.9816 51.3748 51.0804 51.1363 51.2562 50.9605C51.432 50.7847 51.6705 50.6859 51.9191 50.6859C52.1678 50.6859 52.4062 50.7847 52.582 50.9605C52.7579 51.1363 52.8566 51.3748 52.8566 51.6234C52.8566 54.3375 48.7129 56.3813 43.2145 56.3813Z" fill="white"/>
<path d="M43.2145 37.1484C37.716 37.1484 33.5723 35.1047 33.5723 32.3906C33.5723 32.142 33.671 31.9035 33.8469 31.7277C34.0227 31.5519 34.2611 31.4531 34.5098 31.4531C34.7584 31.4531 34.9969 31.5519 35.1727 31.7277C35.3485 31.9035 35.4473 32.142 35.4473 32.3906C35.4473 33.5672 38.4707 35.2734 43.2145 35.2734C47.9582 35.2734 50.9816 33.5672 50.9816 32.3906C50.9816 32.142 51.0804 31.9035 51.2562 31.7277C51.432 31.5519 51.6705 31.4531 51.9191 31.4531C52.1678 31.4531 52.4062 31.5519 52.582 31.7277C52.7579 31.9035 52.8566 32.142 52.8566 32.3906C52.8566 35.1047 48.7129 37.1484 43.2145 37.1484Z" fill="white"/>
<path d="M43.2145 51.5625C37.716 51.5625 33.5723 49.5187 33.5723 46.8047C33.5723 46.556 33.671 46.3176 33.8469 46.1418C34.0227 45.966 34.2611 45.8672 34.5098 45.8672C34.7584 45.8672 34.9969 45.966 35.1727 46.1418C35.3485 46.3176 35.4473 46.556 35.4473 46.8047C35.4473 47.9812 38.4707 49.6875 43.2145 49.6875C47.9582 49.6875 50.9816 47.9812 50.9816 46.8047C50.9816 46.556 51.0804 46.3176 51.2562 46.1418C51.432 45.966 51.6705 45.8672 51.9191 45.8672C52.1678 45.8672 52.4062 45.966 52.582 46.1418C52.7579 46.3176 52.8566 46.556 52.8566 46.8047C52.8566 49.5281 48.7129 51.5625 43.2145 51.5625Z" fill="white"/>
<path d="M43.2145 46.7672C37.716 46.7672 33.5723 44.7234 33.5723 42.0094C33.5723 41.7607 33.671 41.5223 33.8469 41.3465C34.0227 41.1706 34.2611 41.0719 34.5098 41.0719C34.7584 41.0719 34.9969 41.1706 35.1727 41.3465C35.3485 41.5223 35.4473 41.7607 35.4473 42.0094C35.4473 43.1859 38.4707 44.8922 43.2145 44.8922C47.9582 44.8922 50.9816 43.1859 50.9816 42.0094C50.9816 41.7607 51.0804 41.5223 51.2562 41.3465C51.432 41.1706 51.6705 41.0719 51.9191 41.0719C52.1678 41.0719 52.4062 41.1706 52.582 41.3465C52.7579 41.5223 52.8566 41.7607 52.8566 42.0094C52.8566 44.7187 48.7129 46.7672 43.2145 46.7672Z" fill="white"/>
<path d="M43.2145 41.9578C37.716 41.9578 33.5723 39.9141 33.5723 37.2C33.5723 36.9514 33.671 36.7129 33.8469 36.5371C34.0227 36.3613 34.2611 36.2625 34.5098 36.2625C34.7584 36.2625 34.9969 36.3613 35.1727 36.5371C35.3485 36.7129 35.4473 36.9514 35.4473 37.2C35.4473 38.3766 38.4707 40.0828 43.2145 40.0828C47.9582 40.0828 50.9816 38.3766 50.9816 37.2C50.9816 36.9514 51.0804 36.7129 51.2562 36.5371C51.432 36.3613 51.6705 36.2625 51.9191 36.2625C52.1678 36.2625 52.4062 36.3613 52.582 36.5371C52.7579 36.7129 52.8566 36.9514 52.8566 37.2C52.8566 39.9141 48.7129 41.9578 43.2145 41.9578Z" fill="white"/>
</g>
<defs>
<clipPath id="clip0_282_48">
<rect width="60" height="75" fill="white"/>
</clipPath>
</defs>
</svg>
