<svg width="179" height="187" viewBox="0 0 179 187" fill="none" xmlns="http://www.w3.org/2000/svg">
<path d="M56.9317 118.705C56.6301 132.864 56.027 147.023 55.4239 161.181C55.1223 166.303 55.1223 171.424 54.8207 176.545C54.8207 178.353 53.916 180.461 53.0114 182.269C50.2973 186.788 43.6629 187.39 39.4411 185.281C37.9332 184.378 37.0286 182.871 37.0286 181.064C37.0286 174.436 37.0286 167.508 37.0286 160.88C37.0286 155.156 37.0286 149.131 37.0286 143.408V139.19H33.7114V143.408C33.7114 149.131 33.7114 155.156 33.7114 160.88C33.7114 167.508 33.7114 174.436 33.7114 181.064C33.7114 182.871 32.8067 184.378 31.2989 185.281C27.077 187.089 20.4426 186.788 17.7285 182.269C16.8239 180.763 15.9192 178.654 15.9192 176.545C15.6176 171.424 15.6176 166.303 15.3161 161.181C14.7129 146.119 14.4114 131.358 13.8082 116.295C13.8082 115.994 13.8082 115.693 13.8082 115.693H13.5067C12.602 115.391 11.6973 115.09 10.7926 114.789C10.4911 114.789 10.4911 114.789 10.1895 114.789C8.98324 114.488 8.07855 114.186 6.8723 113.885C6.8723 113.885 6.57074 113.885 6.57074 113.584C3.25355 112.078 1.14261 109.668 0.539489 105.751C-0.0636364 101.233 1.44418 62.07 2.95199 52.7313C3.25355 51.5263 3.55511 50.3213 3.85668 49.4175C4.76136 48.815 5.66605 48.5138 6.57074 48.2125C10.7926 47.61 14.7129 47.3088 18.9348 46.7063C20.7442 46.405 22.252 46.405 24.0614 46.1038C24.3629 46.1038 24.3629 46.1038 24.6645 46.1038C26.1723 45.8025 27.077 46.7063 27.9817 47.9113C28.8864 49.4175 29.7911 50.6225 30.6957 52.1288L30.9973 52.43C31.902 53.635 32.5051 54.8401 33.4098 56.0451C34.3145 57.2501 34.9176 58.455 35.8223 59.9613C36.727 58.7563 37.6317 57.5513 38.2348 56.0451C39.1395 54.8401 39.7426 53.635 40.6473 52.43L40.9489 52.1288C41.8535 50.6225 42.7582 49.4175 43.6629 47.9113C44.5676 46.7063 45.4723 45.8025 46.9801 46.1038C47.2817 46.1038 47.2817 46.1038 47.5832 46.1038C49.3926 46.405 50.9004 46.405 52.7098 46.7063C52.1067 48.2125 51.5036 50.0201 51.202 51.8276C49.6942 61.4676 48.1864 101.534 48.7895 106.655C48.7895 111.776 51.8051 115.994 56.9317 118.705Z" fill="#1279E0"/>
<path d="M51.5033 16.5815C51.5033 25.619 44.2658 40.079 35.2189 40.079C26.1721 40.079 18.9346 25.619 18.9346 16.5815C18.9346 7.54398 26.1721 0.615234 35.2189 0.615234C44.2658 0.615234 51.5033 7.84523 51.5033 16.5815Z" fill="#1279E0"/>
<path d="M122.069 118.705C122.371 132.864 122.974 147.023 123.577 161.181C123.879 166.303 123.879 171.424 124.18 176.545C124.18 178.353 125.085 180.461 125.99 182.269C128.704 186.788 135.338 187.39 139.56 185.281C141.068 184.378 141.972 182.871 141.972 181.064C141.972 174.436 141.972 167.508 141.972 160.88C141.972 155.156 141.972 149.131 141.972 143.408V139.19H145.29V143.408C145.29 149.131 145.29 155.156 145.29 160.88C145.29 167.508 145.29 174.436 145.29 181.064C145.29 182.871 146.194 184.378 147.702 185.281C151.924 187.089 158.558 186.788 161.272 182.269C162.177 180.763 163.082 178.654 163.082 176.545C163.383 171.424 163.383 166.303 163.685 161.181C164.288 146.119 164.59 131.358 165.193 116.295C165.193 115.994 165.193 115.693 165.193 115.693H165.494C166.399 115.391 167.304 115.09 168.208 114.789C168.51 114.789 168.51 114.789 168.811 114.789C170.018 114.488 170.922 114.186 172.129 113.885C172.129 113.885 172.43 113.885 172.43 113.584C175.747 112.078 177.858 109.668 178.461 105.751C179.065 101.233 177.557 62.07 176.049 52.7313C175.747 51.5263 175.446 50.3213 175.144 49.4175C174.24 48.815 173.335 48.5138 172.43 48.2125C168.208 47.61 164.288 47.3088 160.066 46.7063C158.257 46.405 156.749 46.405 154.94 46.1038C154.638 46.1038 154.638 46.1038 154.337 46.1038C152.829 45.8025 151.924 46.7063 151.019 47.9113C150.115 49.4175 149.21 50.6225 148.305 52.1288L148.004 52.43C147.099 53.635 146.496 54.8401 145.591 56.0451C144.687 57.2501 144.083 58.455 143.179 59.9613C142.274 58.7563 141.369 57.5513 140.766 56.0451C139.862 54.8401 139.258 53.635 138.354 52.43L138.052 52.1288C137.147 50.6225 136.243 49.4175 135.338 47.9113C134.433 46.7063 133.529 45.8025 132.021 46.1038C131.719 46.1038 131.719 46.1038 131.418 46.1038C129.608 46.405 128.101 46.405 126.291 46.7063C126.894 48.2125 127.497 50.0201 127.799 51.8276C129.307 61.4676 130.815 101.534 130.212 106.655C130.212 111.776 127.196 115.994 122.069 118.705Z" fill="#1279E0"/>
<path d="M127.498 16.5815C127.498 25.619 134.736 40.079 143.782 40.079C152.829 40.079 160.067 25.3177 160.067 16.5815C160.067 7.84523 152.829 0.615234 143.782 0.615234C134.736 0.615234 127.498 7.84523 127.498 16.5815Z" fill="#1279E0"/>
<path d="M84.9768 68.0952L70.2002 46.7065C71.1049 46.7065 72.0096 46.4052 72.9143 46.4052C74.7236 46.104 76.2314 46.104 78.0408 45.8027C78.3424 45.8027 78.3424 45.8027 78.6439 45.8027C78.6439 45.8027 78.6439 45.8027 78.9455 45.8027C80.4533 45.8027 81.358 46.4052 81.9611 47.6102C82.8658 49.1165 83.7705 50.3215 84.6752 51.8277L84.9768 52.129C85.8814 53.334 86.4846 54.539 87.3893 55.744C88.2939 56.949 88.8971 58.154 89.8018 59.359C89.8018 59.359 89.8018 59.359 89.8018 59.6602C90.7064 58.4552 91.6111 57.2502 92.2143 55.744C93.119 54.539 93.7221 53.334 94.6268 52.129L94.9283 51.8277C95.833 50.3215 96.7377 49.1165 97.6424 47.6102C98.2455 46.7065 98.8486 46.104 100.055 45.8027C100.356 45.8027 100.658 45.8027 100.96 45.8027C101.261 45.8027 101.261 45.8027 101.563 45.8027C102.166 45.8027 102.769 45.8027 103.372 46.104C104.578 46.104 105.483 46.4052 106.689 46.4052C107.292 46.4052 108.197 46.7065 108.8 46.7065L93.7221 68.3965C92.5158 67.4927 90.7064 67.1915 89.1986 67.1915C87.3893 67.1915 85.8814 67.4927 84.9768 68.0952Z" fill="#1279E0"/>
<path d="M124.482 105.45C123.879 109.366 121.768 111.776 118.451 113.282C118.451 113.282 118.149 113.282 118.149 113.584C117.546 113.885 117.244 113.885 116.641 114.186C116.038 114.487 115.435 114.487 114.832 114.789C114.53 114.789 114.53 114.789 114.229 114.789C113.324 115.09 112.419 115.391 111.515 115.692H111.213C111.213 115.692 111.213 115.994 111.213 116.295C110.61 131.357 110.308 146.119 109.705 161.181C109.404 166.302 109.404 171.424 109.102 176.545C109.102 178.352 108.197 180.461 107.293 182.269C106.388 183.775 104.88 184.98 103.071 185.582C102.769 185.582 102.166 185.884 101.865 185.884C101.563 185.884 101.563 185.884 101.262 185.884C100.96 185.884 100.357 185.884 100.055 186.185C99.4522 186.185 98.849 186.185 98.2459 186.185C96.7381 186.185 95.2303 185.884 93.7225 185.281C92.2147 184.377 91.31 182.871 91.31 181.064C91.31 174.436 91.31 167.507 91.31 160.88C91.31 155.156 91.31 149.131 91.31 143.407V139.19H87.9928V143.407C87.9928 149.131 87.9928 155.156 87.9928 160.88C87.9928 167.507 87.9928 174.436 87.9928 181.064C87.9928 182.871 87.0881 184.377 85.5803 185.281C84.0725 185.884 81.9615 186.486 80.1522 186.185C76.835 186.185 73.8193 184.98 72.01 181.967C71.1053 180.461 70.2006 178.352 70.2006 176.244C69.899 171.122 69.899 166.001 69.5975 160.88C68.9943 145.817 68.6928 131.056 68.0897 115.994C68.0897 115.692 68.0897 115.391 68.0897 115.391H67.7881C66.8834 115.09 65.9787 114.789 65.074 114.487C64.7725 114.487 64.7725 114.487 64.4709 114.487C63.8678 114.186 63.2647 114.186 62.6615 113.885C62.0584 113.885 61.7568 113.584 61.1537 113.282C61.1537 113.282 60.8522 113.282 60.8522 112.981C57.535 111.475 55.424 109.065 54.8209 105.149C54.2178 100.63 55.7256 61.4673 56.9318 52.1286C57.2334 50.9236 57.535 49.7186 57.8365 48.8148C58.7412 48.2123 59.6459 47.9111 60.5506 47.6098C61.1537 47.6098 61.7568 47.3086 62.36 47.3086C63.8678 47.0073 65.3756 47.0073 66.8834 46.7061L82.5647 69.6011C81.0568 71.1073 80.1522 73.2161 80.1522 75.3248C80.1522 80.1448 84.0725 83.7598 88.8975 83.7598C93.7225 83.7598 97.6428 79.8436 97.6428 75.3248C97.6428 73.5173 97.0396 71.7098 95.8334 70.2036L111.816 46.7061C113.626 47.0073 115.133 47.0073 116.943 47.3086C117.546 47.3086 118.149 47.3086 118.752 47.6098C119.657 47.6098 120.863 48.2123 121.466 48.8148C122.069 49.7186 122.371 50.9236 122.371 52.1286C123.577 61.7686 125.085 101.232 124.482 105.45Z" fill="#1279E0"/>
<path d="M105.785 16.5815C105.785 25.619 98.5471 40.079 89.5002 40.079C80.4533 40.079 73.2158 25.3177 73.2158 16.5815C73.2158 7.54396 80.4533 0.313965 89.5002 0.313965C98.5471 0.313965 105.785 7.84521 105.785 16.5815Z" fill="#1279E0"/>
</svg>
