<svg width="245" height="307" viewBox="0 0 245 307" fill="none" xmlns="http://www.w3.org/2000/svg">
<path d="M75.4601 135.424H48.2161C47.5531 135.424 47.0156 135.963 47.0156 136.628V138.101C47.0156 138.766 47.5531 139.305 48.2161 139.305H75.4601C76.1231 139.305 76.6606 138.766 76.6606 138.101V136.628C76.6606 135.963 76.1231 135.424 75.4601 135.424Z" fill="black"/>
<path d="M77.3469 130.758H50.1028C49.4398 130.758 48.9023 131.297 48.9023 131.961V133.435C48.9023 134.099 49.4398 134.638 50.1028 134.638H77.3469C78.0099 134.638 78.5474 134.099 78.5474 133.435V131.961C78.5474 131.297 78.0099 130.758 77.3469 130.758Z" fill="black"/>
<path d="M75.4601 126.14H48.2161C47.5531 126.14 47.0156 126.679 47.0156 127.344V128.817C47.0156 129.482 47.5531 130.021 48.2161 130.021H75.4601C76.1231 130.021 76.6606 129.482 76.6606 128.817V127.344C76.6606 126.679 76.1231 126.14 75.4601 126.14Z" fill="black"/>
<path d="M77.3469 121.474H50.1028C49.4398 121.474 48.9023 122.012 48.9023 122.677V124.151C48.9023 124.815 49.4398 125.354 50.1028 125.354H77.3469C78.0099 125.354 78.5474 124.815 78.5474 124.151V122.677C78.5474 122.012 78.0099 121.474 77.3469 121.474Z" fill="black"/>
<path d="M74.7003 83.8971C75.5689 85.1161 76.7801 86.048 78.1793 86.5741L92.7078 91.9773C92.2423 92.6159 91.8258 93.2545 91.4338 93.9176L79.1838 98.0928H51.4498C51.7534 98.7332 51.9271 99.4278 51.9607 100.136C51.9944 100.844 51.8873 101.552 51.6458 102.219C51.3606 103.033 50.8713 103.761 50.2248 104.331C49.8237 104.718 49.3597 105.034 48.8528 105.264L48.4853 105.436L38.1953 110.348C38.8886 111.125 39.7384 111.746 40.6886 112.169C41.6389 112.593 42.6679 112.809 43.7078 112.804H80.4578C81.2891 112.816 82.1167 112.692 82.9078 112.436L83.9858 112.067C81.7167 120.962 80.678 130.127 80.8988 139.304H92.6588C92.4824 138.859 92.391 138.384 92.3893 137.905V99.9593C92.3855 99.3677 92.521 98.7834 92.785 98.2542C93.0489 97.725 93.4338 97.2658 93.9083 96.9139C94.568 96.3833 95.3901 96.097 96.2358 96.1034H115.836C114.754 95.6473 113.706 95.1138 112.7 94.507L111.769 93.8439C109.875 92.3943 108.221 90.6536 106.869 88.6863C105.274 86.3265 104.167 83.6712 103.61 80.8762C103.599 80.6799 103.599 80.4831 103.61 80.2868L85.4313 73.6801L64.8268 44.2081C64.4375 43.6347 63.9575 43.1287 63.4058 42.71L57.2563 58.9441L74.7003 83.8971Z" fill="black"/>
<path d="M54.5366 42.3418C53.8265 42.8511 53.2126 43.4832 52.7236 44.2084C52.0668 45.1094 51.6304 46.1526 51.4496 47.2538C51.3187 48.1458 51.3603 49.0546 51.5721 49.9308L54.5366 42.3418Z" fill="black"/>
<path d="M138.155 93.3285L136.514 93.0583L135.558 92.8864L136.342 93.1566L137.763 93.6478C136.51 94.6137 135.155 95.4374 133.721 96.1038H151.532C152.479 96.0993 153.393 96.4494 154.095 97.0855C154.798 97.7216 155.238 98.5977 155.33 99.5422C155.353 99.6803 155.353 99.8215 155.33 99.9597V137.905C155.328 138.384 155.237 138.859 155.06 139.305H166.82C167.074 129.412 165.852 119.536 163.194 110.005L170.397 112.461C171.188 112.717 172.016 112.841 172.847 112.829H209.769L205.604 105.461L205.187 104.724L203.35 101.605L201.733 98.7317C201.612 98.5265 201.505 98.3131 201.414 98.0931H173.95L158.27 92.7636L174.93 86.5745C176.325 86.0535 177.53 85.12 178.384 83.8975L194.824 60.3444L185.367 48.2363L167.702 73.6805L145.824 81.8344L145.358 82.0063C144.848 84.0237 144.021 85.947 142.908 87.7043C141.67 89.8474 140.061 91.7519 138.155 93.3285Z" fill="black"/>
<path d="M216.849 105.461C216.845 103.941 216.372 102.459 215.495 101.219C214.617 99.9795 213.379 99.0419 211.949 98.5352L216.849 106.935C216.898 106.445 216.898 105.951 216.849 105.461Z" fill="black"/>
<path d="M49.1717 99.1733L48.6572 98.0927L38.4162 76.136C38.1824 75.6299 37.8091 75.2014 37.3402 74.9012C36.8713 74.6009 36.3266 74.4413 35.7702 74.4414C35.3367 74.4428 34.9093 74.5437 34.5207 74.7361L22.7362 80.2867C22.0326 80.6173 21.4882 81.2136 21.222 81.9453C20.9557 82.677 20.9892 83.4847 21.3152 84.1917L32.0707 107.204C32.4097 107.901 33.0067 108.437 33.7345 108.699C34.4622 108.96 35.263 108.926 35.9662 108.604L36.7992 108.211L47.7507 103.152C48.1083 102.989 48.4297 102.755 48.6957 102.465C48.9617 102.175 49.1671 101.835 49.2996 101.464C49.432 101.093 49.489 100.699 49.467 100.305C49.4451 99.9121 49.3446 99.5271 49.1717 99.1733ZM24.9902 81.048C25.0869 81.0259 25.1874 81.0259 25.2842 81.048C25.4163 81.0477 25.5459 81.0843 25.6584 81.1537C25.771 81.2231 25.862 81.3226 25.9212 81.441C25.9906 81.6114 25.994 81.8017 25.9305 81.9744C25.867 82.1471 25.7413 82.2898 25.5782 82.3743C25.4816 82.3982 25.3807 82.3982 25.2842 82.3743C25.155 82.3759 25.0281 82.3396 24.9192 82.2698C24.8104 82.1999 24.7243 82.0996 24.6717 81.9813C24.6265 81.9001 24.5988 81.8102 24.5905 81.7176C24.5822 81.6249 24.5934 81.5315 24.6234 81.4435C24.6535 81.3555 24.7016 81.2748 24.7648 81.2067C24.828 81.1385 24.9048 81.0845 24.9902 81.048ZM27.2932 85.96C27.0662 86.0774 26.8136 86.1365 26.5582 86.132C26.1559 86.1403 25.7631 86.0086 25.4468 85.7592C25.1305 85.5098 24.9102 85.1581 24.8235 84.7642C24.7368 84.3703 24.7891 83.9584 24.9714 83.5987C25.1537 83.2391 25.4547 82.9539 25.8232 82.7918C26.0552 82.6885 26.3046 82.6301 26.5582 82.6199C26.8941 82.622 27.2223 82.7202 27.5044 82.9029C27.7865 83.0857 28.0107 83.3453 28.1507 83.6514C28.3419 84.0716 28.359 84.5507 28.1982 84.9835C28.0374 85.4163 27.712 85.7675 27.2932 85.96Z" fill="black"/>
<path d="M196.367 58.2317L201.83 65.2313L225.399 39.1486L223.292 36.4715L228.192 31.2157L210.16 19.6479L205.26 24.9283L186.396 45.7552L186.787 46.2464L196.367 58.2317ZM224.934 31.6332L222.067 34.8015L214.129 24.5599L224.934 31.6332Z" fill="black"/>
<path d="M44.8599 58.0846L53.68 61.4002L55.542 56.4882L61.2504 41.3838L63.1369 36.4718L54.3414 33.1317L56.7914 26.7952L31.1889 16.9712L16.8564 54.6708L42.4589 64.4948L44.8599 58.0846ZM53.0919 36.2754L58.6535 38.3875L57.649 41.0645L53.1409 53.0007L51.6465 56.9303L46.0849 54.8181L53.0919 36.2754Z" fill="black"/>
<path d="M205.8 93.3281H206.29L205.579 92.0756V91.8545C205.386 91.5094 205.093 91.2309 204.738 91.0556C204.384 90.8803 203.986 90.8164 203.595 90.8721C203.258 90.8774 202.929 90.9705 202.639 91.1423C202.18 91.4052 201.843 91.8388 201.701 92.349C201.559 92.8593 201.623 93.4052 201.88 93.8684V94.0895L202.59 95.342C202.859 94.6647 203.352 94.1009 203.987 93.7456C204.533 93.4214 205.167 93.2755 205.8 93.3281Z" fill="black"/>
<path d="M220.5 118.453L220.01 117.569C219.875 117.307 219.671 117.086 219.422 116.93C219.086 116.689 218.683 116.56 218.27 116.562C217.92 116.559 217.575 116.643 217.266 116.807C216.928 116.995 216.654 117.281 216.479 117.627C216.305 117.973 216.237 118.363 216.286 118.747C216.287 119.017 216.364 119.281 216.506 119.509L217.021 120.418V120.589L220.353 122.431L220.5 118.453Z" fill="black"/>
<path d="M204.256 98.0924L204.452 98.4363L208.249 105.264V105.46L212.12 112.264L214.227 116.021L214.962 117.249V117.446C215.186 116.817 215.609 116.28 216.167 115.916C216.725 115.552 217.386 115.382 218.049 115.432H218.662V115.26L217.951 113.983L215.501 109.709L208.911 98.0433L207.955 96.3487L207.465 95.4891C207.336 95.2291 207.131 95.0149 206.877 94.8751C206.55 94.6151 206.143 94.4763 205.726 94.4821C205.374 94.4876 205.029 94.5805 204.721 94.7523C204.392 94.9357 204.125 95.2139 203.955 95.551C203.784 95.8881 203.719 96.2685 203.766 96.6434C203.767 96.9283 203.843 97.2078 203.986 97.4539L204.256 98.0924Z" fill="black"/>
<path d="M107.8 219.959H87.8574C87.9533 221.197 88.292 222.404 88.8541 223.51C89.4163 224.616 90.1907 225.6 91.1331 226.406C92.0754 227.211 93.1671 227.822 94.3456 228.204C95.5241 228.585 96.7661 228.73 98.0004 228.629C100.436 228.739 102.819 227.896 104.647 226.279C106.476 224.662 107.606 222.396 107.8 219.959Z" fill="black"/>
<path d="M159.691 219.959H139.65C139.989 222.382 141.19 224.6 143.031 226.205C144.873 227.81 147.231 228.694 149.671 228.694C152.111 228.694 154.469 227.81 156.31 226.205C158.152 224.6 159.353 222.382 159.691 219.959Z" fill="black"/>
<path d="M39.7393 147.017H51.9648V228.629H57.2078V217.455H87.8573H107.898H139.65H159.691H188.846V228.629H194.089V147.017H206.315V141.761H166.821H153.125H147.931H99.6418H94.3988H80.7278H39.7393V147.017Z" fill="black"/>
<path d="M151.533 139.304C151.901 139.298 152.253 139.148 152.513 138.887C152.774 138.626 152.923 138.274 152.929 137.904V99.959C152.929 99.5877 152.782 99.2316 152.52 98.9691C152.258 98.7066 151.903 98.5591 151.533 98.5591H96.0156C95.6453 98.5591 95.2901 98.7066 95.0282 98.9691C94.7663 99.2316 94.6191 99.5877 94.6191 99.959V137.904C94.6254 138.274 94.7746 138.626 95.0351 138.887C95.2957 139.148 95.6472 139.298 96.0156 139.304H151.533ZM116.865 117.716C117.105 116.357 117.736 115.098 118.681 114.095C119.626 113.091 120.842 112.386 122.182 112.067C122.705 111.952 123.239 111.894 123.774 111.895C125.427 111.9 127.024 112.491 128.282 113.565C127.542 114.048 126.931 114.706 126.504 115.481C126.076 116.257 125.846 117.125 125.832 118.011C125.854 119.091 126.203 120.14 126.833 121.017C127.463 121.895 128.345 122.559 129.36 122.923C128.434 124.214 127.099 125.152 125.572 125.584C124.046 126.015 122.418 125.915 120.956 125.299C119.493 124.683 118.283 123.588 117.522 122.192C116.761 120.797 116.495 119.184 116.767 117.618L116.865 117.716Z" fill="black"/>
<ellipse cx="125.214" cy="77.1379" rx="18.2199" ry="18.2184" fill="black"/>
</svg>
