<svg width="181" height="232" viewBox="0 0 181 232" fill="none" xmlns="http://www.w3.org/2000/svg">
<path d="M114.401 35.1526L117.692 34.3196C118.537 36.5704 119.71 38.6238 121.138 40.4423L118.709 42.7995L122.261 46.425L124.693 44.0668C126.518 45.5603 128.565 46.7701 130.756 47.654L129.835 50.9066L134.73 52.2803L135.65 49.0286C137.94 49.4092 140.313 49.4533 142.703 49.1168L143.54 52.3924L148.469 51.1443L147.633 47.8697C149.894 47.0289 151.956 45.8613 153.785 44.4387L156.154 46.8573L159.798 43.3239L157.426 40.9024C158.926 39.0849 160.141 37.0497 161.028 34.8708L164.298 35.7872L165.677 30.9126L162.41 29.9971C162.793 27.7195 162.837 25.3574 162.499 22.9791L165.79 22.146L164.535 17.2398L161.246 18.0729C160.401 15.8211 159.228 13.7677 157.799 11.9482L160.229 9.59099L156.676 5.96549L154.245 8.32466C152.42 6.83209 150.375 5.62231 148.185 4.73942L149.106 1.4849L144.209 0.114076L143.289 3.36572C141.001 2.98514 138.627 2.94105 136.238 3.27752L135.402 0L130.471 1.24621L131.308 4.52085C129.045 5.36156 126.981 6.52916 125.152 7.95175L122.783 5.53315L119.142 9.06759L121.512 11.4871C120.01 13.3047 118.796 15.3398 117.908 17.5207L114.639 16.6052L113.26 21.4788L116.525 22.3943C116.144 24.672 116.1 27.0331 116.437 29.4124L113.147 30.2454L114.401 35.1526ZM135.39 10.2361C144.247 7.99393 153.251 13.3239 155.505 22.1365C157.757 30.951 152.402 39.9131 143.546 42.1544C134.693 44.3966 125.687 39.0695 123.433 30.254C121.182 21.4415 126.535 12.4784 135.39 10.2361Z" fill="#1279E0"/>
<path d="M163.968 48.5129L163.771 50.6689C162.268 50.6986 160.781 50.9545 159.356 51.4281L158.443 49.4629L155.505 50.8155L156.412 52.7711C155.147 53.5284 153.982 54.4813 152.966 55.6269L151.198 54.3864L149.331 57.0188L151.099 58.2602C150.354 59.5975 149.844 61.0105 149.551 62.4503L147.395 62.2548L147.102 65.4642L149.268 65.6607C149.298 67.1552 149.555 68.6353 150.031 70.0531L148.057 70.9609L149.413 73.8867L151.378 72.9827C152.14 74.2413 153.098 75.4022 154.249 76.4145L153.002 78.1736L155.647 80.0314L156.895 78.2714C158.238 79.0114 159.657 79.5195 161.104 79.8109L160.907 81.9573L164.132 82.2487L164.33 80.0928C165.832 80.063 167.319 79.8081 168.745 79.3335L169.657 81.2977L172.598 79.9461L171.69 77.9905C172.954 77.2332 174.12 76.2813 175.137 75.1357L176.903 76.3752L178.769 73.7419L177.003 72.5024C177.747 71.1651 178.257 69.7512 178.549 68.3113L180.704 68.5069L180.998 65.2974L178.831 65.1009C178.801 63.6064 178.544 62.1273 178.068 60.7095L180.045 59.8007L178.686 56.875L176.72 57.779C175.959 56.5203 175.002 55.3604 173.85 54.349L175.098 52.588L172.452 50.7321L171.204 52.4912C169.861 51.7512 168.444 51.2421 166.997 50.9507L167.193 48.8044L163.968 48.5129ZM170.122 56.8165C174.875 60.1535 176.007 66.6922 172.657 71.4201C169.304 76.149 162.737 77.2783 157.984 73.9432C153.231 70.6063 152.094 64.0694 155.448 59.3396C158.799 54.6117 165.369 53.4815 170.122 56.8165Z" fill="#1279E0"/>
<path d="M106.524 77.9781L104.136 79.1073L105.833 82.6609L108.233 81.5259C109.199 83.0789 110.394 84.4746 111.781 85.671L110.273 87.849L113.529 90.0816L115.03 87.9151C116.618 88.7664 118.348 89.3933 120.191 89.7432L119.98 92.365L123.92 92.6776L124.131 90.0567C126.005 90.004 127.815 89.6579 129.518 89.0693L130.654 91.4457L134.224 89.7566L133.084 87.3687C134.643 86.4072 136.047 85.2185 137.248 83.8381L139.435 85.3384L141.681 82.0992L139.504 80.6056C140.359 79.0268 140.99 77.3032 141.34 75.4703L143.972 75.6803L144.288 71.7566L141.655 71.5467C141.601 69.6812 141.255 67.8809 140.662 66.187L143.05 65.0568L141.353 61.5023L138.953 62.6382C137.986 61.0862 136.791 59.6895 135.404 58.4941L136.911 56.3171L133.656 54.0845L132.155 56.25C130.568 55.3987 128.837 54.7718 126.994 54.4219L127.205 51.8001L123.266 51.4885L123.055 54.1075C121.179 54.1602 119.369 54.5063 117.665 55.0949L116.53 52.7184L112.961 54.4085L114.102 56.7954C112.541 57.7569 111.138 58.9466 109.937 60.327L107.749 58.8268L105.507 62.0669L107.683 63.5595C106.826 65.1383 106.196 66.8619 105.846 68.6948L103.212 68.4849L102.896 72.4066L105.53 72.6165C105.584 74.482 105.931 76.2832 106.524 77.9781ZM124.62 59.3252C131.698 59.8899 136.978 66.0596 136.41 73.1045C135.843 80.1474 129.647 85.4016 122.567 84.838C115.49 84.2752 110.209 78.1065 110.774 71.0616C111.342 64.0167 117.538 58.7635 124.62 59.3252Z" fill="#1279E0"/>
<path d="M93.8044 73.7159C96.5182 62.1182 89.2704 50.5267 77.6161 47.8257C65.9618 45.1246 54.3141 52.3367 51.6003 63.9344C48.8865 75.5321 56.1342 87.1235 67.7886 89.8246C79.4429 92.5257 91.0906 85.3136 93.8044 73.7159Z" fill="#1279E0"/>
<path d="M42.4651 176.6C43.0777 176.695 43.699 176.759 44.3376 176.759V176.757H87.9549L92.0582 220.334C92.641 226.544 97.8876 231.2 104.031 231.2C104.407 231.2 104.785 231.183 105.168 231.147C111.789 230.529 116.652 224.688 116.033 218.1L110.909 163.658C110.329 157.501 105.134 152.793 98.9221 152.793H57.1243C57.1445 144.088 58.5027 135.09 60.0428 126.9C58.7781 126.247 57.6175 125.598 56.5608 124.961C46.1147 118.701 42.1569 112.028 41.7417 111.288C39.1189 106.704 40.7352 100.84 45.349 98.227C46.8005 97.4045 48.4467 96.9674 50.1121 96.9674C53.4997 96.9674 56.6745 98.7658 58.3996 101.662C58.3977 101.66 58.3977 101.658 58.3977 101.658C58.3996 101.658 58.441 101.717 58.5027 101.803C58.6731 102.04 59.0498 102.53 59.6787 103.203C60.5254 104.104 61.846 105.339 63.7175 106.698C63.7705 99.014 60.1584 91.6816 53.728 90.0874C45.505 88.0465 33.5852 92.4916 28.7354 106.528C22.1807 125.867 20.7725 138.455 23.2624 159.75C25.9122 173.316 34.4444 176.181 42.4651 176.6Z" fill="#1279E0"/>
<path d="M165.573 149.472H180.181V139.886H69.3418V149.472H155.459V229.998H165.573V149.472Z" fill="#1279E0"/>
<path d="M116.65 134.934H149.487L170.332 94.1155L164.323 91.0767L145.352 128.225H120.99C120.715 130.162 119.86 131.968 118.487 133.425C117.933 134.011 117.314 134.51 116.65 134.934Z" fill="#1279E0"/>
<path d="M58.2741 104.511C57.6057 103.798 57.1742 103.246 56.943 102.928C56.8284 102.77 56.7619 102.671 56.7436 102.64H56.7417C54.6043 99.0495 49.9597 97.8177 46.3023 99.8921C42.6045 101.988 41.3158 106.67 43.4213 110.35C43.9299 111.255 47.7606 117.451 57.5575 123.322C67.3284 129.199 82.9065 134.621 106.341 134.621C106.375 134.621 106.409 134.621 106.444 134.621C108.157 134.621 109.914 134.593 111.711 134.534C115.962 134.398 119.302 130.854 119.162 126.62C119.022 122.388 115.464 119.068 111.21 119.204C109.573 119.258 107.984 119.284 106.444 119.284C85.2827 119.268 72.7301 114.499 65.5137 110.186C61.9035 108.019 59.6149 105.94 58.2741 104.511Z" fill="#1279E0"/>
<path d="M52.9769 229.998H63.5723V192.932H65.8204V182.387H16.5664C17.6712 154.801 15.6272 127.122 10.4066 99.8862C6.93707 100.546 3.46853 101.203 -0.000976562 101.863C8.11123 144.183 8.34241 187.61 0.74359 229.999H11.5066C12.282 225.535 12.9533 221.061 13.5611 216.578H52.9769V229.998ZM14.2941 210.825C15.005 204.871 15.5656 198.906 15.9798 192.932H52.9769V210.825H14.2941Z" fill="#1279E0"/>
</svg>
