<svg width="262" height="195" viewBox="0 0 262 195" fill="none" xmlns="http://www.w3.org/2000/svg">
<path d="M101.46 58.0468C101.796 57.6507 102.171 57.2983 102.574 56.9838L95.3151 48.637L93.3105 50.3706L100.734 58.9072C100.975 58.6214 101.213 58.3387 101.46 58.0468Z" fill="black"/>
<path d="M118.752 89.7922C112.497 87.6518 107.743 82.2732 106.509 75.6698C102.979 80.0292 100.603 83.182 99.0258 85.4055L97.7301 84.6079C99.6641 81.8793 102.462 78.2283 106.243 73.5975C106.211 73.1582 106.189 72.7159 106.189 72.2676C106.189 67.0599 108.359 62.3496 111.841 58.9814C111.636 58.744 111.415 58.5157 111.167 58.3063C108.609 56.1492 104.782 56.469 102.619 59.0207C95.3586 67.6027 90.5429 73.7079 87.3929 78.2427C86.1798 79.9892 85.2049 81.5096 84.4444 82.8387C84.4429 82.841 84.4422 82.8433 84.4414 82.8455C83.8417 83.9033 83.3573 84.8642 82.9699 85.8675C82.5938 86.8867 82.2474 87.9202 82.2246 89.4754C82.2261 90.1793 82.3148 91.0155 82.6484 91.9432C83.1063 93.3381 84.3489 94.8487 85.7287 95.5677C87.1032 96.3185 88.3322 96.447 89.2442 96.453C91.0607 96.416 92.1168 95.9994 93.1896 95.6055C95.0016 94.8789 96.6695 93.921 98.4086 92.8474C99.4162 92.2199 100.432 91.5493 101.418 90.8771V98.4755H117.571L118.752 89.7922Z" fill="black"/>
<path d="M134.101 101.794C133.608 101.797 133.125 101.804 132.618 101.804L131.42 101.802C131.369 101.802 131.321 101.795 131.271 101.794H34.2197V104.479V109.181H38.7633V194.401H85.0228V177.439H175.804V194.4H222.063V109.18H226.607V104.478V101.793H134.101V101.794ZM80.3958 113.311V148.329H43.3887V113.311H80.3958ZM80.3958 189.092H43.3887V154.074H80.3958V189.092ZM172.161 170.897H88.6664V113.31H172.161V170.897ZM217.437 189.092H180.43V154.074H217.437V189.092ZM217.437 148.329H180.43V113.311H217.437V148.329Z" fill="black"/>
<path d="M77.7437 115.956H46.042V145.683H77.7437V115.956Z" fill="black"/>
<path d="M77.7437 156.72H46.042V186.446H77.7437V156.72Z" fill="black"/>
<path d="M214.782 115.957H183.084V145.682H214.782V115.957Z" fill="black"/>
<path d="M214.782 156.721H183.084V186.446H214.782V156.721Z" fill="black"/>
<path d="M169.505 115.958H91.3203V168.251H169.505V115.958Z" fill="black"/>
<path d="M136.47 86.6379C138.599 86.5918 140.589 86.5079 142.426 86.3862V86.1351C142.803 86.1903 143.178 86.2478 143.547 86.3098C145.204 86.5895 146.763 86.9411 148.169 87.3388C144.767 87.8143 140.156 88.1334 134.256 88.1833C131.953 89.554 129.332 90.4424 126.53 90.7078C125.816 91.6959 125.387 92.9049 125.382 94.2166C125.37 97.5569 128.076 100.276 131.425 100.289C131.822 100.29 132.22 100.29 132.617 100.29C140.185 100.289 146.093 99.9029 150.738 99.1952C155.399 98.443 158.755 97.5516 161.694 95.6803C161.695 95.6796 161.697 95.6788 161.698 95.6773C161.699 95.6766 161.7 95.6766 161.701 95.6758C162.757 94.9742 163.793 94.0873 164.65 92.8247C165.215 92.0052 165.659 90.9845 165.895 89.9064C166.016 89.3499 166.085 88.7783 166.08 88.209C166.08 86.1956 165.336 84.496 164.495 83.2757C162.982 81.1263 161.184 79.9015 159.2 78.7651C156.215 77.1199 152.636 75.883 148.572 74.9674C146.873 74.5894 145.09 74.2787 143.251 74.0405C142.767 79.1099 140.226 83.5888 136.47 86.6379Z" fill="black"/>
<path d="M124.763 89.2818C134.184 89.2818 141.821 81.6656 141.821 72.2705C141.821 62.8755 134.184 55.2593 124.763 55.2593C115.342 55.2593 107.705 62.8755 107.705 72.2705C107.705 81.6656 115.342 89.2818 124.763 89.2818Z" fill="black"/>
<path d="M209.853 95.8157H172.704V98.4619H209.853V95.8157Z" fill="black"/>
<path d="M214.655 90.5232H177.506V93.1694H214.655V90.5232Z" fill="black"/>
<path d="M209.599 85.7344H172.45V88.3806H209.599V85.7344Z" fill="black"/>
<path d="M211.191 69.5533C216.472 69.5533 221.507 68.6188 226.101 66.926C228.847 65.9144 242.541 75.7636 262 76.7721C235.718 68.4555 237.923 60.2281 239.704 58.5323C246.235 52.3153 250.234 43.9616 250.234 34.7755C250.234 15.5702 232.754 0 211.191 0C189.629 0 172.149 15.5702 172.149 34.777C172.149 53.9831 189.629 69.5533 211.191 69.5533ZM211.773 8.09735C231.138 8.09735 246.837 20.7908 246.837 36.4494C246.837 52.1081 231.138 64.8015 211.773 64.8015C192.408 64.8015 176.709 52.1081 176.709 36.4494C176.709 20.7908 192.408 8.09735 211.773 8.09735Z" fill="black"/>
<path d="M199.649 36.2167C200.45 36.343 201.245 36.4927 202.038 36.6514C201.407 38.3321 200.889 40.059 200.522 41.8463C200.27 43.0718 203.16 44.277 203.462 42.811C203.851 40.9231 204.414 39.101 205.117 37.3387C206.182 37.6041 207.24 37.8959 208.293 38.2051C207.595 39.6499 207.002 41.1454 206.59 42.7241C206.194 44.2475 208.808 45.8821 209.28 44.0706C209.736 42.3271 210.42 40.691 211.235 39.1199C212.146 39.4178 213.053 39.724 213.957 40.0438C214.72 40.313 214.833 39.1026 214.148 38.8606C213.372 38.5862 212.593 38.3223 211.813 38.0637C212.321 37.1648 212.869 36.2847 213.439 35.4175C213.89 35.6391 214.34 35.8629 214.779 36.1033C215.431 36.4601 218.325 35.8908 217.476 35.4259C216.483 34.8838 215.46 34.4022 214.423 33.9538C214.861 33.3142 215.305 32.6776 215.749 32.0433C216.665 30.7376 214.341 28.6335 213.329 30.076C212.696 30.978 212.065 31.8853 211.451 32.8023C210.288 32.4032 209.109 32.0433 207.919 31.7325C208.476 30.7973 209.06 29.8749 209.68 28.9722C210.418 27.8971 207.661 26.3623 206.885 27.4926C206.1 28.6357 205.369 29.8046 204.692 30.9984C203.784 30.8162 202.876 30.6468 201.969 30.5032C201.15 30.3739 198.423 31.1594 200.427 31.4762C201.64 31.6683 202.851 31.8996 204.054 32.1726C203.479 33.2658 202.956 34.3817 202.485 35.5211C201.608 35.3419 200.728 35.1748 199.841 35.0335C199.046 34.908 198.922 36.1018 199.649 36.2167ZM207.194 32.9997C208.336 33.3391 209.461 33.7255 210.569 34.1595C209.954 35.1272 209.373 36.1139 208.839 37.1232C207.764 36.8034 206.68 36.5055 205.594 36.2303C206.076 35.1302 206.611 34.0544 207.194 32.9997Z" fill="black"/>
<path d="M222.956 36.7678C224.74 36.4517 226.54 36.237 228.344 36.11C227.435 37.8202 226.601 39.5697 225.802 41.3064C225.508 41.9452 227.2 43.3825 227.182 43.4226C228.249 41.103 229.378 38.7607 230.669 36.5198C231.59 37.8784 232.277 39.3988 232.629 41.1173C232.819 42.0488 235.089 43.0778 234.836 41.8386C234.387 39.643 233.503 37.7098 232.313 35.992C234.649 36.0162 236.983 36.2 239.296 36.575C240.21 36.7224 242.13 35.2609 240.673 35.0243C237.799 34.5586 234.894 34.3469 231.99 34.3748C232.883 33.0071 233.845 31.6901 234.923 30.4698C235.297 30.0472 233.669 28.213 233.545 28.3536C232.208 29.8665 231.041 31.52 229.981 33.2468C228.361 31.6455 226.471 30.2642 224.467 29.053C223.021 28.1797 222.97 29.9784 224.076 30.6452C225.887 31.7385 227.598 33.0026 229.026 34.4951C227.058 34.6251 225.096 34.8549 223.151 35.1997C221.896 35.4227 221.289 37.0634 222.956 36.7678Z" fill="black"/>
<path d="M192.593 39.8546C193.692 39.6785 193.828 31.0368 192.424 28.0753C191.02 25.1138 189.253 26.1526 188.936 28.2401C188.619 30.3276 191.494 40.03 192.593 39.8546Z" fill="black"/>
<path d="M194.69 43.3633C195.043 42.5033 194.631 41.5203 193.769 41.1677C192.906 40.815 191.921 41.2263 191.567 42.0862C191.213 42.9462 191.626 43.9292 192.488 44.2818C193.35 44.6345 194.336 44.2232 194.69 43.3633Z" fill="black"/>
<path d="M40.0274 37.684C38.8288 37.2069 37.6036 36.8017 36.3625 36.4373C36.7439 35.7001 37.1298 34.9645 37.5217 34.2303C38.3405 32.6918 35.7643 30.3979 34.8697 32.0771C34.2503 33.2407 33.6302 34.408 33.0381 35.5882C31.7174 35.3024 30.3868 35.0628 29.0472 34.876C29.5135 33.8153 30.01 32.7628 30.5491 31.724C31.2284 30.4138 28.1662 28.7988 27.49 30.103C26.7455 31.5403 26.0685 33.004 25.4597 34.4904C24.3445 34.3989 23.23 34.3264 22.117 34.2878C20.7433 34.2387 18.8805 35.3312 21.2634 35.4151C22.5045 35.4589 23.7516 35.5413 24.9965 35.6608C24.5067 36.9537 24.0784 38.2662 23.7129 39.5976C22.7008 39.5152 21.6887 39.4471 20.6728 39.4101C19.8093 39.3791 20.0011 40.7233 20.7911 40.7521C21.6561 40.7838 22.5173 40.8383 23.3793 40.904C22.9381 42.7466 22.6167 44.6223 22.4597 46.5389C22.346 47.927 25.5484 49.1859 25.6788 47.5951C25.8554 45.4207 26.2398 43.3053 26.7895 41.2375C27.9919 41.3849 29.1897 41.5626 30.3861 41.7599C29.8471 43.3597 29.4293 45.0004 29.1973 46.7C28.9691 48.3784 31.8713 50.1665 32.1442 48.175C32.4194 46.1526 32.966 44.2269 33.6651 42.3564C34.6726 42.5553 35.6802 42.7632 36.684 42.9855C37.552 43.1767 37.6832 41.8635 36.894 41.6903C35.9804 41.4885 35.0661 41.2987 34.1487 41.1157C34.5991 40.0278 35.0979 38.9572 35.6233 37.8957C36.1108 38.0651 36.5975 38.2359 37.0744 38.4257C37.8326 38.7258 40.9318 38.0431 40.0274 37.684ZM30.841 40.4988C29.6181 40.2924 28.3907 40.1117 27.1602 39.9552C27.5514 38.6586 28.007 37.3816 28.5203 36.1212C29.8213 36.3344 31.1101 36.6013 32.3846 36.9257C31.8228 38.0998 31.2997 39.2884 30.841 40.4988Z" fill="black"/>
<path d="M70.2141 39.8328C71.4294 39.7603 72.5189 30.3617 71.3112 26.9829C70.1042 23.6041 68.0663 24.5446 67.4947 26.7841C66.9208 29.0235 68.9981 39.9062 70.2141 39.8328Z" fill="black"/>
<path d="M72.1122 43.8682C72.5905 42.9699 72.2478 41.8547 71.3465 41.3775C70.4453 40.9002 69.327 41.2416 68.8486 42.14C68.3702 43.0383 68.713 44.1535 69.6142 44.6307C70.5154 45.108 71.6338 44.7666 72.1122 43.8682Z" fill="black"/>
<path d="M49.6537 45.8345C54.4383 48.275 61.7066 46.3131 62.0266 40.1686C62.0766 39.2258 59.9773 38.0736 59.9242 39.0784C59.671 43.9338 53.7469 46.7077 49.6727 44.1349C46.4127 42.0761 45.283 37.1482 46.1769 33.6249C47.1101 29.9467 51.12 29.0243 54.2708 30.3542C55.7969 30.9992 57.0016 32.1801 57.643 33.6983C58.5399 35.8281 57.3215 37.6267 55.0843 35.8644C54.8295 35.6633 53.9084 35.227 53.6779 35.7192C53.2769 36.5751 53.2556 37.2578 53.358 38.1998C53.5119 39.6242 52.145 39.9199 51.5013 38.5461C51.0055 37.4884 51.267 36.4223 52.5293 36.1804C53.753 35.946 52.1867 34.1708 51.2951 34.3409C47.8546 35.0002 49.2739 38.9498 51.1457 40.6207C51.9145 41.3072 53.8212 42.2115 54.8197 41.4554C56.1199 40.468 55.2207 39.0564 55.4459 37.725C56.5369 38.1605 57.7203 38.2376 58.9485 38.4395C59.2556 38.4902 59.5224 38.3525 59.6225 38.0615C62.6369 29.3041 46.4566 23.1437 43.926 33.1222C42.785 37.6161 45.512 43.7213 49.6537 45.8345Z" fill="black"/>
<path d="M0 80.1427C16.4198 79.2248 26.2522 70.7502 29.4015 67.5566C34.9723 70.1574 41.3263 71.6363 48.0783 71.6363C70.0606 71.6363 87.8807 56.0094 87.8807 36.7315C87.8807 17.4543 70.0606 1.82666 48.0783 1.82666C26.096 1.82666 8.27587 17.4536 8.27587 36.7315C8.27587 47.0471 13.3812 56.3133 21.4941 62.7035C20.0453 66.4134 14.9088 76.1983 0 80.1427ZM12.3198 38.1181C12.3198 22.529 27.707 9.89226 46.6886 9.89226C65.6702 9.89226 81.0574 22.5297 81.0574 38.1181C81.0574 53.7064 65.6702 66.3439 46.6886 66.3439C27.707 66.3439 12.3198 53.7072 12.3198 38.1181Z" fill="black"/>
<path d="M136.166 46.9238L146.752 30.7828L139.345 30.1742L145.636 17.3023L142.653 16.1047L136.088 32.2223L142.781 32.3055L135.497 46.6199L136.166 46.9238Z" fill="black"/>
<path d="M151.267 43.0536L139.888 50.5098L140.25 51.0119L154.825 43.6003L149.641 40.0491L159.685 33.2355L158.001 31.1064L146.388 40.1874L151.267 43.0536Z" fill="black"/>
<path d="M128.819 33.6301L128.495 46.9956L129.104 46.9866L131.255 31.0648L125.468 33.2558L125.566 21.3306L122.891 21.4969L123.758 35.961L128.819 33.6301Z" fill="black"/>
</svg>
